SplineFontDB: 3.0
FontName: GUJPatel-Bold
FullName: GUJ Patel Bold
FamilyName: GUJ Patel
Weight: Bold
Copyright: Copyright (c) 2009-2015, NLCI (http://www.nlci.in/fonts/)
Version: 1.0 Tue May 09 11:53:10 1995
ItalicAngle: 0
UnderlinePosition: -290
UnderlineWidth: 20
Ascent: 800
Descent: 200
InvalidEm: 0
LayerCount: 2
Layer: 0 1 "Back" 1
Layer: 1 1 "Fore" 0
XUID: [1021 955 1228309082 3905698]
FSType: 0
OS2Version: 3
OS2_WeightWidthSlopeOnly: 0
OS2_UseTypoMetrics: 1
CreationTime: 1258107727
ModificationTime: 1258107727
PfmFamily: 81
TTFWeight: 700
TTFWidth: 5
LineGap: 0
VLineGap: 0
Panose: 5 0 0 0 0 0 0 0 0 0
OS2TypoAscent: 0
OS2TypoAOffset: 1
OS2TypoDescent: -150
OS2TypoDOffset: 1
OS2TypoLinegap: 0
OS2WinAscent: -2
OS2WinAOffset: 1
OS2WinDescent: -64
OS2WinDOffset: 1
HheadAscent: -2
HheadAOffset: 1
HheadDescent: 64
HheadDOffset: 1
OS2SubXSize: 700
OS2SubYSize: 650
OS2SubXOff: 0
OS2SubYOff: 143
OS2SupXSize: 700
OS2SupYSize: 650
OS2SupXOff: 0
OS2SupYOff: 453
OS2StrikeYSize: 50
OS2StrikeYPos: 259
OS2Vendor: 'Alts'
OS2CodePages: 80000000.00000000
OS2UnicodeRanges: 00000000.00000000.00000000.00000000
Lookup: 4 0 0 "'akhn' Akhand in Gujarati lookup 0" { "'akhn' Akhand in Gujarati lookup 0 subtable"  } ['akhn' ('gujr' <'dflt' > ) ]
Lookup: 4 0 0 "'rphf' Reph Form in Gujarati lookup 1" { "'rphf' Reph Form in Gujarati lookup 1 subtable"  } ['rphf' ('gujr' <'dflt' > ) ]
Lookup: 4 0 0 "'blwf' Below Base Forms in Gujarati lookup 2" { "'blwf' Below Base Forms in Gujarati lookup 2 subtable"  } ['blwf' ('gujr' <'dflt' > ) ]
Lookup: 4 0 0 "'vatu' Vattu Variants in Gujarati lookup 3" { "'vatu' Vattu Variants in Gujarati lookup 3 subtable"  } ['vatu' ('gujr' <'dflt' > ) ]
Lookup: 4 0 0 "'half' Half Forms in Gujarati lookup 4" { "'half' Half Forms in Gujarati lookup 4 subtable"  } ['half' ('gujr' <'dflt' > ) ]
Lookup: 4 0 0 "'pres' Pre Base Substitutions in Gujarati lookup 5" { "'pres' Pre Base Substitutions in Gujarati lookup 5 subtable"  } ['pres' ('gujr' <'dflt' > ) ]

StartChar: .notdef
Encoding: 65536 -1 0
Width: 500
Flags: W
LayerCount: 2
Fore
SplineSet
31 0 m 1,0,-1
 31 800 l 1,1,-1
 469 800 l 1,2,-1
 469 0 l 1,3,-1
 31 0 l 1,0,-1
438 31 m 1,4,-1
 438 769 l 1,5,-1
 62 769 l 1,6,-1
 62 31 l 1,7,-1
 438 31 l 1,4,-1
EndSplineSet
EndChar

StartChar: exclam
Encoding: 33 33 4
Width: 339
Flags: W
LayerCount: 2
Fore
SplineSet
250 69 m 1,0,1
 250 52 250 52 243.5 37 c 128,-1,2
 237 22 237 22 226.5 11.5 c 128,-1,3
 216 1 216 1 202 -5 c 128,-1,4
 188 -11 188 -11 172 -11 c 0,5,6
 160 -11 160 -11 146 -6.5 c 128,-1,7
 132 -2 132 -2 120 7.5 c 128,-1,8
 108 17 108 17 100 32.5 c 128,-1,9
 92 48 92 48 92 69 c 0,10,11
 92 88 92 88 99 102.5 c 128,-1,12
 106 117 106 117 117.5 126.5 c 128,-1,13
 129 136 129 136 143 141 c 128,-1,14
 157 146 157 146 171 146 c 0,15,16
 184 146 184 146 198 141 c 128,-1,17
 212 136 212 136 223 126 c 128,-1,18
 234 116 234 116 241 101.5 c 128,-1,19
 248 87 248 87 250 69 c 1,0,1
196 206 m 1,20,-1
 142 206 l 1,21,-1
 87 603 l 1,22,23
 87 623 87 623 93.5 638 c 128,-1,24
 100 653 100 653 110.5 662.5 c 128,-1,25
 121 672 121 672 135.5 676.5 c 128,-1,26
 150 681 150 681 167 681 c 0,27,28
 183 681 183 681 197.5 676.5 c 128,-1,29
 212 672 212 672 222.5 662.5 c 128,-1,30
 233 653 233 653 239 638 c 128,-1,31
 245 623 245 623 245 602 c 1,32,-1
 196 206 l 1,20,-1
EndSplineSet
EndChar

StartChar: quotedbl
Encoding: 34 34 5
Width: 392
Flags: W
LayerCount: 2
Fore
SplineSet
79 416 m 1,0,-1
 40 649 l 1,1,2
 40 676 40 676 53 693.5 c 128,-1,3
 66 711 66 711 96 711 c 256,4,5
 126 711 126 711 139.5 693.5 c 128,-1,6
 153 676 153 676 153 649 c 1,7,-1
 115 416 l 1,8,-1
 79 416 l 1,0,-1
273 416 m 1,9,-1
 234 649 l 1,10,11
 234 676 234 676 247 693.5 c 128,-1,12
 260 711 260 711 290 711 c 256,13,14
 320 711 320 711 334 693.5 c 128,-1,15
 348 676 348 676 348 649 c 1,16,-1
 308 416 l 1,17,-1
 273 416 l 1,9,-1
EndSplineSet
EndChar

StartChar: numbersign
Encoding: 35 35 6
Width: 741
Flags: W
LayerCount: 2
Fore
SplineSet
331 414 m 1,0,-1
 288 283 l 1,1,-1
 412 283 l 1,2,-1
 457 414 l 1,3,-1
 331 414 l 1,0,-1
526 414 m 1,4,-1
 484 283 l 1,5,-1
 639 283 l 1,6,-1
 639 221 l 1,7,-1
 462 221 l 1,8,-1
 387 -22 l 1,9,-1
 318 -5 l 1,10,-1
 392 221 l 1,11,-1
 267 221 l 1,12,-1
 189 -22 l 1,13,-1
 123 -4 l 1,14,-1
 197 221 l 1,15,-1
 64 221 l 1,16,-1
 64 283 l 1,17,-1
 217 283 l 1,18,-1
 259 414 l 1,19,-1
 112 414 l 1,20,-1
 112 479 l 1,21,-1
 280 479 l 1,22,-1
 357 708 l 1,23,-1
 423 690 l 1,24,-1
 350 479 l 1,25,-1
 479 479 l 1,26,-1
 553 708 l 1,27,-1
 621 689 l 1,28,-1
 546 479 l 1,29,-1
 677 479 l 1,30,-1
 677 414 l 1,31,-1
 526 414 l 1,4,-1
EndSplineSet
EndChar

StartChar: dollar
Encoding: 36 36 7
Width: 586
Flags: W
LayerCount: 2
Fore
SplineSet
407 168 m 0,0,1
 407 192 407 192 398 209 c 128,-1,2
 389 226 389 226 376 237 c 128,-1,3
 363 248 363 248 347.5 254.5 c 128,-1,4
 332 261 332 261 320 264 c 1,5,-1
 320 62 l 1,6,7
 344 65 344 65 363 77 c 0,8,9
 371 81 371 81 379 88.5 c 128,-1,10
 387 96 387 96 393 106 c 128,-1,11
 399 116 399 116 402.5 130 c 128,-1,12
 406 144 406 144 407 168 c 0,0,1
258 597 m 1,13,14
 238 595 238 595 222 585 c 0,15,16
 209 576 209 576 198.5 558 c 128,-1,17
 188 540 188 540 188 508 c 0,18,19
 188 478 188 478 198.5 459 c 128,-1,20
 209 440 209 440 222 430 c 0,21,22
 238 418 238 418 258 413 c 1,23,-1
 258 597 l 1,13,14
533 204 m 1,24,25
 533 162 533 162 517.5 127.5 c 128,-1,26
 502 93 502 93 473.5 67.5 c 128,-1,27
 445 42 445 42 405.5 25.5 c 128,-1,28
 366 9 366 9 319 3 c 1,29,-1
 319 -100 l 1,30,-1
 260 -100 l 1,31,-1
 260 2 l 1,32,33
 226 3 226 3 191 7 c 0,34,35
 161 10 161 10 125.5 16 c 128,-1,36
 90 22 90 22 58 32 c 1,37,-1
 58 204 l 1,38,-1
 128 204 l 1,39,-1
 148 87 l 1,40,41
 163 78 163 78 182.5 73 c 128,-1,42
 202 68 202 68 219 66 c 0,43,44
 239 64 239 64 259 64 c 1,45,-1
 259 284 l 1,46,47
 241 289 241 289 219.5 296 c 128,-1,48
 198 303 198 303 176 313 c 128,-1,49
 154 323 154 323 133.5 337 c 128,-1,50
 113 351 113 351 97.5 370.5 c 128,-1,51
 82 390 82 390 72.5 416 c 128,-1,52
 63 442 63 442 63 475 c 0,53,54
 63 509 63 509 71.5 535 c 128,-1,55
 80 561 80 561 93.5 581 c 128,-1,56
 107 601 107 601 124.5 614.5 c 128,-1,57
 142 628 142 628 160 637 c 0,58,59
 203 658 203 658 258 662 c 1,60,-1
 258 736 l 1,61,-1
 317 736 l 1,62,-1
 317 662 l 1,63,64
 347 662 347 662 378.5 657.5 c 128,-1,65
 410 653 410 653 436 648 c 0,66,67
 466 642 466 642 495 635 c 1,68,-1
 495 469 l 1,69,-1
 427 469 l 1,70,-1
 408 579 l 2,71,72
 408 582 408 582 396 586 c 128,-1,73
 384 590 384 590 368.5 593.5 c 128,-1,74
 353 597 353 597 338.5 599 c 128,-1,75
 324 601 324 601 319 601 c 1,76,-1
 319 395 l 1,77,78
 335 391 335 391 357 384.5 c 128,-1,79
 379 378 379 378 402.5 368 c 128,-1,80
 426 358 426 358 449 344 c 128,-1,81
 472 330 472 330 490.5 310 c 128,-1,82
 509 290 509 290 520 263.5 c 128,-1,83
 531 237 531 237 533 204 c 1,24,25
EndSplineSet
EndChar

StartChar: percent
Encoding: 37 37 8
Width: 894
Flags: W
LayerCount: 2
Fore
SplineSet
264 478 m 0,0,1
 264 523 264 523 259.5 554 c 128,-1,2
 255 585 255 585 247 603.5 c 128,-1,3
 239 622 239 622 227.5 630 c 128,-1,4
 216 638 216 638 203 638 c 0,5,6
 189 638 189 638 176.5 630 c 128,-1,7
 164 622 164 622 154 603.5 c 128,-1,8
 144 585 144 585 138.5 554 c 128,-1,9
 133 523 133 523 133 478 c 0,10,11
 133 432 133 432 138.5 401 c 128,-1,12
 144 370 144 370 154 351 c 128,-1,13
 164 332 164 332 176.5 324 c 128,-1,14
 189 316 189 316 203 316 c 0,15,16
 216 316 216 316 227.5 324 c 128,-1,17
 239 332 239 332 247 351 c 128,-1,18
 255 370 255 370 259.5 401 c 128,-1,19
 264 432 264 432 264 478 c 0,0,1
755 194 m 0,20,21
 755 239 755 239 750.5 270 c 128,-1,22
 746 301 746 301 738 319.5 c 128,-1,23
 730 338 730 338 718.5 346 c 128,-1,24
 707 354 707 354 694 354 c 256,25,26
 681 354 681 354 669 346 c 128,-1,27
 657 338 657 338 648 319.5 c 128,-1,28
 639 301 639 301 633.5 270 c 128,-1,29
 628 239 628 239 628 194 c 0,30,31
 628 148 628 148 633.5 117 c 128,-1,32
 639 86 639 86 648 67.5 c 128,-1,33
 657 49 657 49 669 41 c 128,-1,34
 681 33 681 33 694 33 c 256,35,36
 707 33 707 33 718.5 41 c 128,-1,37
 730 49 730 49 738 67.5 c 128,-1,38
 746 86 746 86 750.5 117 c 128,-1,39
 755 148 755 148 755 194 c 0,20,21
372 479 m 256,40,41
 372 431 372 431 361.5 392.5 c 128,-1,42
 351 354 351 354 330 327 c 128,-1,43
 309 300 309 300 277 285.5 c 128,-1,44
 245 271 245 271 203 271 c 256,45,46
 161 271 161 271 129 285.5 c 128,-1,47
 97 300 97 300 75.5 327 c 128,-1,48
 54 354 54 354 43.5 392.5 c 128,-1,49
 33 431 33 431 33 479 c 256,50,51
 33 527 33 527 43.5 565.5 c 128,-1,52
 54 604 54 604 75.5 631 c 128,-1,53
 97 658 97 658 129 672 c 128,-1,54
 161 686 161 686 203 686 c 256,55,56
 245 686 245 686 277 672 c 128,-1,57
 309 658 309 658 330 631 c 128,-1,58
 351 604 351 604 361.5 565.5 c 128,-1,59
 372 527 372 527 372 479 c 256,40,41
275 1 m 1,60,-1
 205 1 l 1,61,-1
 620 671 l 1,62,-1
 691 671 l 1,63,-1
 275 1 l 1,60,-1
865 193 m 256,64,65
 865 145 865 145 854.5 106.5 c 128,-1,66
 844 68 844 68 823 41 c 128,-1,67
 802 14 802 14 770 0 c 128,-1,68
 738 -14 738 -14 696 -14 c 256,69,70
 654 -14 654 -14 622.5 0 c 128,-1,71
 591 14 591 14 570 41 c 128,-1,72
 549 68 549 68 539 106.5 c 128,-1,73
 529 145 529 145 529 193 c 256,74,75
 529 241 529 241 539 279.5 c 128,-1,76
 549 318 549 318 570 344.5 c 128,-1,77
 591 371 591 371 622.5 385 c 128,-1,78
 654 399 654 399 696 399 c 256,79,80
 738 399 738 399 770 385 c 128,-1,81
 802 371 802 371 823 344.5 c 128,-1,82
 844 318 844 318 854.5 279.5 c 128,-1,83
 865 241 865 241 865 193 c 256,64,65
EndSplineSet
EndChar

StartChar: ampersand
Encoding: 38 38 9
Width: 734
Flags: W
LayerCount: 2
Fore
SplineSet
500 0 m 1,0,-1
 500 23 l 1,1,-1
 459 69 l 1,2,3
 436 46 436 46 406 28 c 0,4,5
 393 21 393 21 377 13.5 c 128,-1,6
 361 6 361 6 342 0.5 c 128,-1,7
 323 -5 323 -5 301.5 -8 c 128,-1,8
 280 -11 280 -11 257 -11 c 0,9,10
 209 -11 209 -11 169.5 3 c 128,-1,11
 130 17 130 17 102 42.5 c 128,-1,12
 74 68 74 68 58.5 104 c 128,-1,13
 43 140 43 140 43 184 c 0,14,15
 43 219 43 219 53 246 c 128,-1,16
 63 273 63 273 81.5 293.5 c 128,-1,17
 100 314 100 314 125.5 328.5 c 128,-1,18
 151 343 151 343 182 353 c 1,19,20
 181 353 181 353 175 357 c 0,21,22
 168 362 168 362 158 371.5 c 128,-1,23
 148 381 148 381 136.5 394 c 128,-1,24
 125 407 125 407 115 424 c 128,-1,25
 105 441 105 441 98.5 461.5 c 128,-1,26
 92 482 92 482 92 506 c 0,27,28
 92 547 92 547 109 578.5 c 128,-1,29
 126 610 126 610 155.5 631 c 128,-1,30
 185 652 185 652 224.5 662.5 c 128,-1,31
 264 673 264 673 308 673 c 0,32,33
 327 673 327 673 349 670.5 c 128,-1,34
 371 668 371 668 392.5 661 c 128,-1,35
 414 654 414 654 434 642.5 c 128,-1,36
 454 631 454 631 469 614 c 128,-1,37
 484 597 484 597 493 573.5 c 128,-1,38
 502 550 502 550 502 520 c 0,39,40
 502 487 502 487 492 462.5 c 128,-1,41
 482 438 482 438 466.5 420 c 128,-1,42
 451 402 451 402 432.5 390.5 c 128,-1,43
 414 379 414 379 397.5 372 c 128,-1,44
 381 365 381 365 369 362 c 128,-1,45
 357 359 357 359 355 359 c 1,46,-1
 508 200 l 1,47,48
 519 215 519 215 529 232 c 0,49,50
 537 247 537 247 545.5 267 c 128,-1,51
 554 287 554 287 558 310 c 0,52,53
 558 314 558 314 554.5 319.5 c 128,-1,54
 551 325 551 325 549 325 c 2,55,-1
 498 333 l 1,56,-1
 498 380 l 1,57,-1
 707 380 l 1,58,-1
 707 333 l 1,59,-1
 639 320 l 1,60,61
 627 281 627 281 611 250.5 c 128,-1,62
 595 220 595 220 581 199 c 0,63,64
 564 175 564 175 547 157 c 1,65,-1
 641 56 l 1,66,-1
 722 48 l 1,67,-1
 722 -2 l 1,68,-1
 500 0 l 1,0,-1
223 318 m 1,69,70
 210 309 210 309 200 297 c 0,71,72
 192 286 192 286 185 269 c 128,-1,73
 178 252 178 252 178 229 c 0,74,75
 178 187 178 187 190.5 157.5 c 128,-1,76
 203 128 203 128 223.5 109.5 c 128,-1,77
 244 91 244 91 270 83 c 128,-1,78
 296 75 296 75 322 75 c 0,79,80
 347 75 347 75 365 81 c 128,-1,81
 383 87 383 87 395 94 c 0,82,83
 409 102 409 102 418 113 c 1,84,-1
 223 318 l 1,69,70
377 524 m 0,85,86
 377 544 377 544 372 562 c 128,-1,87
 367 580 367 580 357 593 c 128,-1,88
 347 606 347 606 332.5 613.5 c 128,-1,89
 318 621 318 621 300 621 c 0,90,91
 283 621 283 621 268.5 615.5 c 128,-1,92
 254 610 254 610 243.5 600 c 128,-1,93
 233 590 233 590 227 576 c 128,-1,94
 221 562 221 562 221 545 c 0,95,96
 221 529 221 529 226 513 c 128,-1,97
 231 497 231 497 242 479.5 c 128,-1,98
 253 462 253 462 271 442 c 128,-1,99
 289 422 289 422 314 399 c 1,100,101
 329 412 329 412 340.5 425.5 c 128,-1,102
 352 439 352 439 360 453.5 c 128,-1,103
 368 468 368 468 372 485 c 128,-1,104
 376 502 376 502 377 524 c 0,85,86
EndSplineSet
EndChar

StartChar: quotesingle
Encoding: 39 39 10
Width: 175
Flags: W
LayerCount: 2
Fore
SplineSet
69 416 m 1,0,-1
 30 649 l 1,1,2
 30 676 30 676 43 693.5 c 128,-1,3
 56 711 56 711 86 711 c 256,4,5
 116 711 116 711 129.5 693.5 c 128,-1,6
 143 676 143 676 143 649 c 1,7,-1
 103 416 l 1,8,-1
 69 416 l 1,0,-1
EndSplineSet
EndChar

StartChar: parenleft
Encoding: 40 40 11
Width: 392
Flags: W
LayerCount: 2
Fore
SplineSet
357 -142 m 1,0,1
 284 -141 284 -141 228.5 -110.5 c 128,-1,2
 173 -80 173 -80 135.5 -24.5 c 128,-1,3
 98 31 98 31 79 109.5 c 128,-1,4
 60 188 60 188 60 286 c 0,5,6
 60 383 60 383 79 461 c 128,-1,7
 98 539 98 539 135.5 594 c 128,-1,8
 173 649 173 649 228.5 679.5 c 128,-1,9
 284 710 284 710 357 712 c 1,10,-1
 357 659 l 1,11,12
 305 652 305 652 272 621.5 c 128,-1,13
 239 591 239 591 220 542 c 128,-1,14
 201 493 201 493 194 427.5 c 128,-1,15
 187 362 187 362 187 286 c 0,16,17
 187 209 187 209 194 143.5 c 128,-1,18
 201 78 201 78 220 29 c 128,-1,19
 239 -20 239 -20 272 -50.5 c 128,-1,20
 305 -81 305 -81 357 -88 c 1,21,-1
 357 -142 l 1,0,1
EndSplineSet
EndChar

StartChar: parenright
Encoding: 41 41 12
Width: 392
Flags: W
LayerCount: 2
Fore
SplineSet
333 288 m 0,0,1
 333 190 333 190 314 111.5 c 128,-1,2
 295 33 295 33 257.5 -22.5 c 128,-1,3
 220 -78 220 -78 164.5 -108.5 c 128,-1,4
 109 -139 109 -139 36 -140 c 1,5,-1
 36 -86 l 1,6,7
 88 -79 88 -79 121 -48.5 c 128,-1,8
 154 -18 154 -18 173 31 c 128,-1,9
 192 80 192 80 199 145.5 c 128,-1,10
 206 211 206 211 206 288 c 0,11,12
 206 364 206 364 199 429.5 c 128,-1,13
 192 495 192 495 173 544 c 128,-1,14
 154 593 154 593 121 623.5 c 128,-1,15
 88 654 88 654 36 661 c 1,16,-1
 36 714 l 1,17,18
 109 712 109 712 164.5 681.5 c 128,-1,19
 220 651 220 651 257.5 596 c 128,-1,20
 295 541 295 541 314 463 c 128,-1,21
 333 385 333 385 333 288 c 0,0,1
EndSplineSet
EndChar

StartChar: asterisk
Encoding: 42 42 13
Width: 500
Flags: W
LayerCount: 2
Fore
SplineSet
204 357 m 1,0,-1
 128 337 l 1,1,-1
 126 415 l 1,2,-1
 232 493 l 1,3,-1
 244 481 l 1,4,-1
 204 357 l 1,0,-1
226 505 m 1,5,-1
 97 505 l 1,6,-1
 55 569 l 1,7,-1
 126 598 l 1,8,-1
 232 519 l 1,9,-1
 226 505 l 1,5,-1
372 336 m 1,10,-1
 296 356 l 1,11,-1
 256 480 l 1,12,-1
 268 492 l 1,13,-1
 374 414 l 1,14,-1
 372 336 l 1,10,-1
257 531 m 1,15,-1
 241 531 l 1,16,-1
 200 656 l 1,17,-1
 249 715 l 1,18,-1
 298 656 l 1,19,-1
 257 531 l 1,15,-1
401 504 m 1,20,-1
 273 504 l 1,21,-1
 267 519 l 1,22,-1
 372 597 l 1,23,-1
 445 568 l 1,24,-1
 401 504 l 1,20,-1
EndSplineSet
EndChar

StartChar: plus
Encoding: 43 43 14
Width: 1000
Flags: W
LayerCount: 2
Fore
SplineSet
530 269 m 1,0,-1
 530 0 l 1,1,-1
 469 0 l 1,2,-1
 469 269 l 1,3,-1
 200 269 l 1,4,-1
 200 331 l 1,5,-1
 469 331 l 1,6,-1
 469 600 l 1,7,-1
 530 600 l 1,8,-1
 530 331 l 1,9,-1
 799 331 l 1,10,-1
 799 269 l 1,11,-1
 530 269 l 1,0,-1
EndSplineSet
EndChar

StartChar: comma
Encoding: 44 44 15
Width: 317
Flags: W
LayerCount: 2
Fore
SplineSet
242 59 m 1,0,1
 242 28 242 28 233.5 -0.5 c 128,-1,2
 225 -29 225 -29 210.5 -54.5 c 128,-1,3
 196 -80 196 -80 176 -101 c 128,-1,4
 156 -122 156 -122 133.5 -137.5 c 128,-1,5
 111 -153 111 -153 86.5 -162.5 c 128,-1,6
 62 -172 62 -172 39 -173 c 1,7,-1
 39 -125 l 1,8,9
 58 -123 58 -123 79.5 -115 c 128,-1,10
 101 -107 101 -107 119 -91.5 c 128,-1,11
 137 -76 137 -76 148 -52 c 128,-1,12
 159 -28 159 -28 158 7 c 1,13,-1
 98 7 l 1,14,15
 89 14 89 14 83.5 22 c 128,-1,16
 78 30 78 30 74.5 38 c 128,-1,17
 71 46 71 46 70 54 c 128,-1,18
 69 62 69 62 69 69 c 0,19,20
 69 88 69 88 76 103 c 128,-1,21
 83 118 83 118 94.5 128.5 c 128,-1,22
 106 139 106 139 121 145 c 128,-1,23
 136 151 136 151 152 151 c 0,24,25
 197 151 197 151 221.5 125.5 c 128,-1,26
 246 100 246 100 242 59 c 1,0,1
EndSplineSet
EndChar

StartChar: hyphen
Encoding: 45 45 16
Width: 328
Flags: W
LayerCount: 2
Fore
SplineSet
33 187 m 1,0,-1
 33 292 l 1,1,-1
 294 292 l 1,2,-1
 294 187 l 1,3,-1
 33 187 l 1,0,-1
EndSplineSet
EndChar

StartChar: period
Encoding: 46 46 17
Width: 317
Flags: W
LayerCount: 2
Fore
SplineSet
229 70 m 256,0,1
 229 53 229 53 223 38 c 128,-1,2
 217 23 217 23 206 12 c 128,-1,3
 195 1 195 1 180 -5.5 c 128,-1,4
 165 -12 165 -12 148 -12 c 256,5,6
 131 -12 131 -12 116 -5.5 c 128,-1,7
 101 1 101 1 90 12 c 128,-1,8
 79 23 79 23 72.5 38 c 128,-1,9
 66 53 66 53 66 70 c 256,10,11
 66 87 66 87 72.5 102 c 128,-1,12
 79 117 79 117 90 128 c 128,-1,13
 101 139 101 139 116 145.5 c 128,-1,14
 131 152 131 152 148 152 c 256,15,16
 165 152 165 152 180 145.5 c 128,-1,17
 195 139 195 139 206 128 c 128,-1,18
 217 117 217 117 223 102 c 128,-1,19
 229 87 229 87 229 70 c 256,0,1
EndSplineSet
EndChar

StartChar: slash
Encoding: 47 47 18
Width: 500
Flags: W
LayerCount: 2
Fore
SplineSet
78 -92 m 1,0,-1
 0 -92 l 1,1,-1
 421 671 l 1,2,-1
 500 671 l 1,3,-1
 78 -92 l 1,0,-1
EndSplineSet
EndChar

StartChar: zero
Encoding: 48 48 19
Width: 586
Flags: W
LayerCount: 2
Fore
SplineSet
405 334 m 0,0,1
 405 355 405 355 404.5 385 c 128,-1,2
 404 415 404 415 401 447 c 128,-1,3
 398 479 398 479 391 510 c 128,-1,4
 384 541 384 541 371.5 566 c 128,-1,5
 359 591 359 591 340.5 606 c 128,-1,6
 322 621 322 621 296 621 c 256,7,8
 270 621 270 621 251.5 606 c 128,-1,9
 233 591 233 591 221 566 c 128,-1,10
 209 541 209 541 202 510 c 128,-1,11
 195 479 195 479 192 447 c 128,-1,12
 189 415 189 415 188.5 385.5 c 128,-1,13
 188 356 188 356 188 335 c 256,14,15
 188 314 188 314 188.5 284.5 c 128,-1,16
 189 255 189 255 192 223.5 c 128,-1,17
 195 192 195 192 202 161 c 128,-1,18
 209 130 209 130 221 105.5 c 128,-1,19
 233 81 233 81 251.5 66 c 128,-1,20
 270 51 270 51 296 51 c 256,21,22
 322 51 322 51 340.5 66 c 128,-1,23
 359 81 359 81 371.5 105.5 c 128,-1,24
 384 130 384 130 391 161 c 128,-1,25
 398 192 398 192 401 223.5 c 128,-1,26
 404 255 404 255 404.5 285 c 128,-1,27
 405 315 405 315 405 334 c 0,0,1
550 336 m 256,28,29
 550 266 550 266 535.5 203 c 128,-1,30
 521 140 521 140 490 93 c 128,-1,31
 459 46 459 46 410.5 18.5 c 128,-1,32
 362 -9 362 -9 294 -9 c 0,33,34
 227 -9 227 -9 178.5 18.5 c 128,-1,35
 130 46 130 46 99 93 c 128,-1,36
 68 140 68 140 53.5 203 c 128,-1,37
 39 266 39 266 39 336 c 256,38,39
 39 406 39 406 53.5 468.5 c 128,-1,40
 68 531 68 531 99 578.5 c 128,-1,41
 130 626 130 626 178.5 654 c 128,-1,42
 227 682 227 682 294 682 c 0,43,44
 362 682 362 682 410.5 654 c 128,-1,45
 459 626 459 626 490 578.5 c 128,-1,46
 521 531 521 531 535.5 468.5 c 128,-1,47
 550 406 550 406 550 336 c 256,28,29
EndSplineSet
EndChar

StartChar: one
Encoding: 49 49 20
Width: 586
Flags: W
LayerCount: 2
Fore
SplineSet
115 0 m 1,0,-1
 115 51 l 1,1,-1
 200 54 l 2,2,3
 208 54 208 54 214.5 59.5 c 128,-1,4
 221 65 221 65 221 74 c 2,5,-1
 221 574 l 1,6,-1
 73 554 l 1,7,-1
 73 606 l 1,8,-1
 288 684 l 1,9,-1
 361 684 l 1,10,-1
 361 75 l 2,11,12
 361 66 361 66 367.5 60.5 c 128,-1,13
 374 55 374 55 383 55 c 2,14,-1
 461 52 l 1,15,-1
 461 1 l 1,16,-1
 115 0 l 1,0,-1
EndSplineSet
EndChar

StartChar: two
Encoding: 50 50 21
Width: 586
Flags: W
LayerCount: 2
Fore
SplineSet
42 0 m 1,0,-1
 42 83 l 1,1,2
 62 99 62 99 94 122.5 c 128,-1,3
 126 146 126 146 162.5 175.5 c 128,-1,4
 199 205 199 205 236 239.5 c 128,-1,5
 273 274 273 274 303 312.5 c 128,-1,6
 333 351 333 351 352 392.5 c 128,-1,7
 371 434 371 434 371 477 c 0,8,9
 371 506 371 506 362.5 531.5 c 128,-1,10
 354 557 354 557 338 575.5 c 128,-1,11
 322 594 322 594 299.5 604.5 c 128,-1,12
 277 615 277 615 249 615 c 0,13,14
 239 615 239 615 232 614 c 128,-1,15
 225 613 225 613 219 611.5 c 128,-1,16
 213 610 213 610 207 608 c 128,-1,17
 201 606 201 606 193 604 c 1,18,-1
 193 470 l 1,19,20
 183 465 183 465 172 461 c 0,21,22
 163 458 163 458 151.5 455.5 c 128,-1,23
 140 453 140 453 128 453 c 0,24,25
 92 453 92 453 73 473 c 128,-1,26
 54 493 54 493 54 526 c 0,27,28
 54 557 54 557 65.5 581 c 128,-1,29
 77 605 77 605 97 622.5 c 128,-1,30
 117 640 117 640 142.5 651.5 c 128,-1,31
 168 663 168 663 195 670 c 128,-1,32
 222 677 222 677 248.5 680 c 128,-1,33
 275 683 275 683 296 683 c 0,34,35
 343 683 343 683 384.5 669 c 128,-1,36
 426 655 426 655 456.5 629.5 c 128,-1,37
 487 604 487 604 504.5 567.5 c 128,-1,38
 522 531 522 531 522 487 c 0,39,40
 522 434 522 434 496 386.5 c 128,-1,41
 470 339 470 339 424 293.5 c 128,-1,42
 378 248 378 248 315 203 c 128,-1,43
 252 158 252 158 178 110 c 1,44,-1
 462 110 l 1,45,-1
 481 197 l 1,46,-1
 544 197 l 1,47,-1
 544 2 l 1,48,-1
 42 0 l 1,0,-1
EndSplineSet
EndChar

StartChar: three
Encoding: 51 51 22
Width: 586
Flags: W
LayerCount: 2
Fore
SplineSet
542 191 m 1,0,1
 542 159 542 159 531.5 131.5 c 128,-1,2
 521 104 521 104 501.5 81 c 128,-1,3
 482 58 482 58 455 40 c 128,-1,4
 428 22 428 22 396.5 10 c 128,-1,5
 365 -2 365 -2 329.5 -8 c 128,-1,6
 294 -14 294 -14 257 -14 c 0,7,8
 209 -14 209 -14 170 -3 c 128,-1,9
 131 8 131 8 103.5 26.5 c 128,-1,10
 76 45 76 45 61.5 68.5 c 128,-1,11
 47 92 47 92 47 116 c 0,12,13
 47 136 47 136 54 149 c 128,-1,14
 61 162 61 162 71.5 169.5 c 128,-1,15
 82 177 82 177 95 179.5 c 128,-1,16
 108 182 108 182 119 182 c 0,17,18
 132 182 132 182 142.5 179.5 c 128,-1,19
 153 177 153 177 161 174 c 1,20,-1
 192 62 l 1,21,22
 208 58 208 58 226 52 c 128,-1,23
 244 46 244 46 264 46 c 0,24,25
 289 46 289 46 312.5 56.5 c 128,-1,26
 336 67 336 67 354 85.5 c 128,-1,27
 372 104 372 104 382.5 129.5 c 128,-1,28
 393 155 393 155 393 184 c 0,29,30
 393 207 393 207 384.5 229 c 128,-1,31
 376 251 376 251 358.5 267.5 c 128,-1,32
 341 284 341 284 315 294 c 128,-1,33
 289 304 289 304 254 304 c 0,34,35
 243 304 243 304 231 303.5 c 128,-1,36
 219 303 219 303 209 303 c 0,37,38
 197 302 197 302 186 302 c 1,39,-1
 186 376 l 1,40,41
 194 376 194 376 200 376 c 2,42,-1
 213 376 l 2,43,44
 241 376 241 376 269 381.5 c 128,-1,45
 297 387 297 387 319.5 401 c 128,-1,46
 342 415 342 415 356 438.5 c 128,-1,47
 370 462 370 462 370 498 c 0,48,49
 370 521 370 521 360.5 542.5 c 128,-1,50
 351 564 351 564 334 580.5 c 128,-1,51
 317 597 317 597 294 606.5 c 128,-1,52
 271 616 271 616 244 616 c 0,53,54
 237 616 237 616 228 614.5 c 128,-1,55
 219 613 219 613 211 611 c 0,56,57
 202 609 202 609 192 606 c 1,58,-1
 192 483 l 1,59,60
 179 475 179 475 165 473 c 128,-1,61
 151 471 151 471 140 471 c 0,62,63
 125 471 125 471 111 475 c 128,-1,64
 97 479 97 479 86.5 487.5 c 128,-1,65
 76 496 76 496 70 509 c 128,-1,66
 64 522 64 522 64 540 c 0,67,68
 64 571 64 571 82.5 597 c 128,-1,69
 101 623 101 623 132.5 642 c 128,-1,70
 164 661 164 661 205.5 671.5 c 128,-1,71
 247 682 247 682 294 682 c 0,72,73
 335 682 335 682 375.5 671.5 c 128,-1,74
 416 661 416 661 448 639.5 c 128,-1,75
 480 618 480 618 500 585.5 c 128,-1,76
 520 553 520 553 520 509 c 0,77,78
 520 478 520 478 509.5 454.5 c 128,-1,79
 499 431 499 431 482.5 414 c 128,-1,80
 466 397 466 397 446 386 c 128,-1,81
 426 375 426 375 407.5 368 c 128,-1,82
 389 361 389 361 374 358 c 0,83,84
 361 356 361 356 355 356 c 1,85,86
 361 356 361 356 376 356 c 0,87,88
 393 355 393 355 414.5 349.5 c 128,-1,89
 436 344 436 344 459 333.5 c 128,-1,90
 482 323 482 323 501.5 305 c 128,-1,91
 521 287 521 287 533 261 c 128,-1,92
 545 235 545 235 542 191 c 1,0,1
EndSplineSet
EndChar

StartChar: four
Encoding: 52 52 23
Width: 586
Flags: W
LayerCount: 2
Fore
SplineSet
342 532 m 1,0,-1
 133 269 l 1,1,-1
 342 269 l 1,2,-1
 342 532 l 1,0,-1
469 188 m 1,3,-1
 469 -16 l 1,4,-1
 342 -16 l 1,5,-1
 342 187 l 1,6,-1
 36 187 l 1,7,-1
 36 272 l 1,8,-1
 361 686 l 1,9,-1
 469 686 l 1,10,-1
 469 269 l 1,11,-1
 550 269 l 1,12,-1
 550 188 l 1,13,-1
 469 188 l 1,3,-1
EndSplineSet
EndChar

StartChar: five
Encoding: 53 53 24
Width: 586
Flags: W
LayerCount: 2
Fore
SplineSet
546 227 m 1,0,1
 546 171 546 171 521 126.5 c 128,-1,2
 496 82 496 82 454.5 51 c 128,-1,3
 413 20 413 20 359.5 3.5 c 128,-1,4
 306 -13 306 -13 249 -13 c 0,5,6
 211 -13 211 -13 174 -5 c 128,-1,7
 137 3 137 3 108 19.5 c 128,-1,8
 79 36 79 36 61 60.5 c 128,-1,9
 43 85 43 85 43 117 c 0,10,11
 43 128 43 128 47.5 139 c 128,-1,12
 52 150 52 150 61 159.5 c 128,-1,13
 70 169 70 169 83.5 174.5 c 128,-1,14
 97 180 97 180 115 180 c 0,15,16
 124 180 124 180 134.5 178 c 128,-1,17
 145 176 145 176 158 172 c 1,18,-1
 189 53 l 1,19,20
 201 52 201 52 211 51 c 0,21,22
 219 50 219 50 227.5 49 c 128,-1,23
 236 48 236 48 239 48 c 0,24,25
 282 48 282 48 312.5 64.5 c 128,-1,26
 343 81 343 81 362 104.5 c 128,-1,27
 381 128 381 128 389.5 153 c 128,-1,28
 398 178 398 178 398 195 c 0,29,30
 398 228 398 228 384.5 254.5 c 128,-1,31
 371 281 371 281 347 299.5 c 128,-1,32
 323 318 323 318 291 328 c 128,-1,33
 259 338 259 338 223 338 c 0,34,35
 198 338 198 338 172.5 335.5 c 128,-1,36
 147 333 147 333 126 331 c 0,37,38
 102 328 102 328 80 324 c 1,39,-1
 80 674 l 1,40,-1
 509 674 l 1,41,-1
 509 564 l 1,42,-1
 165 564 l 1,43,-1
 165 403 l 1,44,45
 185 409 185 409 207 414 c 0,46,47
 226 418 226 418 250 421.5 c 128,-1,48
 274 425 274 425 299 425 c 0,49,50
 352 425 352 425 396.5 411 c 128,-1,51
 441 397 441 397 473.5 371.5 c 128,-1,52
 506 346 506 346 524 310.5 c 128,-1,53
 542 275 542 275 546 227 c 1,0,1
EndSplineSet
EndChar

StartChar: six
Encoding: 54 54 25
Width: 586
Flags: W
LayerCount: 2
Fore
SplineSet
409 210 m 1,0,1
 409 242 409 242 401.5 269 c 128,-1,2
 394 296 394 296 378 315.5 c 128,-1,3
 362 335 362 335 337.5 345.5 c 128,-1,4
 313 356 313 356 280 356 c 0,5,6
 259 356 259 356 241.5 353 c 128,-1,7
 224 350 224 350 212 347 c 0,8,9
 197 343 197 343 186 338 c 1,10,11
 185 321 185 321 185 306 c 128,-1,12
 185 291 185 291 185 280 c 0,13,14
 185 267 185 267 185 256 c 0,15,16
 185 222 185 222 191.5 186 c 128,-1,17
 198 150 198 150 213 120.5 c 128,-1,18
 228 91 228 91 251 72 c 128,-1,19
 274 53 274 53 307 53 c 0,20,21
 333 53 333 53 352.5 66 c 128,-1,22
 372 79 372 79 385 101 c 128,-1,23
 398 123 398 123 404.5 152 c 128,-1,24
 411 181 411 181 409 210 c 1,0,1
553 243 m 1,25,26
 553 185 553 185 533.5 137.5 c 128,-1,27
 514 90 514 90 480 56.5 c 128,-1,28
 446 23 446 23 401 5 c 128,-1,29
 356 -13 356 -13 306 -13 c 0,30,31
 244 -13 244 -13 194.5 7 c 128,-1,32
 145 27 145 27 111 66 c 128,-1,33
 77 105 77 105 59 162 c 128,-1,34
 41 219 41 219 41 293 c 0,35,36
 41 391 41 391 72 465.5 c 128,-1,37
 103 540 103 540 159.5 589.5 c 128,-1,38
 216 639 216 639 295 663.5 c 128,-1,39
 374 688 374 688 470 688 c 1,40,-1
 470 610 l 1,41,-1
 427 614 l 1,42,43
 373 611 373 611 332 595 c 128,-1,44
 291 579 291 579 262.5 551 c 128,-1,45
 234 523 234 523 216.5 484 c 128,-1,46
 199 445 199 445 192 397 c 1,47,48
 212 410 212 410 236 421 c 0,49,50
 256 430 256 430 284 437.5 c 128,-1,51
 312 445 312 445 344 445 c 0,52,53
 396 445 396 445 435 427 c 128,-1,54
 474 409 474 409 500 380 c 128,-1,55
 526 351 526 351 539 315 c 128,-1,56
 552 279 552 279 553 243 c 1,25,26
EndSplineSet
EndChar

StartChar: seven
Encoding: 55 55 26
Width: 586
Flags: W
LayerCount: 2
Fore
SplineSet
212 14 m 1,0,-1
 212 -16 l 1,1,-1
 85 -16 l 1,2,-1
 411 550 l 1,3,-1
 122 550 l 1,4,-1
 107 458 l 1,5,-1
 38 458 l 1,6,-1
 38 670 l 1,7,-1
 550 670 l 1,8,-1
 550 600 l 1,9,-1
 212 14 l 1,0,-1
EndSplineSet
EndChar

StartChar: eight
Encoding: 56 56 27
Width: 586
Flags: W
LayerCount: 2
Fore
SplineSet
415 148 m 256,0,1
 415 172 415 172 405 191.5 c 128,-1,2
 395 211 395 211 379 226 c 128,-1,3
 363 241 363 241 342.5 253 c 128,-1,4
 322 265 322 265 301 274.5 c 128,-1,5
 280 284 280 284 260 292 c 128,-1,6
 240 300 240 300 225 307 c 1,7,8
 221 302 221 302 211.5 292 c 128,-1,9
 202 282 202 282 192.5 267.5 c 128,-1,10
 183 253 183 253 176 233.5 c 128,-1,11
 169 214 169 214 169 190 c 0,12,13
 169 161 169 161 179 135 c 128,-1,14
 189 109 189 109 206.5 90 c 128,-1,15
 224 71 224 71 247.5 60 c 128,-1,16
 271 49 271 49 297 49 c 0,17,18
 320 49 320 49 341 55.5 c 128,-1,19
 362 62 362 62 378.5 74.5 c 128,-1,20
 395 87 395 87 405 105.5 c 128,-1,21
 415 124 415 124 415 148 c 256,0,1
402 502 m 0,22,23
 402 525 402 525 394.5 546.5 c 128,-1,24
 387 568 387 568 373.5 584.5 c 128,-1,25
 360 601 360 601 340.5 611 c 128,-1,26
 321 621 321 621 298 621 c 0,27,28
 278 621 278 621 261 613.5 c 128,-1,29
 244 606 244 606 231.5 593.5 c 128,-1,30
 219 581 219 581 211.5 563.5 c 128,-1,31
 204 546 204 546 204 526 c 0,32,33
 204 497 204 497 217 475.5 c 128,-1,34
 230 454 230 454 251.5 437 c 128,-1,35
 273 420 273 420 300 407 c 128,-1,36
 327 394 327 394 355 382 c 1,37,38
 362 389 362 389 370.5 400.5 c 128,-1,39
 379 412 379 412 386 427 c 128,-1,40
 393 442 393 442 397.5 461 c 128,-1,41
 402 480 402 480 402 502 c 0,22,23
550 184 m 1,42,43
 550 133 550 133 528 95.5 c 128,-1,44
 506 58 506 58 469.5 33.5 c 128,-1,45
 433 9 433 9 385.5 -3 c 128,-1,46
 338 -15 338 -15 288 -15 c 0,47,48
 234 -15 234 -15 188 -0.5 c 128,-1,49
 142 14 142 14 109 40 c 128,-1,50
 76 66 76 66 57.5 102 c 128,-1,51
 39 138 39 138 39 180 c 0,52,53
 39 220 39 220 53.5 246.5 c 128,-1,54
 68 273 68 273 89 290 c 128,-1,55
 110 307 110 307 134 316.5 c 128,-1,56
 158 326 158 326 176 331 c 1,57,58
 161 336 161 336 142 348 c 128,-1,59
 123 360 123 360 106 378.5 c 128,-1,60
 89 397 89 397 77.5 422 c 128,-1,61
 66 447 66 447 66 478 c 0,62,63
 66 534 66 534 87.5 572.5 c 128,-1,64
 109 611 109 611 144 634.5 c 128,-1,65
 179 658 179 658 222.5 668 c 128,-1,66
 266 678 266 678 309 678 c 0,67,68
 348 678 348 678 386.5 667.5 c 128,-1,69
 425 657 425 657 455.5 635.5 c 128,-1,70
 486 614 486 614 505 581.5 c 128,-1,71
 524 549 524 549 524 505 c 0,72,73
 524 470 524 470 512 445 c 128,-1,74
 500 420 500 420 481.5 402.5 c 128,-1,75
 463 385 463 385 441.5 373.5 c 128,-1,76
 420 362 420 362 401 354 c 1,77,78
 407 352 407 352 420.5 347.5 c 128,-1,79
 434 343 434 343 450.5 334.5 c 128,-1,80
 467 326 467 326 484 313.5 c 128,-1,81
 501 301 501 301 515 283 c 128,-1,82
 529 265 529 265 538 240.5 c 128,-1,83
 547 216 547 216 550 184 c 1,42,43
EndSplineSet
EndChar

StartChar: nine
Encoding: 57 57 28
Width: 586
Flags: W
LayerCount: 2
Fore
SplineSet
408 416 m 1,0,1
 408 451 408 451 401 487.5 c 128,-1,2
 394 524 394 524 379 553.5 c 128,-1,3
 364 583 364 583 341 601.5 c 128,-1,4
 318 620 318 620 286 620 c 0,5,6
 260 620 260 620 240.5 607 c 128,-1,7
 221 594 221 594 208.5 571.5 c 128,-1,8
 196 549 196 549 189.5 519.5 c 128,-1,9
 183 490 183 490 183 459 c 0,10,11
 183 426 183 426 190.5 399 c 128,-1,12
 198 372 198 372 214 352.5 c 128,-1,13
 230 333 230 333 254.5 322.5 c 128,-1,14
 279 312 279 312 312 312 c 0,15,16
 332 312 332 312 350 315 c 128,-1,17
 368 318 368 318 380 321 c 0,18,19
 395 325 395 325 407 330 c 1,20,21
 407 346 407 346 407 361 c 128,-1,22
 407 376 407 376 407 387 c 0,23,24
 407 400 407 400 408 416 c 1,0,1
550 375 m 0,25,26
 550 277 550 277 519 203 c 128,-1,27
 488 129 488 129 431.5 79.5 c 128,-1,28
 375 30 375 30 296 5.5 c 128,-1,29
 217 -19 217 -19 121 -19 c 1,30,-1
 121 59 l 1,31,-1
 164 55 l 1,32,33
 218 58 218 58 258.5 74.5 c 128,-1,34
 299 91 299 91 327.5 118.5 c 128,-1,35
 356 146 356 146 373 184.5 c 128,-1,36
 390 223 390 223 397 271 c 1,37,38
 377 257 377 257 353 247 c 0,39,40
 333 238 333 238 305.5 230.5 c 128,-1,41
 278 223 278 223 246 223 c 0,42,43
 194 223 194 223 154.5 241 c 128,-1,44
 115 259 115 259 89 288 c 128,-1,45
 63 317 63 317 50.5 353 c 128,-1,46
 38 389 38 389 38 424 c 0,47,48
 38 482 38 482 57.5 529.5 c 128,-1,49
 77 577 77 577 111 610.5 c 128,-1,50
 145 644 145 644 190 662.5 c 128,-1,51
 235 681 235 681 285 681 c 0,52,53
 347 681 347 681 396.5 661 c 128,-1,54
 446 641 446 641 480 602 c 128,-1,55
 514 563 514 563 532 506 c 128,-1,56
 550 449 550 449 550 375 c 0,25,26
EndSplineSet
EndChar

StartChar: colon
Encoding: 58 58 29
Width: 317
Flags: W
LayerCount: 2
Fore
SplineSet
229 416 m 256,0,1
 229 399 229 399 223 384 c 128,-1,2
 217 369 217 369 206 358 c 128,-1,3
 195 347 195 347 180 341 c 128,-1,4
 165 335 165 335 148 335 c 256,5,6
 131 335 131 335 116 341 c 128,-1,7
 101 347 101 347 90 358 c 128,-1,8
 79 369 79 369 72.5 384 c 128,-1,9
 66 399 66 399 66 416 c 256,10,11
 66 433 66 433 72.5 448 c 128,-1,12
 79 463 79 463 90 474 c 128,-1,13
 101 485 101 485 116 491.5 c 128,-1,14
 131 498 131 498 148 498 c 256,15,16
 165 498 165 498 180 491.5 c 128,-1,17
 195 485 195 485 206 474 c 128,-1,18
 217 463 217 463 223 448 c 128,-1,19
 229 433 229 433 229 416 c 256,0,1
229 71 m 256,20,21
 229 54 229 54 223 39 c 128,-1,22
 217 24 217 24 206 13 c 128,-1,23
 195 2 195 2 180 -4.5 c 128,-1,24
 165 -11 165 -11 148 -11 c 256,25,26
 131 -11 131 -11 116 -4.5 c 128,-1,27
 101 2 101 2 90 13 c 128,-1,28
 79 24 79 24 72.5 39 c 128,-1,29
 66 54 66 54 66 71 c 256,30,31
 66 88 66 88 72.5 103 c 128,-1,32
 79 118 79 118 90 129 c 128,-1,33
 101 140 101 140 116 146.5 c 128,-1,34
 131 153 131 153 148 153 c 256,35,36
 165 153 165 153 180 146.5 c 128,-1,37
 195 140 195 140 206 129 c 128,-1,38
 217 118 217 118 223 103 c 128,-1,39
 229 88 229 88 229 71 c 256,20,21
EndSplineSet
EndChar

StartChar: semicolon
Encoding: 59 59 30
Width: 317
Flags: W
LayerCount: 2
Fore
SplineSet
229 416 m 256,0,1
 229 399 229 399 223 384 c 128,-1,2
 217 369 217 369 206 358 c 128,-1,3
 195 347 195 347 180 341 c 128,-1,4
 165 335 165 335 148 335 c 256,5,6
 131 335 131 335 116 341 c 128,-1,7
 101 347 101 347 90 358 c 128,-1,8
 79 369 79 369 72.5 384 c 128,-1,9
 66 399 66 399 66 416 c 256,10,11
 66 433 66 433 72.5 448 c 128,-1,12
 79 463 79 463 90 474 c 128,-1,13
 101 485 101 485 116 491.5 c 128,-1,14
 131 498 131 498 148 498 c 256,15,16
 165 498 165 498 180 491.5 c 128,-1,17
 195 485 195 485 206 474 c 128,-1,18
 217 463 217 463 223 448 c 128,-1,19
 229 433 229 433 229 416 c 256,0,1
241 59 m 1,20,21
 241 28 241 28 232.5 -0.5 c 128,-1,22
 224 -29 224 -29 209.5 -54.5 c 128,-1,23
 195 -80 195 -80 175 -101 c 128,-1,24
 155 -122 155 -122 132.5 -137.5 c 128,-1,25
 110 -153 110 -153 85.5 -162.5 c 128,-1,26
 61 -172 61 -172 38 -173 c 1,27,-1
 38 -125 l 1,28,29
 57 -123 57 -123 78.5 -115 c 128,-1,30
 100 -107 100 -107 118 -91.5 c 128,-1,31
 136 -76 136 -76 147 -52 c 128,-1,32
 158 -28 158 -28 157 7 c 1,33,-1
 97 7 l 1,34,35
 88 14 88 14 82.5 22 c 128,-1,36
 77 30 77 30 73.5 38 c 128,-1,37
 70 46 70 46 69 54 c 128,-1,38
 68 62 68 62 68 69 c 0,39,40
 68 88 68 88 75 103 c 128,-1,41
 82 118 82 118 93.5 128.5 c 128,-1,42
 105 139 105 139 120 145 c 128,-1,43
 135 151 135 151 151 151 c 0,44,45
 196 151 196 151 220.5 125.5 c 128,-1,46
 245 100 245 100 241 59 c 1,20,21
EndSplineSet
EndChar

StartChar: less
Encoding: 60 60 31
Width: 1000
Flags: W
LayerCount: 2
Fore
SplineSet
200 269 m 1,0,-1
 200 331 l 1,1,-1
 799 560 l 1,2,-1
 799 498 l 1,3,-1
 264 299 l 1,4,-1
 799 101 l 1,5,-1
 799 39 l 1,6,-1
 200 269 l 1,0,-1
EndSplineSet
EndChar

StartChar: equal
Encoding: 61 61 32
Width: 1000
Flags: W
LayerCount: 2
Fore
SplineSet
200 178 m 1,0,-1
 200 240 l 1,1,-1
 799 240 l 1,2,-1
 799 178 l 1,3,-1
 200 178 l 1,0,-1
200 359 m 1,4,-1
 200 421 l 1,5,-1
 799 421 l 1,6,-1
 799 359 l 1,7,-1
 200 359 l 1,4,-1
EndSplineSet
EndChar

StartChar: greater
Encoding: 62 62 33
Width: 1000
Flags: W
LayerCount: 2
Fore
SplineSet
200 39 m 1,0,-1
 200 101 l 1,1,-1
 735 299 l 1,2,-1
 200 498 l 1,3,-1
 200 560 l 1,4,-1
 799 331 l 1,5,-1
 799 269 l 1,6,-1
 200 39 l 1,0,-1
EndSplineSet
EndChar

StartChar: question
Encoding: 63 63 34
Width: 521
Flags: W
LayerCount: 2
Fore
SplineSet
289 64 m 0,0,1
 289 48 289 48 282.5 34 c 128,-1,2
 276 20 276 20 265 10 c 128,-1,3
 254 0 254 0 239.5 -5.5 c 128,-1,4
 225 -11 225 -11 209 -11 c 256,5,6
 193 -11 193 -11 179.5 -4.5 c 128,-1,7
 166 2 166 2 156 13 c 128,-1,8
 146 24 146 24 140.5 38.5 c 128,-1,9
 135 53 135 53 135 69 c 256,10,11
 135 85 135 85 141 99 c 128,-1,12
 147 113 147 113 157 123.5 c 128,-1,13
 167 134 167 134 181 140 c 128,-1,14
 195 146 195 146 211 146 c 0,15,16
 229 146 229 146 243.5 139.5 c 128,-1,17
 258 133 258 133 268.5 122 c 128,-1,18
 279 111 279 111 284.5 96 c 128,-1,19
 290 81 290 81 289 64 c 0,0,1
458 496 m 1,20,21
 458 465 458 465 449 439 c 128,-1,22
 440 413 440 413 425 392 c 128,-1,23
 410 371 410 371 391 355 c 128,-1,24
 372 339 372 339 352 327 c 0,25,26
 305 299 305 299 245 285 c 1,27,-1
 245 201 l 1,28,-1
 177 201 l 1,29,-1
 177 333 l 1,30,31
 217 343 217 343 248 364 c 0,32,33
 261 373 261 373 273.5 385.5 c 128,-1,34
 286 398 286 398 296 414.5 c 128,-1,35
 306 431 306 431 312 451.5 c 128,-1,36
 318 472 318 472 318 497 c 0,37,38
 318 525 318 525 310 548 c 128,-1,39
 302 571 302 571 286 587.5 c 128,-1,40
 270 604 270 604 245.5 613 c 128,-1,41
 221 622 221 622 189 622 c 1,42,-1
 145 502 l 1,43,44
 145 502 145 502 144 502 c 256,45,46
 143 502 143 502 141 502 c 128,-1,47
 139 502 139 502 136 502 c 0,48,49
 127 502 127 502 112.5 503 c 128,-1,50
 98 504 98 504 84.5 510 c 128,-1,51
 71 516 71 516 61.5 528.5 c 128,-1,52
 52 541 52 541 52 564 c 0,53,54
 52 596 52 596 69.5 618.5 c 128,-1,55
 87 641 87 641 114 655 c 128,-1,56
 141 669 141 669 174 675 c 128,-1,57
 207 681 207 681 237 681 c 0,58,59
 285 681 285 681 326.5 668 c 128,-1,60
 368 655 368 655 398.5 630.5 c 128,-1,61
 429 606 429 606 446 571 c 128,-1,62
 463 536 463 536 458 496 c 1,20,21
EndSplineSet
EndChar

StartChar: at
Encoding: 64 64 35
Width: 936
Flags: W
LayerCount: 2
Fore
SplineSet
877 368 m 1,0,1
 877 319 877 319 866.5 276.5 c 128,-1,2
 856 234 856 234 837.5 199 c 128,-1,3
 819 164 819 164 794 136.5 c 128,-1,4
 769 109 769 109 740.5 90.5 c 128,-1,5
 712 72 712 72 681.5 62.5 c 128,-1,6
 651 53 651 53 622 53 c 0,7,8
 600 53 600 53 585 58.5 c 128,-1,9
 570 64 570 64 560 73.5 c 128,-1,10
 550 83 550 83 545 95.5 c 128,-1,11
 540 108 540 108 539 122 c 1,12,13
 524 109 524 109 508 97 c 128,-1,14
 492 85 492 85 475 75.5 c 128,-1,15
 458 66 458 66 440 60.5 c 128,-1,16
 422 55 422 55 403 55 c 0,17,18
 369 55 369 55 343.5 67 c 128,-1,19
 318 79 318 79 300.5 101 c 128,-1,20
 283 123 283 123 274 153 c 128,-1,21
 265 183 265 183 265 219 c 0,22,23
 265 275 265 275 285.5 324.5 c 128,-1,24
 306 374 306 374 341.5 411 c 128,-1,25
 377 448 377 448 425 469.5 c 128,-1,26
 473 491 473 491 527 491 c 0,27,28
 538 491 538 491 549.5 488.5 c 128,-1,29
 561 486 561 486 572.5 481.5 c 128,-1,30
 584 477 584 477 594.5 472 c 128,-1,31
 605 467 605 467 614 463 c 1,32,-1
 627 487 l 1,33,-1
 710 487 l 1,34,-1
 706 469 l 2,35,36
 703 455 703 455 698 434 c 128,-1,37
 693 413 693 413 687 387 c 128,-1,38
 681 361 681 361 675 335 c 0,39,40
 661 273 661 273 643 195 c 0,41,42
 640 179 640 179 638.5 165.5 c 128,-1,43
 637 152 637 152 638.5 142.5 c 128,-1,44
 640 133 640 133 646.5 128 c 128,-1,45
 653 123 653 123 666 123 c 0,46,47
 675 123 675 123 689 130.5 c 128,-1,48
 703 138 703 138 718 152.5 c 128,-1,49
 733 167 733 167 748 188.5 c 128,-1,50
 763 210 763 210 774.5 238 c 128,-1,51
 786 266 786 266 793.5 300 c 128,-1,52
 801 334 801 334 801 374 c 0,53,54
 801 421 801 421 790 459 c 128,-1,55
 779 497 779 497 760 526.5 c 128,-1,56
 741 556 741 556 715 577.5 c 128,-1,57
 689 599 689 599 660 613 c 128,-1,58
 631 627 631 627 599.5 633.5 c 128,-1,59
 568 640 568 640 538 640 c 0,60,61
 486 640 486 640 438 627.5 c 128,-1,62
 390 615 390 615 348.5 591.5 c 128,-1,63
 307 568 307 568 273 534 c 128,-1,64
 239 500 239 500 215 457.5 c 128,-1,65
 191 415 191 415 178 365 c 128,-1,66
 165 315 165 315 165 259 c 0,67,68
 165 182 165 182 188.5 117.5 c 128,-1,69
 212 53 212 53 255.5 6 c 128,-1,70
 299 -41 299 -41 361 -67 c 128,-1,71
 423 -93 423 -93 499 -93 c 0,72,73
 538 -93 538 -93 573.5 -86.5 c 128,-1,74
 609 -80 609 -80 642 -69 c 128,-1,75
 675 -58 675 -58 706.5 -43 c 128,-1,76
 738 -28 738 -28 769 -11 c 1,77,-1
 789 -60 l 1,78,79
 756 -77 756 -77 720 -93 c 128,-1,80
 684 -109 684 -109 645 -121 c 128,-1,81
 606 -133 606 -133 563 -140.5 c 128,-1,82
 520 -148 520 -148 473 -148 c 0,83,84
 415 -148 415 -148 362 -136 c 128,-1,85
 309 -124 309 -124 263.5 -100.5 c 128,-1,86
 218 -77 218 -77 181 -43 c 128,-1,87
 144 -9 144 -9 118 34.5 c 128,-1,88
 92 78 92 78 78 130 c 128,-1,89
 64 182 64 182 64 241 c 0,90,91
 64 313 64 313 81.5 375 c 128,-1,92
 99 437 99 437 130 487 c 128,-1,93
 161 537 161 537 204 575 c 128,-1,94
 247 613 247 613 298.5 638.5 c 128,-1,95
 350 664 350 664 407.5 677 c 128,-1,96
 465 690 465 690 525 690 c 0,97,98
 606 690 606 690 671.5 669 c 128,-1,99
 737 648 737 648 783 607.5 c 128,-1,100
 829 567 829 567 854 508 c 128,-1,101
 879 449 879 449 877 368 c 1,0,1
571 394 m 2,102,103
 572 399 572 399 570 408 c 128,-1,104
 568 417 568 417 563 425 c 128,-1,105
 558 433 558 433 549 439 c 128,-1,106
 540 445 540 445 528 445 c 0,107,108
 498 445 498 445 471.5 429 c 128,-1,109
 445 413 445 413 425 384.5 c 128,-1,110
 405 356 405 356 393.5 316.5 c 128,-1,111
 382 277 382 277 382 231 c 0,112,113
 382 203 382 203 387.5 183.5 c 128,-1,114
 393 164 393 164 402 152 c 128,-1,115
 411 140 411 140 422 134.5 c 128,-1,116
 433 129 433 129 444 129 c 0,117,118
 460 129 460 129 472.5 135 c 128,-1,119
 485 141 485 141 495 150 c 128,-1,120
 505 159 505 159 513.5 169.5 c 128,-1,121
 522 180 522 180 529 188 c 1,122,-1
 571 394 l 2,102,103
EndSplineSet
EndChar

StartChar: A
Encoding: 65 65 36
Width: 686
Flags: W
LayerCount: 2
Fore
SplineSet
308 533 m 1,0,-1
 225 293 l 1,1,-1
 394 293 l 1,2,-1
 308 533 l 1,0,-1
404 1 m 1,3,-1
 404 51 l 1,4,-1
 463 58 l 2,5,6
 467 58 467 58 470 63 c 128,-1,7
 473 68 473 68 471 73 c 2,8,-1
 417 231 l 1,9,-1
 204 231 l 1,10,-1
 149 77 l 2,11,12
 147 70 147 70 152.5 64 c 128,-1,13
 158 58 158 58 163 58 c 2,14,-1
 219 51 l 1,15,-1
 219 1 l 1,16,-1
 4 1 l 1,17,-1
 4 51 l 1,18,-1
 60 59 l 1,19,-1
 284 686 l 1,20,-1
 397 686 l 1,21,-1
 619 77 l 2,22,23
 622 68 622 68 625.5 64.5 c 128,-1,24
 629 61 629 61 639 59 c 2,25,-1
 677 52 l 1,26,-1
 677 2 l 1,27,-1
 404 1 l 1,3,-1
EndSplineSet
EndChar

StartChar: B
Encoding: 66 66 37
Width: 639
Flags: W
LayerCount: 2
Fore
SplineSet
602 194 m 0,0,1
 602 148 602 148 592 116 c 128,-1,2
 582 84 582 84 565 62.5 c 128,-1,3
 548 41 548 41 525 29 c 128,-1,4
 502 17 502 17 476.5 11 c 128,-1,5
 451 5 451 5 424.5 4 c 128,-1,6
 398 3 398 3 374 3 c 2,7,-1
 31 3 l 1,8,-1
 31 53 l 1,9,-1
 85 58 l 2,10,11
 94 58 94 58 100 63.5 c 128,-1,12
 106 69 106 69 106 78 c 2,13,-1
 106 592 l 2,14,15
 106 601 106 601 100 606.5 c 128,-1,16
 94 612 94 612 85 612 c 2,17,-1
 31 616 l 1,18,-1
 31 666 l 1,19,-1
 353 666 l 2,20,21
 371 666 371 666 393.5 664.5 c 128,-1,22
 416 663 416 663 439.5 657.5 c 128,-1,23
 463 652 463 652 485 642 c 128,-1,24
 507 632 507 632 524.5 615 c 128,-1,25
 542 598 542 598 552.5 573 c 128,-1,26
 563 548 563 548 563 514 c 0,27,28
 563 484 563 484 555 461.5 c 128,-1,29
 547 439 547 439 534 422 c 128,-1,30
 521 405 521 405 505 393.5 c 128,-1,31
 489 382 489 382 473.5 374.5 c 128,-1,32
 458 367 458 367 444.5 363 c 128,-1,33
 431 359 431 359 424 358 c 1,34,35
 442 358 442 358 462.5 355.5 c 128,-1,36
 483 353 483 353 503 346 c 128,-1,37
 523 339 523 339 541 327.5 c 128,-1,38
 559 316 559 316 572.5 298.5 c 128,-1,39
 586 281 586 281 594 256.5 c 128,-1,40
 602 232 602 232 602 194 c 0,0,1
453 192 m 1,41,42
 453 256 453 256 416 287 c 128,-1,43
 379 318 379 318 298 318 c 2,44,-1
 280 318 l 2,45,46
 270 318 270 318 250 318 c 1,47,-1
 250 64 l 1,48,49
 261 64 261 64 270 64 c 0,50,51
 278 64 278 64 285.5 64 c 128,-1,52
 293 64 293 64 295 64 c 0,53,54
 333 64 333 64 362.5 70.5 c 128,-1,55
 392 77 392 77 412 92.5 c 128,-1,56
 432 108 432 108 442 132.5 c 128,-1,57
 452 157 452 157 453 192 c 1,41,42
416 505 m 1,58,59
 416 526 416 526 411.5 546.5 c 128,-1,60
 407 567 407 567 393.5 583 c 128,-1,61
 380 599 380 599 355 608.5 c 128,-1,62
 330 618 330 618 290 618 c 2,63,-1
 286 618 l 2,64,65
 285 618 285 618 281.5 618 c 128,-1,66
 278 618 278 618 271 618 c 128,-1,67
 264 618 264 618 251 618 c 1,68,-1
 251 381 l 1,69,70
 256 381 256 381 261 381 c 0,71,72
 265 381 265 381 268 381 c 2,73,-1
 273 381 l 2,74,75
 315 381 315 381 342.5 390.5 c 128,-1,76
 370 400 370 400 386 416.5 c 128,-1,77
 402 433 402 433 408 456 c 128,-1,78
 414 479 414 479 416 505 c 1,58,59
EndSplineSet
EndChar

StartChar: C
Encoding: 67 67 38
Width: 636
Flags: W
LayerCount: 2
Fore
SplineSet
600 23 m 1,0,1
 591 20 591 20 571.5 13.5 c 128,-1,2
 552 7 552 7 524.5 0.5 c 128,-1,3
 497 -6 497 -6 463 -10.5 c 128,-1,4
 429 -15 429 -15 391 -15 c 0,5,6
 340 -15 340 -15 294.5 -3.5 c 128,-1,7
 249 8 249 8 210 29.5 c 128,-1,8
 171 51 171 51 140 82 c 128,-1,9
 109 113 109 113 87.5 152 c 128,-1,10
 66 191 66 191 54.5 237 c 128,-1,11
 43 283 43 283 43 334 c 0,12,13
 43 412 43 412 70 476 c 128,-1,14
 97 540 97 540 144 586 c 128,-1,15
 191 632 191 632 255 657.5 c 128,-1,16
 319 683 319 683 393 683 c 0,17,18
 421 683 421 683 444 681 c 128,-1,19
 467 679 467 679 490.5 674 c 128,-1,20
 514 669 514 669 540.5 661.5 c 128,-1,21
 567 654 567 654 602 643 c 1,22,-1
 602 474 l 1,23,-1
 524 474 l 1,24,-1
 503 585 l 2,25,26
 503 587 503 587 499.5 592.5 c 128,-1,27
 496 598 496 598 491 600 c 0,28,29
 488 601 488 601 480 603.5 c 128,-1,30
 472 606 472 606 462 608 c 128,-1,31
 452 610 452 610 441.5 611.5 c 128,-1,32
 431 613 431 613 422 613 c 0,33,34
 371 613 371 613 330 593 c 128,-1,35
 289 573 289 573 260.5 536 c 128,-1,36
 232 499 232 499 217 447 c 128,-1,37
 202 395 202 395 202 331 c 0,38,39
 202 296 202 296 207 261.5 c 128,-1,40
 212 227 212 227 223 195.5 c 128,-1,41
 234 164 234 164 252 137 c 128,-1,42
 270 110 270 110 295 90 c 128,-1,43
 320 70 320 70 353 59 c 128,-1,44
 386 48 386 48 427 48 c 0,45,46
 445 48 445 48 460.5 52.5 c 128,-1,47
 476 57 476 57 484 60 c 0,48,49
 487 61 487 61 492.5 67.5 c 128,-1,50
 498 74 498 74 499 78 c 2,51,-1
 520 196 l 1,52,-1
 599 196 l 1,53,-1
 600 23 l 1,0,1
EndSplineSet
EndChar

StartChar: D
Encoding: 68 68 39
Width: 724
Flags: W
LayerCount: 2
Fore
SplineSet
525 332 m 1,0,1
 525 389 525 389 516.5 432 c 128,-1,2
 508 475 508 475 493 506 c 128,-1,3
 478 537 478 537 457.5 557.5 c 128,-1,4
 437 578 437 578 413.5 589.5 c 128,-1,5
 390 601 390 601 364.5 605.5 c 128,-1,6
 339 610 339 610 314 610 c 2,7,-1
 252 610 l 1,8,-1
 252 57 l 1,9,-1
 335 58 l 2,10,11
 356 58 356 58 378.5 63 c 128,-1,12
 401 68 401 68 422.5 80 c 128,-1,13
 444 92 444 92 463 112 c 128,-1,14
 482 132 482 132 496.5 162 c 128,-1,15
 511 192 511 192 519.5 232.5 c 128,-1,16
 528 273 528 273 525 332 c 1,0,1
689 336 m 0,17,18
 689 251 689 251 664.5 187 c 128,-1,19
 640 123 640 123 594.5 80.5 c 128,-1,20
 549 38 549 38 485 17 c 128,-1,21
 421 -4 421 -4 342 -4 c 2,22,-1
 30 -4 l 1,23,-1
 30 46 l 1,24,-1
 85 51 l 2,25,26
 93 51 93 51 100 56.5 c 128,-1,27
 107 62 107 62 107 71 c 2,28,-1
 107 585 l 2,29,30
 107 594 107 594 100 599.5 c 128,-1,31
 93 605 93 605 85 605 c 2,32,-1
 30 609 l 1,33,-1
 30 659 l 1,34,-1
 336 659 l 2,35,36
 421 659 421 659 487 635.5 c 128,-1,37
 553 612 553 612 598 569 c 128,-1,38
 643 526 643 526 666 466 c 128,-1,39
 689 406 689 406 689 336 c 0,17,18
EndSplineSet
EndChar

StartChar: E
Encoding: 69 69 40
Width: 598
Flags: W
LayerCount: 2
Fore
SplineSet
25 0 m 1,0,-1
 25 50 l 1,1,-1
 80 55 l 2,2,3
 88 55 88 55 95 60.5 c 128,-1,4
 102 66 102 66 102 75 c 2,5,-1
 102 589 l 2,6,7
 102 598 102 598 95 603.5 c 128,-1,8
 88 609 88 609 80 609 c 2,9,-1
 25 613 l 1,10,-1
 25 663 l 1,11,-1
 535 663 l 1,12,-1
 535 504 l 1,13,-1
 463 504 l 1,14,-1
 448 587 l 2,15,16
 447 594 447 594 442.5 599.5 c 128,-1,17
 438 605 438 605 432 605 c 2,18,-1
 246 605 l 1,19,-1
 246 371 l 1,20,-1
 364 371 l 2,21,22
 370 371 370 371 374.5 377 c 128,-1,23
 379 383 379 383 379 388 c 2,24,-1
 388 455 l 1,25,-1
 450 455 l 1,26,-1
 450 221 l 1,27,-1
 388 221 l 1,28,-1
 379 288 l 2,29,30
 379 293 379 293 374.5 299 c 128,-1,31
 370 305 370 305 364 305 c 2,32,-1
 246 305 l 1,33,-1
 246 51 l 1,34,-1
 463 51 l 2,35,36
 469 51 469 51 474 57.5 c 128,-1,37
 479 64 479 64 479 69 c 2,38,-1
 494 173 l 1,39,-1
 566 173 l 1,40,-1
 566 -10 l 1,41,-1
 25 0 l 1,0,-1
EndSplineSet
EndChar

StartChar: F
Encoding: 70 70 41
Width: 559
Flags: W
LayerCount: 2
Fore
SplineSet
459 500 m 1,0,-1
 445 590 l 2,1,2
 444 597 444 597 439.5 602.5 c 128,-1,3
 435 608 435 608 429 608 c 2,4,-1
 248 608 l 1,5,-1
 248 362 l 1,6,-1
 372 362 l 2,7,8
 378 362 378 362 382.5 368 c 128,-1,9
 387 374 387 374 387 379 c 2,10,-1
 396 447 l 1,11,-1
 458 447 l 1,12,-1
 458 211 l 1,13,-1
 396 211 l 1,14,-1
 387 279 l 2,15,16
 387 284 387 284 382 290 c 128,-1,17
 377 296 377 296 372 296 c 2,18,-1
 248 296 l 1,19,-1
 248 75 l 2,20,21
 248 66 248 66 254 60.5 c 128,-1,22
 260 55 260 55 269 55 c 2,23,-1
 333 50 l 1,24,-1
 333 0 l 1,25,-1
 26 0 l 1,26,-1
 26 50 l 1,27,-1
 80 55 l 2,28,29
 88 55 88 55 95 60.5 c 128,-1,30
 102 66 102 66 102 75 c 2,31,-1
 102 589 l 2,32,33
 102 598 102 598 95 603.5 c 128,-1,34
 88 609 88 609 80 609 c 2,35,-1
 23 613 l 1,36,-1
 23 663 l 1,37,-1
 531 663 l 1,38,-1
 531 493 l 1,39,-1
 459 500 l 1,0,-1
EndSplineSet
EndChar

StartChar: G
Encoding: 71 71 42
Width: 715
Flags: W
LayerCount: 2
Fore
SplineSet
642 275 m 1,0,1
 633 275 633 275 626.5 269.5 c 128,-1,2
 620 264 620 264 620 255 c 2,3,-1
 620 32 l 1,4,5
 591 19 591 19 555 9 c 0,6,7
 524 1 524 1 482 -6 c 128,-1,8
 440 -13 440 -13 390 -13 c 0,9,10
 315 -13 315 -13 251.5 12 c 128,-1,11
 188 37 188 37 141.5 83 c 128,-1,12
 95 129 95 129 68.5 193.5 c 128,-1,13
 42 258 42 258 42 338 c 0,14,15
 42 419 42 419 68.5 483.5 c 128,-1,16
 95 548 95 548 142.5 593 c 128,-1,17
 190 638 190 638 255.5 662 c 128,-1,18
 321 686 321 686 398 686 c 0,19,20
 447 686 447 686 488 680 c 128,-1,21
 529 674 529 674 559 667 c 0,22,23
 594 659 594 659 622 649 c 1,24,-1
 622 477 l 1,25,-1
 544 477 l 1,26,-1
 524 584 l 2,27,28
 524 589 524 589 519 595.5 c 128,-1,29
 514 602 514 602 508 604 c 0,30,31
 485 612 485 612 465 616 c 128,-1,32
 445 620 445 620 437 620 c 0,33,34
 394 620 394 620 359.5 609.5 c 128,-1,35
 325 599 325 599 298.5 580 c 128,-1,36
 272 561 272 561 253 535 c 128,-1,37
 234 509 234 509 222 478 c 128,-1,38
 210 447 210 447 204.5 413 c 128,-1,39
 199 379 199 379 199 344 c 0,40,41
 199 280 199 280 215 228 c 128,-1,42
 231 176 231 176 262 139.5 c 128,-1,43
 293 103 293 103 338 83.5 c 128,-1,44
 383 64 383 64 442 64 c 0,45,46
 448 64 448 64 458 63.5 c 128,-1,47
 468 63 468 63 486 64 c 1,48,-1
 486 258 l 2,49,50
 486 267 486 267 479.5 273 c 128,-1,51
 473 279 473 279 464 279 c 2,52,-1
 398 283 l 1,53,-1
 398 334 l 1,54,-1
 699 334 l 1,55,-1
 699 283 l 1,56,-1
 642 275 l 1,0,1
EndSplineSet
EndChar

StartChar: H
Encoding: 72 72 43
Width: 769
Flags: W
LayerCount: 2
Fore
SplineSet
448 0 m 1,0,-1
 448 50 l 1,1,-1
 499 55 l 2,2,3
 508 55 508 55 514 60.5 c 128,-1,4
 520 66 520 66 520 75 c 2,5,-1
 520 316 l 1,6,-1
 246 316 l 1,7,-1
 246 75 l 2,8,9
 246 66 246 66 252 60.5 c 128,-1,10
 258 55 258 55 267 55 c 2,11,-1
 319 50 l 1,12,-1
 319 0 l 1,13,-1
 28 0 l 1,14,-1
 28 50 l 1,15,-1
 80 55 l 2,16,17
 89 55 89 55 95 60.5 c 128,-1,18
 101 66 101 66 101 75 c 2,19,-1
 101 589 l 2,20,21
 101 598 101 598 95 603.5 c 128,-1,22
 89 609 89 609 80 609 c 2,23,-1
 28 613 l 1,24,-1
 28 663 l 1,25,-1
 319 663 l 1,26,-1
 319 613 l 1,27,-1
 267 609 l 2,28,29
 258 609 258 609 252 603.5 c 128,-1,30
 246 598 246 598 246 589 c 2,31,-1
 246 381 l 1,32,-1
 520 381 l 1,33,-1
 520 589 l 2,34,35
 520 598 520 598 514 603.5 c 128,-1,36
 508 609 508 609 499 609 c 2,37,-1
 448 613 l 1,38,-1
 448 663 l 1,39,-1
 738 663 l 1,40,-1
 738 613 l 1,41,-1
 687 609 l 2,42,43
 679 609 679 609 672.5 603.5 c 128,-1,44
 666 598 666 598 666 589 c 2,45,-1
 666 75 l 2,46,47
 666 66 666 66 672 60.5 c 128,-1,48
 678 55 678 55 687 55 c 2,49,-1
 738 50 l 1,50,-1
 738 0 l 1,51,-1
 448 0 l 1,0,-1
EndSplineSet
EndChar

StartChar: I
Encoding: 73 73 44
Width: 358
Flags: W
LayerCount: 2
Fore
SplineSet
22 0 m 1,0,-1
 22 50 l 1,1,-1
 84 55 l 2,2,3
 93 55 93 55 99 60.5 c 128,-1,4
 105 66 105 66 105 75 c 2,5,-1
 105 589 l 2,6,7
 105 598 105 598 99 603.5 c 128,-1,8
 93 609 93 609 84 609 c 2,9,-1
 22 613 l 1,10,-1
 22 663 l 1,11,-1
 334 663 l 1,12,-1
 334 613 l 1,13,-1
 272 609 l 2,14,15
 264 609 264 609 257 603.5 c 128,-1,16
 250 598 250 598 250 589 c 2,17,-1
 250 75 l 2,18,19
 250 66 250 66 257 60.5 c 128,-1,20
 264 55 264 55 272 55 c 2,21,-1
 334 50 l 1,22,-1
 334 0 l 1,23,-1
 22 0 l 1,0,-1
EndSplineSet
EndChar

StartChar: J
Encoding: 74 74 45
Width: 512
Flags: W
LayerCount: 2
Fore
SplineSet
429 615 m 2,0,1
 420 615 420 615 414 609.5 c 128,-1,2
 408 604 408 604 408 595 c 2,3,-1
 408 245 l 2,4,5
 408 187 408 187 394.5 140 c 128,-1,6
 381 93 381 93 352.5 59 c 128,-1,7
 324 25 324 25 280 6.5 c 128,-1,8
 236 -12 236 -12 175 -12 c 0,9,10
 155 -12 155 -12 134 -9.5 c 128,-1,11
 113 -7 113 -7 93.5 -3 c 128,-1,12
 74 1 74 1 57 5.5 c 128,-1,13
 40 10 40 10 29 14 c 1,14,-1
 29 196 l 1,15,-1
 107 196 l 1,16,-1
 129 63 l 2,17,18
 130 59 130 59 133 56 c 0,19,20
 135 53 135 53 139.5 51 c 128,-1,21
 144 49 144 49 152 49 c 0,22,23
 179 49 179 49 200 59 c 128,-1,24
 221 69 221 69 235.5 92 c 128,-1,25
 250 115 250 115 257 153.5 c 128,-1,26
 264 192 264 192 264 248 c 2,27,-1
 264 595 l 2,28,29
 264 604 264 604 257.5 609.5 c 128,-1,30
 251 615 251 615 243 615 c 2,31,-1
 181 619 l 1,32,-1
 181 669 l 1,33,-1
 490 669 l 1,34,-1
 490 619 l 1,35,-1
 429 615 l 2,0,1
EndSplineSet
EndChar

StartChar: K
Encoding: 75 75 46
Width: 682
Flags: W
LayerCount: 2
Fore
SplineSet
464 0 m 1,0,-1
 464 37 l 1,1,-1
 301 292 l 1,2,-1
 247 292 l 1,3,-1
 247 78 l 2,4,5
 247 69 247 69 253 63.5 c 128,-1,6
 259 58 259 58 268 58 c 2,7,-1
 320 53 l 1,8,-1
 320 3 l 1,9,-1
 28 3 l 1,10,-1
 28 53 l 1,11,-1
 81 58 l 2,12,13
 90 58 90 58 96 63.5 c 128,-1,14
 102 69 102 69 102 78 c 2,15,-1
 102 592 l 2,16,17
 102 601 102 601 96 606.5 c 128,-1,18
 90 612 90 612 81 612 c 2,19,-1
 28 616 l 1,20,-1
 28 666 l 1,21,-1
 320 666 l 1,22,-1
 320 616 l 1,23,-1
 268 612 l 2,24,25
 259 612 259 612 253 606.5 c 128,-1,26
 247 601 247 601 247 592 c 2,27,-1
 247 341 l 1,28,-1
 274 341 l 1,29,-1
 489 603 l 2,30,31
 491 605 491 605 490 609.5 c 128,-1,32
 489 614 489 614 484 614 c 2,33,-1
 428 618 l 1,34,-1
 428 668 l 1,35,-1
 657 668 l 1,36,-1
 657 618 l 1,37,38
 647 618 647 618 635 618 c 0,39,40
 625 618 625 618 613 617 c 128,-1,41
 601 616 601 616 589 616 c 1,42,-1
 403 395 l 1,43,-1
 612 61 l 1,44,-1
 683 55 l 1,45,-1
 683 5 l 1,46,-1
 464 0 l 1,0,-1
EndSplineSet
EndChar

StartChar: L
Encoding: 76 76 47
Width: 554
Flags: W
LayerCount: 2
Fore
SplineSet
26 0 m 1,0,-1
 26 50 l 1,1,-1
 81 55 l 2,2,3
 90 55 90 55 96 60.5 c 128,-1,4
 102 66 102 66 102 75 c 2,5,-1
 102 589 l 2,6,7
 102 598 102 598 96 603.5 c 128,-1,8
 90 609 90 609 81 609 c 2,9,-1
 26 613 l 1,10,-1
 26 663 l 1,11,-1
 324 663 l 1,12,-1
 324 613 l 1,13,-1
 268 609 l 2,14,15
 259 609 259 609 253 603.5 c 128,-1,16
 247 598 247 598 247 589 c 2,17,-1
 247 58 l 1,18,-1
 420 58 l 2,19,20
 425 58 425 58 429 60 c 128,-1,21
 433 62 433 62 436 65.5 c 128,-1,22
 439 69 439 69 440.5 72.5 c 128,-1,23
 442 76 442 76 442 78 c 2,24,-1
 455 193 l 1,25,-1
 535 193 l 1,26,-1
 535 -6 l 1,27,-1
 26 0 l 1,0,-1
EndSplineSet
EndChar

StartChar: M
Encoding: 77 77 48
Width: 902
Flags: W
LayerCount: 2
Fore
SplineSet
583 0 m 1,0,-1
 583 50 l 1,1,-1
 631 55 l 2,2,3
 639 55 639 55 645.5 60.5 c 128,-1,4
 652 66 652 66 652 75 c 2,5,-1
 652 599 l 1,6,-1
 452 -4 l 1,7,-1
 375 -4 l 1,8,-1
 179 595 l 1,9,-1
 179 75 l 2,10,11
 179 66 179 66 185.5 60.5 c 128,-1,12
 192 55 192 55 200 55 c 2,13,-1
 253 50 l 1,14,-1
 253 0 l 1,15,-1
 23 0 l 1,16,-1
 23 50 l 1,17,-1
 79 55 l 2,18,19
 87 55 87 55 94 60.5 c 128,-1,20
 101 66 101 66 101 75 c 2,21,-1
 101 589 l 2,22,23
 101 598 101 598 94 603.5 c 128,-1,24
 87 609 87 609 79 609 c 2,25,-1
 23 613 l 1,26,-1
 23 663 l 1,27,-1
 310 663 l 1,28,-1
 310 636 l 1,29,-1
 451 208 l 1,30,-1
 590 636 l 1,31,-1
 590 663 l 1,32,-1
 874 663 l 1,33,-1
 874 613 l 1,34,-1
 817 609 l 2,35,36
 809 609 809 609 802.5 603.5 c 128,-1,37
 796 598 796 598 796 589 c 2,38,-1
 796 75 l 2,39,40
 796 66 796 66 802.5 60.5 c 128,-1,41
 809 55 809 55 817 55 c 2,42,-1
 874 50 l 1,43,-1
 874 0 l 1,44,-1
 583 0 l 1,0,-1
EndSplineSet
EndChar

StartChar: N
Encoding: 78 78 49
Width: 744
Flags: W
LayerCount: 2
Fore
SplineSet
661 615 m 2,0,1
 653 615 653 615 646.5 609.5 c 128,-1,2
 640 604 640 604 640 595 c 2,3,-1
 640 3 l 1,4,-1
 518 3 l 1,5,-1
 182 531 l 1,6,-1
 182 81 l 2,7,8
 182 72 182 72 188.5 66.5 c 128,-1,9
 195 61 195 61 203 61 c 2,10,-1
 258 56 l 1,11,-1
 258 6 l 1,12,-1
 28 6 l 1,13,-1
 28 56 l 1,14,-1
 83 61 l 2,15,16
 92 61 92 61 98 66.5 c 128,-1,17
 104 72 104 72 104 81 c 2,18,-1
 104 595 l 2,19,20
 104 604 104 604 98 609.5 c 128,-1,21
 92 615 92 615 83 615 c 2,22,-1
 29 619 l 1,23,-1
 29 669 l 1,24,-1
 276 669 l 1,25,-1
 276 643 l 1,26,-1
 564 192 l 1,27,-1
 564 591 l 2,28,29
 564 600 564 600 557 605.5 c 128,-1,30
 550 611 550 611 542 611 c 2,31,-1
 485 615 l 1,32,-1
 485 665 l 1,33,-1
 716 665 l 1,34,-1
 716 615 l 1,35,-1
 661 615 l 2,0,1
EndSplineSet
EndChar

StartChar: O
Encoding: 79 79 50
Width: 755
Flags: W
LayerCount: 2
Fore
SplineSet
559 328 m 1,0,1
 559 386 559 386 548.5 438.5 c 128,-1,2
 538 491 538 491 516.5 531 c 128,-1,3
 495 571 495 571 462.5 594.5 c 128,-1,4
 430 618 430 618 387 618 c 0,5,6
 353 618 353 618 326 606.5 c 128,-1,7
 299 595 299 595 278.5 575 c 128,-1,8
 258 555 258 555 243.5 528 c 128,-1,9
 229 501 229 501 220 470 c 128,-1,10
 211 439 211 439 207 405.5 c 128,-1,11
 203 372 203 372 203 339 c 0,12,13
 203 304 203 304 207.5 269 c 128,-1,14
 212 234 212 234 221 202 c 128,-1,15
 230 170 230 170 244.5 142.5 c 128,-1,16
 259 115 259 115 278.5 95 c 128,-1,17
 298 75 298 75 323 63.5 c 128,-1,18
 348 52 348 52 378 52 c 0,19,20
 411 52 411 52 437.5 63.5 c 128,-1,21
 464 75 464 75 484.5 95.5 c 128,-1,22
 505 116 505 116 519.5 143 c 128,-1,23
 534 170 534 170 543.5 201 c 128,-1,24
 553 232 553 232 557 265 c 128,-1,25
 561 298 561 298 559 328 c 1,0,1
722 334 m 1,26,27
 722 263 722 263 698 200 c 128,-1,28
 674 137 674 137 630 90 c 128,-1,29
 586 43 586 43 524 15.5 c 128,-1,30
 462 -12 462 -12 387 -12 c 0,31,32
 313 -12 313 -12 249.5 11.5 c 128,-1,33
 186 35 186 35 140 80 c 128,-1,34
 94 125 94 125 68 191 c 128,-1,35
 42 257 42 257 42 341 c 0,36,37
 42 414 42 414 64.5 477.5 c 128,-1,38
 87 541 87 541 130 587 c 128,-1,39
 173 633 173 633 235.5 659.5 c 128,-1,40
 298 686 298 686 378 686 c 0,41,42
 429 686 429 686 474.5 673.5 c 128,-1,43
 520 661 520 661 558 638 c 128,-1,44
 596 615 596 615 626 583 c 128,-1,45
 656 551 656 551 676.5 511.5 c 128,-1,46
 697 472 697 472 708 427 c 128,-1,47
 719 382 719 382 722 334 c 1,26,27
EndSplineSet
EndChar

StartChar: P
Encoding: 80 80 51
Width: 611
Flags: W
LayerCount: 2
Fore
SplineSet
575 467 m 0,0,1
 575 425 575 425 565 392.5 c 128,-1,2
 555 360 555 360 536.5 335.5 c 128,-1,3
 518 311 518 311 493 294.5 c 128,-1,4
 468 278 468 278 439 268 c 128,-1,5
 410 258 410 258 378.5 253.5 c 128,-1,6
 347 249 347 249 316 249 c 0,7,8
 302 249 302 249 286.5 249 c 128,-1,9
 271 249 271 249 251 251 c 1,10,-1
 251 82 l 2,11,12
 251 73 251 73 257 67.5 c 128,-1,13
 263 62 263 62 272 62 c 2,14,-1
 334 57 l 1,15,-1
 334 7 l 1,16,-1
 28 7 l 1,17,-1
 28 57 l 1,18,-1
 83 62 l 2,19,20
 91 62 91 62 98 67.5 c 128,-1,21
 105 73 105 73 105 82 c 2,22,-1
 105 596 l 2,23,24
 105 605 105 605 98 610.5 c 128,-1,25
 91 616 91 616 83 616 c 2,26,-1
 25 620 l 1,27,-1
 25 670 l 1,28,-1
 305 670 l 2,29,30
 338 670 338 670 371 667.5 c 128,-1,31
 404 665 404 665 434 657 c 128,-1,32
 464 649 464 649 489.5 635.5 c 128,-1,33
 515 622 515 622 534 599.5 c 128,-1,34
 553 577 553 577 563.5 545 c 128,-1,35
 574 513 574 513 575 467 c 0,0,1
425 465 m 0,36,37
 425 500 425 500 416.5 527 c 128,-1,38
 408 554 408 554 392 572.5 c 128,-1,39
 376 591 376 591 354 600.5 c 128,-1,40
 332 610 332 610 305 610 c 2,41,-1
 249 610 l 1,42,-1
 249 309 l 1,43,44
 254 309 254 309 257.5 309 c 128,-1,45
 261 309 261 309 263 309 c 2,46,-1
 274 309 l 2,47,48
 308 309 308 309 336 317 c 128,-1,49
 364 325 364 325 383.5 343.5 c 128,-1,50
 403 362 403 362 413.5 391.5 c 128,-1,51
 424 421 424 421 425 465 c 0,36,37
EndSplineSet
EndChar

StartChar: Q
Encoding: 81 81 52
Width: 755
Flags: W
LayerCount: 2
Fore
SplineSet
559 328 m 1,0,1
 559 386 559 386 548.5 438.5 c 128,-1,2
 538 491 538 491 516.5 531 c 128,-1,3
 495 571 495 571 462.5 594.5 c 128,-1,4
 430 618 430 618 387 618 c 0,5,6
 353 618 353 618 326 606.5 c 128,-1,7
 299 595 299 595 278.5 575 c 128,-1,8
 258 555 258 555 243.5 528 c 128,-1,9
 229 501 229 501 220 470 c 128,-1,10
 211 439 211 439 207 405.5 c 128,-1,11
 203 372 203 372 203 339 c 0,12,13
 203 304 203 304 207.5 269 c 128,-1,14
 212 234 212 234 221 202 c 128,-1,15
 230 170 230 170 244.5 142.5 c 128,-1,16
 259 115 259 115 278.5 95 c 128,-1,17
 298 75 298 75 323 63.5 c 128,-1,18
 348 52 348 52 378 52 c 0,19,20
 411 52 411 52 437.5 63.5 c 128,-1,21
 464 75 464 75 484.5 95.5 c 128,-1,22
 505 116 505 116 519.5 143 c 128,-1,23
 534 170 534 170 543.5 201 c 128,-1,24
 553 232 553 232 557 265 c 128,-1,25
 561 298 561 298 559 328 c 1,0,1
688 -159 m 1,26,27
 637 -170 637 -170 595 -175.5 c 128,-1,28
 553 -181 553 -181 513 -181 c 0,29,30
 460 -181 460 -181 422 -169 c 128,-1,31
 384 -157 384 -157 360.5 -134.5 c 128,-1,32
 337 -112 337 -112 326 -80 c 128,-1,33
 315 -48 315 -48 315 -9 c 1,34,35
 255 1 255 1 205 29 c 128,-1,36
 155 57 155 57 119.5 101 c 128,-1,37
 84 145 84 145 64.5 204.5 c 128,-1,38
 45 264 45 264 45 338 c 0,39,40
 45 411 45 411 67.5 474.5 c 128,-1,41
 90 538 90 538 133 584 c 128,-1,42
 176 630 176 630 238.5 656.5 c 128,-1,43
 301 683 301 683 381 683 c 0,44,45
 432 683 432 683 477.5 670.5 c 128,-1,46
 523 658 523 658 561 635 c 128,-1,47
 599 612 599 612 629 580 c 128,-1,48
 659 548 659 548 679.5 508.5 c 128,-1,49
 700 469 700 469 711 424 c 128,-1,50
 722 379 722 379 722 331 c 0,51,52
 722 269 722 269 703.5 213 c 128,-1,53
 685 157 685 157 651 112 c 128,-1,54
 617 67 617 67 568.5 36 c 128,-1,55
 520 5 520 5 461 -7 c 1,56,57
 461 -34 461 -34 471.5 -54.5 c 128,-1,58
 482 -75 482 -75 500.5 -89 c 128,-1,59
 519 -103 519 -103 544 -110 c 128,-1,60
 569 -117 569 -117 596 -117 c 0,61,62
 610 -117 610 -117 632 -115 c 128,-1,63
 654 -113 654 -113 687 -106 c 1,64,-1
 688 -159 l 1,26,27
EndSplineSet
EndChar

StartChar: R
Encoding: 82 82 53
Width: 704
Flags: W
LayerCount: 2
Fore
SplineSet
704 0 m 1,0,1
 671 -3 671 -3 647.5 -9 c 128,-1,2
 624 -15 624 -15 606 -15 c 0,3,4
 558 -15 558 -15 526 -2 c 128,-1,5
 494 11 494 11 473 32.5 c 128,-1,6
 452 54 452 54 439 81.5 c 128,-1,7
 426 109 426 109 416 138 c 128,-1,8
 406 167 406 167 396 194.5 c 128,-1,9
 386 222 386 222 370.5 243.5 c 128,-1,10
 355 265 355 265 332 278 c 128,-1,11
 309 291 309 291 273 291 c 2,12,-1
 253 291 l 1,13,-1
 253 76 l 2,14,15
 253 67 253 67 259 61.5 c 128,-1,16
 265 56 265 56 274 56 c 2,17,-1
 329 51 l 1,18,-1
 329 1 l 1,19,-1
 33 1 l 1,20,-1
 33 51 l 1,21,-1
 86 56 l 2,22,23
 94 56 94 56 101 61.5 c 128,-1,24
 108 67 108 67 108 76 c 2,25,-1
 108 590 l 2,26,27
 108 599 108 599 101 604.5 c 128,-1,28
 94 610 94 610 86 610 c 2,29,-1
 33 614 l 1,30,-1
 33 664 l 1,31,-1
 365 664 l 2,32,33
 383 664 383 664 406 662 c 128,-1,34
 429 660 429 660 453 653.5 c 128,-1,35
 477 647 477 647 500 635.5 c 128,-1,36
 523 624 523 624 541 606 c 128,-1,37
 559 588 559 588 569.5 562 c 128,-1,38
 580 536 580 536 580 501 c 0,39,40
 580 468 580 468 571 443 c 128,-1,41
 562 418 562 418 547.5 399.5 c 128,-1,42
 533 381 533 381 514.5 368.5 c 128,-1,43
 496 356 496 356 476.5 348 c 128,-1,44
 457 340 457 340 439 336 c 128,-1,45
 421 332 421 332 408 331 c 1,46,47
 440 325 440 325 462.5 313 c 128,-1,48
 485 301 485 301 500.5 284.5 c 128,-1,49
 516 268 516 268 526 248.5 c 128,-1,50
 536 229 536 229 543 208.5 c 128,-1,51
 550 188 550 188 555.5 167.5 c 128,-1,52
 561 147 561 147 568 128.5 c 128,-1,53
 575 110 575 110 585 95 c 128,-1,54
 595 80 595 80 610.5 70 c 128,-1,55
 626 60 626 60 648.5 56 c 128,-1,56
 671 52 671 52 704 55 c 1,57,-1
 704 0 l 1,0,1
429 490 m 1,58,59
 429 553 429 553 391 583.5 c 128,-1,60
 353 614 353 614 280 614 c 0,61,62
 277 614 277 614 272 614 c 2,63,-1
 262 614 l 2,64,65
 257 614 257 614 251 614 c 1,66,-1
 251 359 l 1,67,68
 263 359 263 359 271 359 c 128,-1,69
 279 359 279 359 282 359 c 0,70,71
 305 359 305 359 331 363.5 c 128,-1,72
 357 368 357 368 378.5 382 c 128,-1,73
 400 396 400 396 414 422 c 128,-1,74
 428 448 428 448 429 490 c 1,58,59
EndSplineSet
EndChar

StartChar: S
Encoding: 83 83 54
Width: 536
Flags: W
LayerCount: 2
Fore
SplineSet
499 195 m 1,0,1
 499 143 499 143 477.5 103.5 c 128,-1,2
 456 64 456 64 419.5 38 c 128,-1,3
 383 12 383 12 335 -1 c 128,-1,4
 287 -14 287 -14 235 -14 c 0,5,6
 196 -14 196 -14 161.5 -8.5 c 128,-1,7
 127 -3 127 -3 101 4 c 0,8,9
 70 12 70 12 43 22 c 1,10,-1
 43 205 l 1,11,-1
 122 205 l 1,12,-1
 138 84 l 2,13,14
 138 79 138 79 142.5 74.5 c 128,-1,15
 147 70 147 70 149 70 c 0,16,17
 160 66 160 66 172 63 c 0,18,19
 183 60 183 60 196.5 58 c 128,-1,20
 210 56 210 56 224 56 c 0,21,22
 245 56 245 56 267.5 61 c 128,-1,23
 290 66 290 66 308.5 77 c 128,-1,24
 327 88 327 88 338.5 106 c 128,-1,25
 350 124 350 124 350 148 c 0,26,27
 350 179 350 179 335.5 201.5 c 128,-1,28
 321 224 321 224 298 242 c 128,-1,29
 275 260 275 260 245.5 275 c 128,-1,30
 216 290 216 290 187 306 c 0,31,32
 161 320 161 320 136.5 336 c 128,-1,33
 112 352 112 352 93 372.5 c 128,-1,34
 74 393 74 393 63 419.5 c 128,-1,35
 52 446 52 446 52 481 c 0,36,37
 52 529 52 529 71.5 566.5 c 128,-1,38
 91 604 91 604 124 629.5 c 128,-1,39
 157 655 157 655 200.5 668 c 128,-1,40
 244 681 244 681 292 681 c 0,41,42
 330 681 330 681 364 675 c 128,-1,43
 398 669 398 669 424 662 c 0,44,45
 454 654 454 654 479 643 c 1,46,-1
 479 479 l 1,47,-1
 402 479 l 1,48,-1
 386 585 l 2,49,50
 386 586 386 586 384 588 c 128,-1,51
 382 590 382 590 380 592 c 256,52,53
 378 594 378 594 375 596 c 0,54,55
 370 600 370 600 362 603 c 0,56,57
 355 605 355 605 344 607.5 c 128,-1,58
 333 610 333 610 317 610 c 0,59,60
 293 610 293 610 271 604.5 c 128,-1,61
 249 599 249 599 232.5 588 c 128,-1,62
 216 577 216 577 206 560 c 128,-1,63
 196 543 196 543 196 522 c 0,64,65
 196 496 196 496 207 476 c 128,-1,66
 218 456 218 456 236.5 440 c 128,-1,67
 255 424 255 424 279 411 c 128,-1,68
 303 398 303 398 329 385 c 0,69,70
 360 370 360 370 391 353 c 128,-1,71
 422 336 422 336 446.5 314 c 128,-1,72
 471 292 471 292 486 262.5 c 128,-1,73
 501 233 501 233 499 195 c 1,0,1
EndSplineSet
EndChar

StartChar: T
Encoding: 84 84 55
Width: 608
Flags: W
LayerCount: 2
Fore
SplineSet
520 487 m 1,0,-1
 502 598 l 2,1,2
 501 609 501 609 489 609 c 2,3,-1
 378 609 l 1,4,-1
 378 77 l 2,5,6
 378 68 378 68 384.5 62.5 c 128,-1,7
 391 57 391 57 399 57 c 2,8,-1
 458 52 l 1,9,-1
 458 2 l 1,10,-1
 153 2 l 1,11,-1
 153 52 l 1,12,-1
 211 57 l 2,13,14
 220 57 220 57 226.5 62.5 c 128,-1,15
 233 68 233 68 233 77 c 2,16,-1
 233 609 l 1,17,-1
 122 609 l 2,18,19
 109 609 109 609 108 598 c 2,20,-1
 90 487 l 1,21,-1
 19 487 l 1,22,-1
 19 670 l 1,23,-1
 595 670 l 1,24,-1
 595 487 l 1,25,-1
 520 487 l 1,0,-1
EndSplineSet
EndChar

StartChar: U
Encoding: 85 85 56
Width: 729
Flags: W
LayerCount: 2
Fore
SplineSet
649 615 m 2,0,1
 641 615 641 615 634.5 609.5 c 128,-1,2
 628 604 628 604 628 595 c 2,3,-1
 628 257 l 2,4,5
 628 184 628 184 611.5 132.5 c 128,-1,6
 595 81 595 81 561.5 49 c 128,-1,7
 528 17 528 17 476.5 3 c 128,-1,8
 425 -11 425 -11 355 -11 c 0,9,10
 227 -11 227 -11 164.5 58 c 128,-1,11
 102 127 102 127 102 258 c 2,12,-1
 102 596 l 2,13,14
 102 605 102 605 95 610.5 c 128,-1,15
 88 616 88 616 80 616 c 2,16,-1
 26 620 l 1,17,-1
 26 670 l 1,18,-1
 321 670 l 1,19,-1
 321 620 l 1,20,-1
 268 616 l 2,21,22
 260 616 260 616 253.5 610.5 c 128,-1,23
 247 605 247 605 247 596 c 2,24,-1
 247 250 l 2,25,26
 247 157 247 157 286.5 114.5 c 128,-1,27
 326 72 326 72 408 72 c 0,28,29
 447 72 447 72 474.5 84.5 c 128,-1,30
 502 97 502 97 520 120 c 128,-1,31
 538 143 538 143 546 175.5 c 128,-1,32
 554 208 554 208 554 248 c 2,33,-1
 554 594 l 2,34,35
 554 603 554 603 548 608.5 c 128,-1,36
 542 614 542 614 533 614 c 2,37,-1
 477 618 l 1,38,-1
 477 668 l 1,39,-1
 706 668 l 1,40,-1
 706 618 l 1,41,-1
 649 615 l 2,0,1
EndSplineSet
EndChar

StartChar: V
Encoding: 86 86 57
Width: 706
Flags: W
LayerCount: 2
Fore
SplineSet
632 611 m 1,0,-1
 403 -16 l 1,1,-1
 309 -16 l 1,2,-1
 76 610 l 1,3,-1
 12 619 l 1,4,-1
 12 669 l 1,5,-1
 297 669 l 1,6,-1
 297 619 l 1,7,-1
 241 612 l 2,8,9
 233 611 233 611 231.5 604 c 128,-1,10
 230 597 230 597 232 591 c 2,11,-1
 390 156 l 1,12,-1
 542 592 l 1,13,14
 543 598 543 598 541 604.5 c 128,-1,15
 539 611 539 611 528 612 c 2,16,-1
 475 619 l 1,17,-1
 475 669 l 1,18,-1
 698 669 l 1,19,-1
 698 619 l 1,20,-1
 632 611 l 1,0,-1
EndSplineSet
EndChar

StartChar: W
Encoding: 87 87 58
Width: 965
Flags: W
LayerCount: 2
Fore
SplineSet
895 611 m 1,0,-1
 738 -16 l 1,1,-1
 644 -16 l 1,2,-1
 488 504 l 1,3,-1
 336 -16 l 1,4,-1
 240 -16 l 1,5,-1
 74 611 l 1,6,-1
 13 619 l 1,7,-1
 13 669 l 1,8,-1
 285 669 l 1,9,-1
 285 619 l 1,10,-1
 226 613 l 2,11,12
 217 613 217 613 216.5 606.5 c 128,-1,13
 216 600 216 600 217 594 c 2,14,-1
 322 199 l 1,15,-1
 462 673 l 1,16,-1
 569 673 l 1,17,-1
 714 189 l 1,18,-1
 814 595 l 2,19,20
 815 601 815 601 813 607.5 c 128,-1,21
 811 614 811 614 801 615 c 2,22,-1
 738 621 l 1,23,-1
 738 671 l 1,24,-1
 959 671 l 1,25,-1
 959 621 l 1,26,-1
 895 611 l 1,0,-1
EndSplineSet
EndChar

StartChar: X
Encoding: 88 88 59
Width: 670
Flags: W
LayerCount: 2
Fore
SplineSet
360 0 m 1,0,-1
 360 50 l 1,1,-1
 421 54 l 2,2,3
 427 54 427 54 429 60.5 c 128,-1,4
 431 67 431 67 425 76 c 2,5,-1
 314 251 l 1,6,-1
 180 77 l 2,7,8
 177 73 177 73 177 69 c 128,-1,9
 177 65 177 65 178 62 c 128,-1,10
 179 59 179 59 181.5 57.5 c 128,-1,11
 184 56 184 56 186 56 c 2,12,-1
 246 51 l 1,13,-1
 246 1 l 1,14,-1
 10 1 l 1,15,-1
 10 51 l 1,16,-1
 74 59 l 1,17,-1
 272 319 l 1,18,-1
 85 610 l 1,19,-1
 23 619 l 1,20,-1
 23 669 l 1,21,-1
 315 669 l 1,22,-1
 315 619 l 1,23,-1
 263 615 l 2,24,25
 258 615 258 615 255.5 608 c 128,-1,26
 253 601 253 601 258 592 c 2,27,-1
 358 435 l 1,28,-1
 481 593 l 2,29,30
 487 601 487 601 484.5 609 c 128,-1,31
 482 617 482 617 476 617 c 2,32,-1
 423 620 l 1,33,-1
 423 670 l 1,34,-1
 651 670 l 1,35,-1
 651 620 l 1,36,-1
 589 611 l 1,37,-1
 402 369 l 1,38,-1
 600 60 l 1,39,-1
 662 52 l 1,40,-1
 662 2 l 1,41,-1
 360 0 l 1,0,-1
EndSplineSet
EndChar

StartChar: Y
Encoding: 89 89 60
Width: 663
Flags: W
LayerCount: 2
Fore
SplineSet
595 610 m 1,0,-1
 410 290 l 1,1,-1
 410 79 l 2,2,3
 410 70 410 70 416 64.5 c 128,-1,4
 422 59 422 59 431 59 c 2,5,-1
 492 54 l 1,6,-1
 492 4 l 1,7,-1
 182 4 l 1,8,-1
 182 54 l 1,9,-1
 243 59 l 2,10,11
 251 59 251 59 258 64.5 c 128,-1,12
 265 70 265 70 265 79 c 2,13,-1
 265 263 l 1,14,-1
 73 611 l 1,15,-1
 9 620 l 1,16,-1
 9 670 l 1,17,-1
 293 670 l 1,18,-1
 293 620 l 1,19,-1
 241 616 l 2,20,21
 236 616 236 616 233.5 609 c 128,-1,22
 231 602 231 602 236 593 c 2,23,-1
 361 357 l 1,24,-1
 497 594 l 2,25,26
 502 603 502 603 500.5 610.5 c 128,-1,27
 499 618 499 618 493 618 c 2,28,-1
 432 621 l 1,29,-1
 432 671 l 1,30,-1
 652 671 l 1,31,-1
 652 621 l 1,32,-1
 595 610 l 1,0,-1
EndSplineSet
EndChar

StartChar: Z
Encoding: 90 90 61
Width: 581
Flags: W
LayerCount: 2
Fore
SplineSet
37 0 m 1,0,-1
 37 59 l 1,1,-1
 379 609 l 1,2,-1
 159 609 l 2,3,4
 147 609 147 609 146 598 c 2,5,-1
 128 489 l 1,6,-1
 56 489 l 1,7,-1
 56 671 l 1,8,-1
 540 671 l 1,9,-1
 540 612 l 1,10,-1
 198 63 l 1,11,-1
 437 63 l 2,12,13
 449 63 449 63 451 74 c 2,14,-1
 471 197 l 1,15,-1
 543 197 l 1,16,-1
 543 1 l 1,17,-1
 37 0 l 1,0,-1
EndSplineSet
EndChar

StartChar: bracketleft
Encoding: 91 91 62
Width: 448
Flags: W
LayerCount: 2
Fore
SplineSet
134 -131 m 1,0,-1
 134 708 l 1,1,-1
 411 708 l 1,2,-1
 411 648 l 1,3,-1
 258 648 l 1,4,-1
 258 -74 l 1,5,-1
 411 -74 l 1,6,-1
 411 -131 l 1,7,-1
 134 -131 l 1,0,-1
EndSplineSet
EndChar

StartChar: backslash
Encoding: 92 92 63
Width: 494
Flags: W
LayerCount: 2
Fore
SplineSet
416 -92 m 1,0,-1
 0 671 l 1,1,-1
 78 671 l 1,2,-1
 494 -92 l 1,3,-1
 416 -92 l 1,0,-1
EndSplineSet
EndChar

StartChar: bracketright
Encoding: 93 93 64
Width: 588
Flags: W
LayerCount: 2
Fore
SplineSet
36 -131 m 1,0,-1
 36 -74 l 1,1,-1
 188 -74 l 1,2,-1
 188 648 l 1,3,-1
 36 648 l 1,4,-1
 36 708 l 1,5,-1
 312 708 l 1,6,-1
 312 -131 l 1,7,-1
 36 -131 l 1,0,-1
EndSplineSet
EndChar

StartChar: asciicircum
Encoding: 94 94 65
Width: 339
Flags: W
LayerCount: 2
Fore
SplineSet
256 550 m 1,0,-1
 170 645 l 1,1,-1
 84 550 l 1,2,-1
 1 550 l 1,3,-1
 111 721 l 1,4,-1
 229 721 l 1,5,-1
 339 550 l 1,6,-1
 256 550 l 1,0,-1
EndSplineSet
EndChar

StartChar: glyph66
Encoding: 95 95 66
Width: 339
Flags: W
LayerCount: 2
Fore
SplineSet
0 -166 m 1,0,-1
 0 -86 l 1,1,-1
 339 -86 l 1,2,-1
 339 -166 l 1,3,-1
 0 -166 l 1,0,-1
EndSplineSet
EndChar

StartChar: grave
Encoding: 96 96 67
Width: 374
Flags: W
LayerCount: 2
Fore
SplineSet
187 550 m 1,0,-1
 25 638 l 2,1,2
 20 640 20 640 16 645 c 128,-1,3
 12 650 12 650 9 655.5 c 128,-1,4
 6 661 6 661 4.5 667 c 128,-1,5
 3 673 3 673 3 677 c 0,6,7
 3 685 3 685 5.5 694.5 c 128,-1,8
 8 704 8 704 14.5 711.5 c 128,-1,9
 21 719 21 719 31.5 723.5 c 128,-1,10
 42 728 42 728 58 728 c 0,11,12
 68 728 68 728 75.5 727 c 128,-1,13
 83 726 83 726 90 722.5 c 128,-1,14
 97 719 97 719 104 713 c 128,-1,15
 111 707 111 707 119 698 c 2,16,-1
 255 547 l 1,17,-1
 187 550 l 1,0,-1
EndSplineSet
EndChar

StartChar: a
Encoding: 97 97 68
Width: 553
Flags: W
LayerCount: 2
Fore
SplineSet
350 0 m 1,0,-1
 337 49 l 1,1,2
 312 32 312 32 284 19 c 0,3,4
 260 8 260 8 229.5 -1.5 c 128,-1,5
 199 -11 199 -11 166 -11 c 0,6,7
 139 -11 139 -11 115.5 -2 c 128,-1,8
 92 7 92 7 74.5 23.5 c 128,-1,9
 57 40 57 40 47 63.5 c 128,-1,10
 37 87 37 87 37 116 c 0,11,12
 37 138 37 138 40.5 157 c 128,-1,13
 44 176 44 176 54.5 192 c 128,-1,14
 65 208 65 208 85.5 222.5 c 128,-1,15
 106 237 106 237 139.5 251 c 128,-1,16
 173 265 173 265 222 279 c 128,-1,17
 271 293 271 293 339 308 c 1,18,-1
 339 320 l 2,19,20
 339 327 339 327 339 332 c 0,21,22
 339 338 339 338 339 344 c 0,23,24
 339 358 339 358 336 374 c 128,-1,25
 333 390 333 390 323 403.5 c 128,-1,26
 313 417 313 417 294.5 426 c 128,-1,27
 276 435 276 435 247 435 c 0,28,29
 237 435 237 435 229 435 c 128,-1,30
 221 435 221 435 216 435 c 0,31,32
 210 435 210 435 206 435 c 1,33,-1
 206 341 l 1,34,-1
 103 341 l 2,35,36
 91 341 91 341 82 344 c 0,37,38
 74 346 74 346 67 353 c 128,-1,39
 60 360 60 360 60 375 c 0,40,41
 60 402 60 402 79.5 423.5 c 128,-1,42
 99 445 99 445 130.5 460 c 128,-1,43
 162 475 162 475 201.5 483 c 128,-1,44
 241 491 241 491 280 491 c 0,45,46
 322 491 322 491 357.5 485 c 128,-1,47
 393 479 393 479 418.5 461 c 128,-1,48
 444 443 444 443 457.5 410 c 128,-1,49
 471 377 471 377 471 323 c 2,50,-1
 471 67 l 2,51,52
 471 58 471 58 477 51.5 c 128,-1,53
 483 45 483 45 492 45 c 2,54,-1
 535 43 l 1,55,-1
 535 -3 l 1,56,-1
 350 0 l 1,0,-1
336 254 m 1,57,58
 288 245 288 245 257 235 c 128,-1,59
 226 225 226 225 207.5 212 c 128,-1,60
 189 199 189 199 182 182.5 c 128,-1,61
 175 166 175 166 175 144 c 0,62,63
 175 129 175 129 180 116 c 128,-1,64
 185 103 185 103 194.5 93 c 128,-1,65
 204 83 204 83 217 77.5 c 128,-1,66
 230 72 230 72 245 72 c 0,67,68
 261 72 261 72 277 75 c 128,-1,69
 293 78 293 78 306 81 c 0,70,71
 321 85 321 85 335 91 c 1,72,-1
 336 254 l 1,57,58
EndSplineSet
EndChar

StartChar: b
Encoding: 98 98 69
Width: 598
Flags: W
LayerCount: 2
Fore
SplineSet
565 273 m 1,0,1
 565 216 565 216 545.5 166 c 128,-1,2
 526 116 526 116 489 79.5 c 128,-1,3
 452 43 452 43 398 22 c 128,-1,4
 344 1 344 1 274 1 c 2,5,-1
 91 1 l 1,6,-1
 91 649 l 1,7,-1
 22 649 l 1,8,-1
 22 690 l 1,9,-1
 174 740 l 1,10,-1
 225 740 l 1,11,-1
 225 454 l 1,12,13
 245 466 245 466 268 476 c 0,14,15
 288 484 288 484 313.5 491 c 128,-1,16
 339 498 339 498 367 498 c 0,17,18
 407 498 407 498 442.5 483 c 128,-1,19
 478 468 478 468 504.5 439 c 128,-1,20
 531 410 531 410 546.5 368.5 c 128,-1,21
 562 327 562 327 565 273 c 1,0,1
417 244 m 1,22,23
 417 284 417 284 408 315.5 c 128,-1,24
 399 347 399 347 381 369 c 128,-1,25
 363 391 363 391 336 402.5 c 128,-1,26
 309 414 309 414 274 414 c 0,27,28
 265 414 265 414 256 413.5 c 128,-1,29
 247 413 247 413 240 413 c 2,30,-1
 223 411 l 1,31,-1
 223 57 l 1,32,33
 231 57 231 57 234.5 57 c 128,-1,34
 238 57 238 57 242 57 c 0,35,36
 283 57 283 57 315.5 66.5 c 128,-1,37
 348 76 348 76 370 98 c 128,-1,38
 392 120 392 120 403.5 156 c 128,-1,39
 415 192 415 192 417 244 c 1,22,23
EndSplineSet
EndChar

StartChar: c
Encoding: 99 99 70
Width: 501
Flags: W
LayerCount: 2
Fore
SplineSet
471 43 m 1,0,1
 459 38 459 38 441 29 c 128,-1,2
 423 20 423 20 399 11 c 128,-1,3
 375 2 375 2 344.5 -4.5 c 128,-1,4
 314 -11 314 -11 276 -11 c 0,5,6
 218 -11 218 -11 173.5 9 c 128,-1,7
 129 29 129 29 98.5 62.5 c 128,-1,8
 68 96 68 96 52.5 140 c 128,-1,9
 37 184 37 184 37 233 c 0,10,11
 37 292 37 292 57 341 c 128,-1,12
 77 390 77 390 111.5 425 c 128,-1,13
 146 460 146 460 192.5 479 c 128,-1,14
 239 498 239 498 292 498 c 0,15,16
 331 498 331 498 362.5 490 c 128,-1,17
 394 482 394 482 416.5 467.5 c 128,-1,18
 439 453 439 453 451 433 c 128,-1,19
 463 413 463 413 463 390 c 0,20,21
 463 373 463 373 457 359.5 c 128,-1,22
 451 346 451 346 441.5 336 c 128,-1,23
 432 326 432 326 419.5 321 c 128,-1,24
 407 316 407 316 394 316 c 0,25,26
 379 316 379 316 369 317.5 c 128,-1,27
 359 319 359 319 352 322 c 128,-1,28
 345 325 345 325 340 328.5 c 128,-1,29
 335 332 335 332 331 335 c 1,30,-1
 331 447 l 1,31,32
 325 447 325 447 321.5 447 c 128,-1,33
 318 447 318 447 313 447 c 0,34,35
 291 447 291 447 268.5 435.5 c 128,-1,36
 246 424 246 424 228 401 c 128,-1,37
 210 378 210 378 199 343.5 c 128,-1,38
 188 309 188 309 188 263 c 0,39,40
 188 220 188 220 198 185 c 128,-1,41
 208 150 208 150 227.5 125.5 c 128,-1,42
 247 101 247 101 275 88 c 128,-1,43
 303 75 303 75 338 75 c 0,44,45
 360 75 360 75 382.5 81 c 128,-1,46
 405 87 405 87 424 95 c 128,-1,47
 443 103 443 103 456.5 111 c 128,-1,48
 470 119 470 119 474 122 c 1,49,-1
 471 43 l 1,0,1
EndSplineSet
EndChar

StartChar: d
Encoding: 100 100 71
Width: 608
Flags: W
LayerCount: 2
Fore
SplineSet
386 421 m 1,0,1
 375 425 375 425 363 428 c 0,2,3
 353 431 353 431 341 433.5 c 128,-1,4
 329 436 329 436 318 436 c 0,5,6
 284 436 284 436 258.5 422 c 128,-1,7
 233 408 233 408 216.5 383.5 c 128,-1,8
 200 359 200 359 192 325.5 c 128,-1,9
 184 292 184 292 184 254 c 0,10,11
 184 215 184 215 192 183 c 128,-1,12
 200 151 200 151 216 128 c 128,-1,13
 232 105 232 105 256 92.5 c 128,-1,14
 280 80 280 80 312 80 c 0,15,16
 325 80 325 80 338.5 82.5 c 128,-1,17
 352 85 352 85 363 88 c 0,18,19
 376 92 376 92 388 97 c 1,20,-1
 386 421 l 1,0,1
388 -2 m 1,21,-1
 388 56 l 1,22,23
 383 54 383 54 368 43 c 128,-1,24
 353 32 353 32 332 20 c 128,-1,25
 311 8 311 8 285.5 -1.5 c 128,-1,26
 260 -11 260 -11 233 -11 c 0,27,28
 188 -11 188 -11 152 7.5 c 128,-1,29
 116 26 116 26 91 58.5 c 128,-1,30
 66 91 66 91 53 135.5 c 128,-1,31
 40 180 40 180 40 232 c 0,32,33
 40 296 40 296 59.5 345.5 c 128,-1,34
 79 395 79 395 113.5 428.5 c 128,-1,35
 148 462 148 462 195.5 479.5 c 128,-1,36
 243 497 243 497 299 497 c 0,37,38
 313 497 313 497 329 495.5 c 128,-1,39
 345 494 345 494 359 492 c 0,40,41
 375 490 375 490 391 487 c 1,42,-1
 391 648 l 1,43,-1
 317 648 l 1,44,-1
 317 689 l 1,45,-1
 472 739 l 1,46,-1
 523 739 l 1,47,-1
 523 73 l 2,48,49
 523 64 523 64 529 57.5 c 128,-1,50
 535 51 535 51 544 51 c 2,51,-1
 585 49 l 1,52,-1
 585 3 l 1,53,-1
 388 -2 l 1,21,-1
EndSplineSet
EndChar

StartChar: e
Encoding: 101 101 72
Width: 528
Flags: W
LayerCount: 2
Fore
SplineSet
354 326 m 1,0,1
 354 349 354 349 350 369.5 c 128,-1,2
 346 390 346 390 336 405 c 128,-1,3
 326 420 326 420 310.5 429 c 128,-1,4
 295 438 295 438 274 438 c 0,5,6
 247 438 247 438 228.5 426 c 128,-1,7
 210 414 210 414 199 394.5 c 128,-1,8
 188 375 188 375 183.5 351 c 128,-1,9
 179 327 179 327 179 304 c 1,10,-1
 359 304 l 1,11,-1
 354 326 l 1,0,1
502 47 m 1,12,13
 477 30 477 30 445 18 c 0,14,15
 418 7 418 7 379.5 -2 c 128,-1,16
 341 -11 341 -11 294 -11 c 0,17,18
 231 -11 231 -11 183.5 8.5 c 128,-1,19
 136 28 136 28 104.5 61.5 c 128,-1,20
 73 95 73 95 57.5 140 c 128,-1,21
 42 185 42 185 42 237 c 0,22,23
 42 293 42 293 59.5 341 c 128,-1,24
 77 389 77 389 109.5 423.5 c 128,-1,25
 142 458 142 458 188.5 477.5 c 128,-1,26
 235 497 235 497 292 497 c 0,27,28
 350 497 350 497 390.5 478 c 128,-1,29
 431 459 431 459 456 427.5 c 128,-1,30
 481 396 481 396 492 355 c 128,-1,31
 503 314 503 314 503 271 c 2,32,-1
 503 248 l 1,33,-1
 175 248 l 1,34,35
 175 207 175 207 185 174.5 c 128,-1,36
 195 142 195 142 214.5 119.5 c 128,-1,37
 234 97 234 97 262.5 85 c 128,-1,38
 291 73 291 73 327 73 c 0,39,40
 365 73 365 73 396 81.5 c 128,-1,41
 427 90 427 90 450 100 c 0,42,43
 476 112 476 112 498 127 c 1,44,-1
 502 47 l 1,12,13
EndSplineSet
EndChar

StartChar: f
Encoding: 102 102 73
Width: 347
Flags: W
LayerCount: 2
Fore
SplineSet
419 660 m 1,0,1
 419 649 419 649 414 639 c 128,-1,2
 409 629 409 629 400.5 620.5 c 128,-1,3
 392 612 392 612 381 606 c 128,-1,4
 370 600 370 600 358 597 c 1,5,-1
 259 689 l 1,6,7
 252 678 252 678 246 666 c 128,-1,8
 240 654 240 654 236.5 637 c 128,-1,9
 233 620 233 620 231 596.5 c 128,-1,10
 229 573 229 573 229 539 c 2,11,-1
 229 481 l 1,12,-1
 337 481 l 1,13,-1
 337 418 l 1,14,-1
 230 418 l 1,15,-1
 230 80 l 2,16,17
 230 71 230 71 236 64 c 128,-1,18
 242 57 242 57 251 57 c 2,19,-1
 312 55 l 1,20,-1
 312 9 l 1,21,-1
 22 9 l 1,22,-1
 22 55 l 1,23,-1
 72 57 l 2,24,25
 81 57 81 57 87.5 63.5 c 128,-1,26
 94 70 94 70 94 79 c 2,27,-1
 94 417 l 1,28,-1
 29 417 l 1,29,-1
 29 457 l 1,30,-1
 92 489 l 1,31,32
 92 528 92 528 102.5 563 c 128,-1,33
 113 598 113 598 134 631 c 1,34,35
 148 655 148 655 167.5 675.5 c 128,-1,36
 187 696 187 696 210.5 711 c 128,-1,37
 234 726 234 726 261.5 734 c 128,-1,38
 289 742 289 742 319 742 c 0,39,40
 333 742 333 742 349.5 737.5 c 128,-1,41
 366 733 366 733 380 723.5 c 128,-1,42
 394 714 394 714 403 699 c 128,-1,43
 412 684 412 684 419 660 c 1,0,1
EndSplineSet
EndChar

StartChar: g
Encoding: 103 103 74
Width: 555
Flags: W
LayerCount: 2
Fore
SplineSet
387 -68 m 1,0,1
 387 -51 387 -51 376.5 -38.5 c 128,-1,2
 366 -26 366 -26 349 -17 c 128,-1,3
 332 -8 332 -8 311 -2.5 c 128,-1,4
 290 3 290 3 269 6.5 c 128,-1,5
 248 10 248 10 229 11.5 c 128,-1,6
 210 13 210 13 198 14 c 1,7,8
 194 7 194 7 189 -0.5 c 128,-1,9
 184 -8 184 -8 179.5 -17 c 128,-1,10
 175 -26 175 -26 172.5 -37 c 128,-1,11
 170 -48 170 -48 170 -61 c 0,12,13
 170 -84 170 -84 179.5 -104.5 c 128,-1,14
 189 -125 189 -125 204.5 -140 c 128,-1,15
 220 -155 220 -155 239.5 -163.5 c 128,-1,16
 259 -172 259 -172 279 -172 c 256,17,18
 299 -172 299 -172 319 -164.5 c 128,-1,19
 339 -157 339 -157 355 -143.5 c 128,-1,20
 371 -130 371 -130 381 -110.5 c 128,-1,21
 391 -91 391 -91 387 -68 c 1,0,1
350 338 m 0,22,23
 350 358 350 358 345.5 378.5 c 128,-1,24
 341 399 341 399 331.5 415 c 128,-1,25
 322 431 322 431 308 441 c 128,-1,26
 294 451 294 451 276 451 c 0,27,28
 254 451 254 451 238.5 441 c 128,-1,29
 223 431 223 431 213.5 414.5 c 128,-1,30
 204 398 204 398 200 377.5 c 128,-1,31
 196 357 196 357 196 336 c 256,32,33
 196 315 196 315 200.5 293.5 c 128,-1,34
 205 272 205 272 214.5 255.5 c 128,-1,35
 224 239 224 239 239 229 c 128,-1,36
 254 219 254 219 274 219 c 256,37,38
 294 219 294 219 308 229 c 128,-1,39
 322 239 322 239 331.5 256 c 128,-1,40
 341 273 341 273 345 294.5 c 128,-1,41
 349 316 349 316 350 338 c 0,22,23
460 412 m 1,42,43
 465 402 465 402 469 390 c 0,44,45
 472 380 472 380 475 367 c 128,-1,46
 478 354 478 354 478 339 c 0,47,48
 478 306 478 306 467 280.5 c 128,-1,49
 456 255 456 255 437.5 236.5 c 128,-1,50
 419 218 419 218 395 205.5 c 128,-1,51
 371 193 371 193 344.5 186 c 128,-1,52
 318 179 318 179 291.5 177 c 128,-1,53
 265 175 265 175 242 176 c 1,54,55
 234 171 234 171 227 165 c 128,-1,56
 220 159 220 159 216.5 152 c 128,-1,57
 213 145 213 145 213 137 c 128,-1,58
 213 129 213 129 217 119 c 1,59,60
 299 113 299 113 356.5 101 c 128,-1,61
 414 89 414 89 450.5 71 c 128,-1,62
 487 53 487 53 503.5 28.5 c 128,-1,63
 520 4 520 4 520 -27 c 0,64,65
 520 -55 520 -55 509.5 -80 c 128,-1,66
 499 -105 499 -105 480 -126 c 128,-1,67
 461 -147 461 -147 435.5 -163.5 c 128,-1,68
 410 -180 410 -180 380 -191 c 128,-1,69
 350 -202 350 -202 317.5 -208 c 128,-1,70
 285 -214 285 -214 253 -214 c 0,71,72
 214 -214 214 -214 176 -205 c 128,-1,73
 138 -196 138 -196 108 -177 c 128,-1,74
 78 -158 78 -158 59.5 -129 c 128,-1,75
 41 -100 41 -100 41 -60 c 0,76,77
 41 -29 41 -29 52.5 -8.5 c 128,-1,78
 64 12 64 12 80 24 c 128,-1,79
 96 36 96 36 112.5 40 c 128,-1,80
 129 44 129 44 139 43 c 1,81,82
 133 56 133 56 130.5 70.5 c 128,-1,83
 128 85 128 85 128 94 c 0,84,85
 128 106 128 106 131 117 c 128,-1,86
 134 128 134 128 140.5 138.5 c 128,-1,87
 147 149 147 149 157 160 c 128,-1,88
 167 171 167 171 181 183 c 1,89,90
 168 185 168 185 147.5 194 c 128,-1,91
 127 203 127 203 107.5 220.5 c 128,-1,92
 88 238 88 238 74 265 c 128,-1,93
 60 292 60 292 60 331 c 0,94,95
 60 375 60 375 77 407.5 c 128,-1,96
 94 440 94 440 124 461 c 128,-1,97
 154 482 154 482 194 492 c 128,-1,98
 234 502 234 502 279 502 c 0,99,100
 302 502 302 502 322.5 499 c 128,-1,101
 343 496 343 496 360.5 491.5 c 128,-1,102
 378 487 378 487 392.5 482 c 128,-1,103
 407 477 407 477 419 474 c 1,104,-1
 548 474 l 1,105,-1
 548 415 l 1,106,-1
 460 412 l 1,42,43
EndSplineSet
EndChar

StartChar: h
Encoding: 104 104 75
Width: 625
Flags: W
LayerCount: 2
Fore
SplineSet
348 0 m 1,0,-1
 348 46 l 1,1,-1
 379 48 l 2,2,3
 388 48 388 48 394 54.5 c 128,-1,4
 400 61 400 61 400 70 c 2,5,-1
 400 305 l 2,6,7
 400 317 400 317 397.5 334 c 128,-1,8
 395 351 395 351 386.5 366 c 128,-1,9
 378 381 378 381 361.5 391.5 c 128,-1,10
 345 402 345 402 318 402 c 0,11,12
 303 402 303 402 287 400 c 128,-1,13
 271 398 271 398 257 396 c 0,14,15
 241 394 241 394 226 391 c 1,16,-1
 226 70 l 2,17,18
 226 61 226 61 232 54.5 c 128,-1,19
 238 48 238 48 247 48 c 2,20,-1
 281 46 l 1,21,-1
 281 0 l 1,22,-1
 28 0 l 1,23,-1
 28 46 l 1,24,-1
 69 48 l 2,25,26
 78 48 78 48 84 54.5 c 128,-1,27
 90 61 90 61 90 70 c 2,28,-1
 90 645 l 1,29,-1
 20 645 l 1,30,-1
 20 686 l 1,31,-1
 172 736 l 1,32,-1
 224 736 l 1,33,-1
 224 434 l 1,34,35
 251 451 251 451 281 464 c 0,36,37
 293 469 293 469 307 474.5 c 128,-1,38
 321 480 321 480 335.5 484 c 128,-1,39
 350 488 350 488 365 490.5 c 128,-1,40
 380 493 380 493 394 493 c 0,41,42
 423 493 423 493 444.5 485.5 c 128,-1,43
 466 478 466 478 481 466 c 128,-1,44
 496 454 496 454 505.5 438 c 128,-1,45
 515 422 515 422 520 404.5 c 128,-1,46
 525 387 525 387 526.5 370 c 128,-1,47
 528 353 528 353 528 339 c 2,48,-1
 528 70 l 2,49,50
 528 61 528 61 534 54.5 c 128,-1,51
 540 48 540 48 549 48 c 2,52,-1
 590 46 l 1,53,-1
 590 0 l 1,54,-1
 348 0 l 1,0,-1
EndSplineSet
EndChar

StartChar: i
Encoding: 105 105 76
Width: 333
Flags: W
LayerCount: 2
Fore
SplineSet
32 0 m 1,0,-1
 32 46 l 1,1,-1
 77 48 l 2,2,3
 85 48 85 48 91.5 54.5 c 128,-1,4
 98 61 98 61 98 70 c 2,5,-1
 98 405 l 1,6,-1
 35 405 l 1,7,-1
 35 446 l 1,8,-1
 180 495 l 1,9,-1
 230 495 l 1,10,-1
 230 69 l 2,11,12
 230 60 230 60 237 53.5 c 128,-1,13
 244 47 244 47 252 47 c 2,14,-1
 300 45 l 1,15,-1
 300 -1 l 1,16,-1
 32 0 l 1,0,-1
243 662 m 256,17,18
 243 646 243 646 237 632 c 128,-1,19
 231 618 231 618 220.5 607.5 c 128,-1,20
 210 597 210 597 196 591 c 128,-1,21
 182 585 182 585 166 585 c 256,22,23
 150 585 150 585 136 591 c 128,-1,24
 122 597 122 597 112 607.5 c 128,-1,25
 102 618 102 618 96 632 c 128,-1,26
 90 646 90 646 90 662 c 256,27,28
 90 678 90 678 96 692 c 128,-1,29
 102 706 102 706 112 716 c 128,-1,30
 122 726 122 726 136 732 c 128,-1,31
 150 738 150 738 166 738 c 256,32,33
 182 738 182 738 196 732 c 128,-1,34
 210 726 210 726 220.5 716 c 128,-1,35
 231 706 231 706 237 692 c 128,-1,36
 243 678 243 678 243 662 c 256,17,18
EndSplineSet
EndChar

StartChar: j
Encoding: 106 106 77
Width: 324
Flags: W
LayerCount: 2
Fore
SplineSet
232 46 m 2,0,1
 232 -8 232 -8 219 -59 c 128,-1,2
 206 -110 206 -110 178 -149 c 0,3,4
 151 -186 151 -186 109.5 -207.5 c 128,-1,5
 68 -229 68 -229 10 -229 c 0,6,7
 -10 -229 -10 -229 -28 -224.5 c 128,-1,8
 -46 -220 -46 -220 -59.5 -210.5 c 128,-1,9
 -73 -201 -73 -201 -81 -187 c 128,-1,10
 -89 -173 -89 -173 -89 -155 c 0,11,12
 -89 -142 -89 -142 -84 -130.5 c 128,-1,13
 -79 -119 -79 -119 -70.5 -110 c 128,-1,14
 -62 -101 -62 -101 -50.5 -95.5 c 128,-1,15
 -39 -90 -39 -90 -27 -90 c 1,16,-1
 70 -189 l 1,17,18
 75 -180 75 -180 79 -167.5 c 128,-1,19
 83 -155 83 -155 85.5 -140.5 c 128,-1,20
 88 -126 88 -126 89.5 -111 c 128,-1,21
 91 -96 91 -96 92 -82 c 0,22,23
 94 -48 94 -48 94 -10 c 2,24,-1
 94 404 l 1,25,-1
 23 404 l 1,26,-1
 23 445 l 1,27,-1
 176 494 l 1,28,-1
 226 494 l 1,29,-1
 232 46 l 2,0,1
236 657 m 256,30,31
 236 641 236 641 230 627 c 128,-1,32
 224 613 224 613 214 602.5 c 128,-1,33
 204 592 204 592 190 586 c 128,-1,34
 176 580 176 580 160 580 c 256,35,36
 144 580 144 580 130 586 c 128,-1,37
 116 592 116 592 105.5 602.5 c 128,-1,38
 95 613 95 613 89 627 c 128,-1,39
 83 641 83 641 83 657 c 256,40,41
 83 673 83 673 89 687 c 128,-1,42
 95 701 95 701 105.5 711 c 128,-1,43
 116 721 116 721 130 727 c 128,-1,44
 144 733 144 733 160 733 c 256,45,46
 176 733 176 733 190 727 c 128,-1,47
 204 721 204 721 214 711 c 128,-1,48
 224 701 224 701 230 687 c 128,-1,49
 236 673 236 673 236 657 c 256,30,31
EndSplineSet
EndChar

StartChar: k
Encoding: 107 107 78
Width: 591
Flags: W
LayerCount: 2
Fore
SplineSet
380 0 m 1,0,-1
 380 41 l 1,1,-1
 271 226 l 1,2,-1
 225 226 l 1,3,-1
 225 74 l 2,4,5
 225 65 225 65 231 58.5 c 128,-1,6
 237 52 237 52 246 52 c 2,7,-1
 286 50 l 1,8,-1
 286 4 l 1,9,-1
 26 4 l 1,10,-1
 26 50 l 1,11,-1
 67 52 l 2,12,13
 76 52 76 52 82 58.5 c 128,-1,14
 88 65 88 65 88 74 c 2,15,-1
 88 649 l 1,16,-1
 19 649 l 1,17,-1
 19 690 l 1,18,-1
 171 740 l 1,19,-1
 222 740 l 1,20,-1
 222 260 l 1,21,-1
 243 260 l 1,22,-1
 376 420 l 2,23,24
 380 425 380 425 378 430 c 128,-1,25
 376 435 376 435 369 435 c 2,26,-1
 331 438 l 1,27,-1
 331 484 l 1,28,-1
 539 484 l 1,29,-1
 539 438 l 1,30,-1
 474 431 l 1,31,-1
 368 309 l 1,32,-1
 521 50 l 1,33,-1
 580 46 l 1,34,-1
 580 0 l 1,35,-1
 380 0 l 1,0,-1
EndSplineSet
EndChar

StartChar: l
Encoding: 108 108 79
Width: 333
Flags: W
LayerCount: 2
Fore
SplineSet
28 0 m 1,0,-1
 28 46 l 1,1,-1
 77 48 l 2,2,3
 86 48 86 48 92 54 c 128,-1,4
 98 60 98 60 98 69 c 2,5,-1
 98 644 l 1,6,-1
 27 644 l 1,7,-1
 27 685 l 1,8,-1
 180 735 l 1,9,-1
 230 735 l 1,10,-1
 230 69 l 2,11,12
 230 60 230 60 236 54 c 128,-1,13
 242 48 242 48 251 48 c 2,14,-1
 301 46 l 1,15,-1
 301 0 l 1,16,-1
 28 0 l 1,0,-1
EndSplineSet
EndChar

StartChar: m
Encoding: 109 109 80
Width: 905
Flags: W
LayerCount: 2
Fore
SplineSet
632 0 m 1,0,-1
 632 46 l 1,1,-1
 663 48 l 2,2,3
 671 48 671 48 678 54.5 c 128,-1,4
 685 61 685 61 685 70 c 2,5,-1
 685 310 l 2,6,7
 685 328 685 328 681 345 c 128,-1,8
 677 362 677 362 667 375 c 128,-1,9
 657 388 657 388 640.5 395.5 c 128,-1,10
 624 403 624 403 600 403 c 0,11,12
 584 403 584 403 570 400.5 c 128,-1,13
 556 398 556 398 545 396 c 0,14,15
 533 393 533 393 522 389 c 1,16,-1
 522 71 l 2,17,18
 522 62 522 62 528 55.5 c 128,-1,19
 534 49 534 49 543 49 c 2,20,-1
 574 47 l 1,21,-1
 574 1 l 1,22,-1
 334 1 l 1,23,-1
 334 47 l 1,24,-1
 364 49 l 2,25,26
 373 49 373 49 379.5 55.5 c 128,-1,27
 386 62 386 62 386 71 c 2,28,-1
 386 311 l 2,29,30
 386 329 386 329 381.5 346 c 128,-1,31
 377 363 377 363 367 376 c 128,-1,32
 357 389 357 389 341 396.5 c 128,-1,33
 325 404 325 404 302 404 c 0,34,35
 282 404 282 404 267 401.5 c 128,-1,36
 252 399 252 399 243 397 c 0,37,38
 232 394 232 394 225 390 c 1,39,-1
 225 72 l 2,40,41
 225 63 225 63 231.5 56.5 c 128,-1,42
 238 50 238 50 247 50 c 2,43,-1
 277 48 l 1,44,-1
 277 2 l 1,45,-1
 31 2 l 1,46,-1
 31 48 l 1,47,-1
 68 50 l 2,48,49
 77 50 77 50 83 56.5 c 128,-1,50
 89 63 89 63 89 72 c 2,51,-1
 89 406 l 1,52,-1
 26 406 l 1,53,-1
 26 447 l 1,54,-1
 172 497 l 1,55,-1
 222 497 l 1,56,-1
 222 436 l 1,57,58
 247 453 247 453 274 466 c 0,59,60
 297 477 297 477 326 486.5 c 128,-1,61
 355 496 355 496 384 496 c 0,62,63
 412 496 412 496 432 488.5 c 128,-1,64
 452 481 452 481 465.5 471 c 128,-1,65
 479 461 479 461 488 449.5 c 128,-1,66
 497 438 497 438 503 430 c 1,67,68
 532 448 532 448 562 463 c 0,69,70
 575 469 575 469 589.5 475 c 128,-1,71
 604 481 604 481 619 485.5 c 128,-1,72
 634 490 634 490 649 492.5 c 128,-1,73
 664 495 664 495 678 495 c 0,74,75
 708 495 708 495 729.5 487 c 128,-1,76
 751 479 751 479 766 466 c 128,-1,77
 781 453 781 453 790 437 c 128,-1,78
 799 421 799 421 804 404 c 128,-1,79
 809 387 809 387 810.5 371.5 c 128,-1,80
 812 356 812 356 812 345 c 2,81,-1
 812 72 l 2,82,83
 812 63 812 63 818.5 56.5 c 128,-1,84
 825 50 825 50 833 50 c 2,85,-1
 869 48 l 1,86,-1
 869 2 l 1,87,-1
 632 0 l 1,0,-1
EndSplineSet
EndChar

StartChar: n
Encoding: 110 110 81
Width: 625
Flags: W
LayerCount: 2
Fore
SplineSet
342 0 m 1,0,-1
 342 46 l 1,1,-1
 379 48 l 2,2,3
 388 48 388 48 394 54.5 c 128,-1,4
 400 61 400 61 400 70 c 2,5,-1
 400 304 l 2,6,7
 400 323 400 323 396 341 c 128,-1,8
 392 359 392 359 382.5 372.5 c 128,-1,9
 373 386 373 386 357.5 394.5 c 128,-1,10
 342 403 342 403 320 403 c 0,11,12
 300 403 300 403 282.5 401 c 128,-1,13
 265 399 265 399 253 397 c 0,14,15
 238 395 238 395 226 392 c 1,16,-1
 226 71 l 2,17,18
 226 62 226 62 232.5 55.5 c 128,-1,19
 239 49 239 49 248 49 c 2,20,-1
 277 47 l 1,21,-1
 277 1 l 1,22,-1
 33 1 l 1,23,-1
 33 47 l 1,24,-1
 68 49 l 2,25,26
 77 49 77 49 83 55.5 c 128,-1,27
 89 62 89 62 89 71 c 2,28,-1
 89 405 l 1,29,-1
 21 405 l 1,30,-1
 21 446 l 1,31,-1
 171 496 l 1,32,-1
 223 496 l 1,33,-1
 223 435 l 1,34,35
 248 452 248 452 277 465 c 0,36,37
 301 476 301 476 332 485.5 c 128,-1,38
 363 495 363 495 395 495 c 0,39,40
 437 495 437 495 463.5 480.5 c 128,-1,41
 490 466 490 466 504.5 442 c 128,-1,42
 519 418 519 418 524 387 c 128,-1,43
 529 356 529 356 529 324 c 2,44,-1
 529 72 l 2,45,46
 529 63 529 63 535.5 56.5 c 128,-1,47
 542 50 542 50 551 50 c 2,48,-1
 581 48 l 1,49,-1
 581 2 l 1,50,-1
 342 0 l 1,0,-1
EndSplineSet
EndChar

StartChar: o
Encoding: 111 111 82
Width: 583
Flags: W
LayerCount: 2
Fore
SplineSet
403 242 m 1,0,1
 403 262 403 262 401.5 285 c 128,-1,2
 400 308 400 308 395.5 330 c 128,-1,3
 391 352 391 352 383 372 c 128,-1,4
 375 392 375 392 363 407 c 128,-1,5
 351 422 351 422 334 431 c 128,-1,6
 317 440 317 440 295 440 c 0,7,8
 262 440 262 440 241 421.5 c 128,-1,9
 220 403 220 403 208.5 374 c 128,-1,10
 197 345 197 345 192.5 310.5 c 128,-1,11
 188 276 188 276 188 244 c 0,12,13
 188 223 188 223 189.5 200 c 128,-1,14
 191 177 191 177 195.5 155 c 128,-1,15
 200 133 200 133 207.5 113 c 128,-1,16
 215 93 215 93 227 78 c 128,-1,17
 239 63 239 63 256 54 c 128,-1,18
 273 45 273 45 296 45 c 0,19,20
 330 45 330 45 351 63 c 128,-1,21
 372 81 372 81 384 109.5 c 128,-1,22
 396 138 396 138 400.5 173 c 128,-1,23
 405 208 405 208 403 242 c 1,0,1
554 240 m 256,24,25
 554 184 554 184 536.5 137.5 c 128,-1,26
 519 91 519 91 485 58 c 128,-1,27
 451 25 451 25 402 6.5 c 128,-1,28
 353 -12 353 -12 291 -12 c 0,29,30
 234 -12 234 -12 187 5.5 c 128,-1,31
 140 23 140 23 106.5 55.5 c 128,-1,32
 73 88 73 88 54.5 135 c 128,-1,33
 36 182 36 182 36 241 c 0,34,35
 36 302 36 302 55.5 349.5 c 128,-1,36
 75 397 75 397 109.5 429.5 c 128,-1,37
 144 462 144 462 192 479 c 128,-1,38
 240 496 240 496 298 496 c 0,39,40
 360 496 360 496 407.5 477 c 128,-1,41
 455 458 455 458 487.5 424 c 128,-1,42
 520 390 520 390 537 343 c 128,-1,43
 554 296 554 296 554 240 c 256,24,25
EndSplineSet
EndChar

StartChar: p
Encoding: 112 112 83
Width: 604
Flags: W
LayerCount: 2
Fore
SplineSet
423 243 m 0,0,1
 423 275 423 275 415.5 305 c 128,-1,2
 408 335 408 335 393 357.5 c 128,-1,3
 378 380 378 380 354.5 393.5 c 128,-1,4
 331 407 331 407 299 407 c 0,5,6
 286 407 286 407 273.5 405 c 128,-1,7
 261 403 261 403 251 401 c 0,8,9
 239 398 239 398 228 395 c 1,10,-1
 228 56 l 1,11,12
 237 53 237 53 246 51 c 0,13,14
 254 49 254 49 263 47.5 c 128,-1,15
 272 46 272 46 280 46 c 0,16,17
 316 46 316 46 343 61.5 c 128,-1,18
 370 77 370 77 388 104 c 128,-1,19
 406 131 406 131 415 167.5 c 128,-1,20
 424 204 424 204 423 243 c 0,0,1
571 260 m 1,21,22
 571 200 571 200 552 150.5 c 128,-1,23
 533 101 533 101 498 66 c 128,-1,24
 463 31 463 31 413.5 11.5 c 128,-1,25
 364 -8 364 -8 302 -8 c 0,26,27
 287 -8 287 -8 273.5 -7 c 128,-1,28
 260 -6 260 -6 249 -5 c 0,29,30
 237 -4 237 -4 226 -1 c 1,31,-1
 226 -145 l 2,32,33
 226 -154 226 -154 232 -160.5 c 128,-1,34
 238 -167 238 -167 247 -167 c 2,35,-1
 299 -169 l 1,36,-1
 299 -216 l 1,37,-1
 25 -216 l 1,38,-1
 25 -169 l 1,39,-1
 68 -167 l 2,40,41
 77 -167 77 -167 83 -160.5 c 128,-1,42
 89 -154 89 -154 89 -145 c 2,43,-1
 89 409 l 1,44,-1
 24 409 l 1,45,-1
 24 450 l 1,46,-1
 171 500 l 1,47,-1
 223 500 l 1,48,-1
 223 438 l 1,49,50
 246 455 246 455 272 468 c 0,51,52
 294 479 294 479 322 489 c 128,-1,53
 350 499 350 499 380 499 c 256,54,55
 410 499 410 499 435.5 489.5 c 128,-1,56
 461 480 461 480 481.5 463.5 c 128,-1,57
 502 447 502 447 517.5 424 c 128,-1,58
 533 401 533 401 543 374.5 c 128,-1,59
 553 348 553 348 558 318.5 c 128,-1,60
 563 289 563 289 571 260 c 1,21,22
EndSplineSet
EndChar

StartChar: q
Encoding: 113 113 84
Width: 603
Flags: W
LayerCount: 2
Fore
SplineSet
378 437 m 1,0,1
 374 437 374 437 368 437 c 0,2,3
 363 437 363 437 355.5 437 c 128,-1,4
 348 437 348 437 340 437 c 0,5,6
 296 437 296 437 265.5 423 c 128,-1,7
 235 409 235 409 216 384 c 128,-1,8
 197 359 197 359 189 324.5 c 128,-1,9
 181 290 181 290 181 250 c 0,10,11
 181 209 181 209 190 176.5 c 128,-1,12
 199 144 199 144 216.5 121.5 c 128,-1,13
 234 99 234 99 259 87 c 128,-1,14
 284 75 284 75 316 75 c 0,15,16
 327 75 327 75 338 75 c 128,-1,17
 349 75 349 75 358 75 c 0,18,19
 368 75 368 75 378 75 c 1,20,-1
 378 437 l 1,0,1
301 -223 m 1,21,-1
 301 -176 l 1,22,-1
 356 -174 l 2,23,24
 365 -174 365 -174 371 -167.5 c 128,-1,25
 377 -161 377 -161 377 -152 c 2,26,-1
 377 33 l 1,27,28
 357 19 357 19 334 8 c 0,29,30
 314 -1 314 -1 287 -8.5 c 128,-1,31
 260 -16 260 -16 230 -16 c 0,32,33
 186 -16 186 -16 150 3.5 c 128,-1,34
 114 23 114 23 89 56 c 128,-1,35
 64 89 64 89 50.5 132.5 c 128,-1,36
 37 176 37 176 37 224 c 0,37,38
 37 294 37 294 60.5 345 c 128,-1,39
 84 396 84 396 126.5 428.5 c 128,-1,40
 169 461 169 461 228 476.5 c 128,-1,41
 287 492 287 492 357 492 c 0,42,43
 382 492 382 492 409.5 490.5 c 128,-1,44
 437 489 437 489 460 487 c 0,45,46
 487 485 487 485 513 482 c 1,47,-1
 513 -151 l 2,48,49
 513 -160 513 -160 519 -166.5 c 128,-1,50
 525 -173 525 -173 534 -173 c 2,51,-1
 575 -175 l 1,52,-1
 575 -222 l 1,53,-1
 301 -223 l 1,21,-1
EndSplineSet
EndChar

StartChar: r
Encoding: 114 114 85
Width: 432
Flags: W
LayerCount: 2
Fore
SplineSet
354 330 m 1,0,1
 351 334 351 334 346 340.5 c 128,-1,2
 341 347 341 347 333.5 353 c 128,-1,3
 326 359 326 359 315.5 363 c 128,-1,4
 305 367 305 367 291 367 c 256,5,6
 277 367 277 367 265 364.5 c 128,-1,7
 253 362 253 362 245 359 c 0,8,9
 235 356 235 356 228 352 c 1,10,-1
 228 72 l 2,11,12
 228 64 228 64 234 57 c 128,-1,13
 240 50 240 50 249 50 c 2,14,-1
 312 48 l 1,15,-1
 312 2 l 1,16,-1
 26 2 l 1,17,-1
 26 48 l 1,18,-1
 69 50 l 2,19,20
 78 50 78 50 84 56.5 c 128,-1,21
 90 63 90 63 90 71 c 2,22,-1
 90 407 l 1,23,-1
 18 407 l 1,24,-1
 18 448 l 1,25,-1
 172 498 l 1,26,-1
 224 498 l 1,27,-1
 224 393 l 1,28,29
 233 404 233 404 248.5 422 c 128,-1,30
 264 440 264 440 282.5 456.5 c 128,-1,31
 301 473 301 473 320.5 485 c 128,-1,32
 340 497 340 497 357 497 c 0,33,34
 365 497 365 497 374 496 c 128,-1,35
 383 495 383 495 391.5 492.5 c 128,-1,36
 400 490 400 490 407 487 c 128,-1,37
 414 484 414 484 418 481 c 1,38,-1
 418 330 l 1,39,-1
 354 330 l 1,0,1
EndSplineSet
EndChar

StartChar: s
Encoding: 115 115 86
Width: 444
Flags: W
LayerCount: 2
Fore
SplineSet
397 334 m 1,0,-1
 335 334 l 1,1,-1
 325 414 l 1,2,3
 316 425 316 425 295.5 431.5 c 128,-1,4
 275 438 275 438 248 438 c 0,5,6
 213 438 213 438 193 424 c 128,-1,7
 173 410 173 410 173 384 c 0,8,9
 173 370 173 370 181 357.5 c 128,-1,10
 189 345 189 345 203 334 c 128,-1,11
 217 323 217 323 235 313 c 128,-1,12
 253 303 253 303 273 293 c 0,13,14
 297 281 297 281 322 268 c 128,-1,15
 347 255 347 255 367 239 c 128,-1,16
 387 223 387 223 399.5 203.5 c 128,-1,17
 412 184 412 184 412 159 c 0,18,19
 412 112 412 112 394 80.5 c 128,-1,20
 376 49 376 49 347.5 29.5 c 128,-1,21
 319 10 319 10 282.5 1.5 c 128,-1,22
 246 -7 246 -7 209 -7 c 256,23,24
 172 -7 172 -7 140.5 -3 c 128,-1,25
 109 1 109 1 85 6 c 0,26,27
 57 11 57 11 34 18 c 1,28,-1
 34 169 l 1,29,-1
 96 169 l 1,30,31
 96 159 96 159 97.5 143.5 c 128,-1,32
 99 128 99 128 100 114 c 0,33,34
 101 97 101 97 103 79 c 0,35,36
 103 77 103 77 113 72.5 c 128,-1,37
 123 68 123 68 137 63.5 c 128,-1,38
 151 59 151 59 166.5 56 c 128,-1,39
 182 53 182 53 194 53 c 0,40,41
 219 53 219 53 235.5 59.5 c 128,-1,42
 252 66 252 66 261.5 75.5 c 128,-1,43
 271 85 271 85 274.5 95.5 c 128,-1,44
 278 106 278 106 278 114 c 0,45,46
 278 134 278 134 265.5 148.5 c 128,-1,47
 253 163 253 163 232.5 175 c 128,-1,48
 212 187 212 187 186.5 197.5 c 128,-1,49
 161 208 161 208 137 220 c 0,50,51
 117 230 117 230 98 242 c 128,-1,52
 79 254 79 254 65 269 c 128,-1,53
 51 284 51 284 42.5 303 c 128,-1,54
 34 322 34 322 34 346 c 0,55,56
 34 380 34 380 48.5 408 c 128,-1,57
 63 436 63 436 89.5 455.5 c 128,-1,58
 116 475 116 475 152.5 485.5 c 128,-1,59
 189 496 189 496 232 496 c 0,60,61
 269 496 269 496 298.5 492 c 128,-1,62
 328 488 328 488 348 483 c 0,63,64
 371 478 371 478 389 471 c 1,65,-1
 397 334 l 1,0,-1
EndSplineSet
EndChar

StartChar: t
Encoding: 116 116 87
Width: 375
Flags: W
LayerCount: 2
Fore
SplineSet
371 21 m 1,0,1
 348 12 348 12 322 5 c 0,2,3
 300 -1 300 -1 271.5 -6 c 128,-1,4
 243 -11 243 -11 213 -11 c 0,5,6
 180 -11 180 -11 157 -4 c 128,-1,7
 134 3 134 3 120 18 c 128,-1,8
 106 33 106 33 100 55.5 c 128,-1,9
 94 78 94 78 94 109 c 2,10,-1
 94 421 l 1,11,-1
 29 421 l 1,12,-1
 29 461 l 1,13,-1
 106 506 l 1,14,-1
 159 612 l 1,15,-1
 228 612 l 1,16,-1
 228 484 l 1,17,-1
 366 484 l 1,18,-1
 366 421 l 1,19,-1
 228 421 l 1,20,-1
 228 150 l 2,21,22
 228 103 228 103 248.5 83.5 c 128,-1,23
 269 64 269 64 309 64 c 0,24,25
 320 64 320 64 331.5 64.5 c 128,-1,26
 343 65 343 65 352 66 c 0,27,28
 362 67 362 67 371 68 c 1,29,-1
 371 21 l 1,0,1
EndSplineSet
EndChar

StartChar: u
Encoding: 117 117 88
Width: 620
Flags: W
LayerCount: 2
Fore
SplineSet
395 0 m 1,0,-1
 395 55 l 1,1,2
 371 36 371 36 345 22 c 0,3,4
 323 10 323 10 295.5 0 c 128,-1,5
 268 -10 268 -10 241 -10 c 0,6,7
 199 -10 199 -10 170.5 1 c 128,-1,8
 142 12 142 12 125 32.5 c 128,-1,9
 108 53 108 53 101 83 c 128,-1,10
 94 113 94 113 94 151 c 2,11,-1
 94 409 l 1,12,-1
 30 409 l 1,13,-1
 30 450 l 1,14,-1
 176 499 l 1,15,-1
 228 499 l 1,16,-1
 228 189 l 2,17,18
 228 171 228 171 230 151.5 c 128,-1,19
 232 132 232 132 241 116 c 128,-1,20
 250 100 250 100 268 90 c 128,-1,21
 286 80 286 80 317 80 c 0,22,23
 332 80 332 80 346 82 c 128,-1,24
 360 84 360 84 371 87 c 0,25,26
 383 90 383 90 394 94 c 1,27,-1
 394 406 l 1,28,-1
 332 406 l 1,29,-1
 332 447 l 1,30,-1
 477 496 l 1,31,-1
 527 496 l 1,32,-1
 527 70 l 2,33,34
 527 61 527 61 534 54.5 c 128,-1,35
 541 48 541 48 550 48 c 2,36,-1
 593 46 l 1,37,-1
 593 0 l 1,38,-1
 395 0 l 1,0,-1
EndSplineSet
EndChar

StartChar: v
Encoding: 118 118 89
Width: 565
Flags: W
LayerCount: 2
Fore
SplineSet
500 434 m 1,0,-1
 329 0 l 1,1,-1
 230 0 l 1,2,-1
 70 435 l 1,3,-1
 11 440 l 1,4,-1
 11 486 l 1,5,-1
 274 486 l 1,6,-1
 274 440 l 1,7,-1
 229 438 l 2,8,9
 220 438 220 438 216.5 432 c 128,-1,10
 213 426 213 426 215 418 c 2,11,-1
 313 142 l 1,12,-1
 421 418 l 2,13,14
 423 425 423 425 418.5 431.5 c 128,-1,15
 414 438 414 438 406 438 c 2,16,-1
 365 440 l 1,17,-1
 365 486 l 1,18,-1
 559 486 l 1,19,-1
 559 440 l 1,20,-1
 500 434 l 1,0,-1
EndSplineSet
EndChar

StartChar: w
Encoding: 119 119 90
Width: 840
Flags: W
LayerCount: 2
Fore
SplineSet
775 434 m 1,0,-1
 642 0 l 1,1,-1
 531 0 l 1,2,-1
 423 354 l 1,3,-1
 309 0 l 1,4,-1
 201 0 l 1,5,-1
 72 435 l 1,6,-1
 13 440 l 1,7,-1
 13 486 l 1,8,-1
 269 486 l 1,9,-1
 269 440 l 1,10,-1
 227 438 l 2,11,12
 219 438 219 438 214.5 432 c 128,-1,13
 210 426 210 426 212 418 c 2,14,-1
 290 144 l 1,15,-1
 401 490 l 1,16,-1
 510 490 l 1,17,-1
 617 142 l 1,18,-1
 700 418 l 2,19,20
 702 425 702 425 698 431.5 c 128,-1,21
 694 438 694 438 686 438 c 2,22,-1
 643 440 l 1,23,-1
 643 486 l 1,24,-1
 834 486 l 1,25,-1
 834 440 l 1,26,-1
 775 434 l 1,0,-1
EndSplineSet
EndChar

StartChar: x
Encoding: 120 120 91
Width: 545
Flags: W
LayerCount: 2
Fore
SplineSet
283 0 m 1,0,-1
 283 46 l 1,1,-1
 321 49 l 2,2,3
 328 49 328 49 330 54 c 128,-1,4
 332 59 332 59 329 64 c 2,5,-1
 250 171 l 1,6,-1
 163 64 l 2,7,8
 159 59 159 59 160.5 54 c 128,-1,9
 162 49 162 49 169 49 c 2,10,-1
 204 46 l 1,11,-1
 204 0 l 1,12,-1
 9 0 l 1,13,-1
 9 46 l 1,14,-1
 69 54 l 1,15,-1
 212 226 l 1,16,-1
 65 432 l 1,17,-1
 13 438 l 1,18,-1
 13 484 l 1,19,-1
 258 484 l 1,20,-1
 258 438 l 1,21,-1
 230 436 l 2,22,23
 222 436 222 436 220.5 430.5 c 128,-1,24
 219 425 219 425 223 420 c 2,25,-1
 292 324 l 1,26,-1
 372 420 l 2,27,28
 375 425 375 425 373.5 430.5 c 128,-1,29
 372 436 372 436 365 436 c 2,30,-1
 333 438 l 1,31,-1
 333 484 l 1,32,-1
 519 484 l 1,33,-1
 519 438 l 1,34,-1
 463 432 l 1,35,-1
 331 268 l 1,36,-1
 484 54 l 1,37,-1
 537 46 l 1,38,-1
 537 0 l 1,39,-1
 283 0 l 1,0,-1
EndSplineSet
EndChar

StartChar: y
Encoding: 121 121 92
Width: 565
Flags: W
LayerCount: 2
Fore
SplineSet
503 434 m 1,0,-1
 331 10 l 2,1,2
 322 -12 322 -12 311 -38 c 128,-1,3
 300 -64 300 -64 286.5 -90.5 c 128,-1,4
 273 -117 273 -117 256.5 -141.5 c 128,-1,5
 240 -166 240 -166 220 -185 c 0,6,7
 200 -205 200 -205 175.5 -216.5 c 128,-1,8
 151 -228 151 -228 122 -228 c 0,9,10
 108 -228 108 -228 92.5 -222.5 c 128,-1,11
 77 -217 77 -217 64.5 -207 c 128,-1,12
 52 -197 52 -197 44 -182.5 c 128,-1,13
 36 -168 36 -168 36 -150 c 0,14,15
 36 -137 36 -137 41 -126 c 128,-1,16
 46 -115 46 -115 54 -106 c 128,-1,17
 62 -97 62 -97 72 -90.5 c 128,-1,18
 82 -84 82 -84 92 -80 c 1,19,-1
 176 -144 l 1,20,21
 189 -132 189 -132 200.5 -114.5 c 128,-1,22
 212 -97 212 -97 221.5 -78.5 c 128,-1,23
 231 -60 231 -60 238 -42.5 c 128,-1,24
 245 -25 245 -25 248 -13 c 1,25,-1
 70 430 l 1,26,-1
 11 435 l 1,27,-1
 11 481 l 1,28,-1
 274 481 l 1,29,-1
 274 435 l 1,30,-1
 229 433 l 2,31,32
 220 433 220 433 216 427 c 128,-1,33
 212 421 212 421 214 413 c 1,34,-1
 317 157 l 1,35,-1
 422 413 l 2,36,37
 424 420 424 420 419.5 426.5 c 128,-1,38
 415 433 415 433 407 433 c 2,39,-1
 364 435 l 1,40,-1
 364 481 l 1,41,-1
 559 481 l 1,42,-1
 559 435 l 1,43,-1
 503 434 l 1,0,-1
EndSplineSet
EndChar

StartChar: z
Encoding: 122 122 93
Width: 491
Flags: W
LayerCount: 2
Fore
SplineSet
32 0 m 1,0,-1
 32 64 l 1,1,-1
 287 430 l 1,2,-1
 137 430 l 2,3,4
 130 430 130 430 124.5 423 c 128,-1,5
 119 416 119 416 119 410 c 2,6,-1
 112 333 l 1,7,-1
 42 333 l 1,8,-1
 42 487 l 1,9,-1
 446 487 l 1,10,-1
 446 432 l 1,11,-1
 185 59 l 1,12,-1
 356 59 l 2,13,14
 359 59 359 59 362 61 c 128,-1,15
 365 63 365 63 368 66 c 128,-1,16
 371 69 371 69 373 73 c 128,-1,17
 375 77 375 77 375 80 c 2,18,-1
 388 164 l 1,19,-1
 456 164 l 1,20,-1
 456 -3 l 1,21,-1
 32 0 l 1,0,-1
EndSplineSet
EndChar

StartChar: braceleft
Encoding: 123 123 94
Width: 495
Flags: W
LayerCount: 2
Fore
SplineSet
421 -122 m 1,0,-1
 402 -122 l 2,1,2
 389 -122 389 -122 371.5 -121.5 c 128,-1,3
 354 -121 354 -121 333.5 -119 c 128,-1,4
 313 -117 313 -117 293 -112.5 c 128,-1,5
 273 -108 273 -108 255 -101 c 128,-1,6
 237 -94 237 -94 225 -83 c 0,7,8
 203 -63 203 -63 193 -36 c 128,-1,9
 183 -9 183 -9 180 21 c 128,-1,10
 177 51 177 51 177.5 82 c 128,-1,11
 178 113 178 113 178 141 c 128,-1,12
 178 169 178 169 173.5 192 c 128,-1,13
 169 215 169 215 155 229 c 256,14,15
 141 243 141 243 122 249 c 128,-1,16
 103 255 103 255 86 256 c 0,17,18
 67 257 67 257 47 255 c 1,19,-1
 47 314 l 1,20,21
 67 312 67 312 86 313 c 0,22,23
 103 314 103 314 122 320 c 128,-1,24
 141 326 141 326 155 340 c 256,25,26
 169 354 169 354 173.5 377.5 c 128,-1,27
 178 401 178 401 178 429 c 128,-1,28
 178 457 178 457 177.5 488 c 128,-1,29
 177 519 177 519 180 549 c 128,-1,30
 183 579 183 579 193 606 c 128,-1,31
 203 633 203 633 225 653 c 0,32,33
 237 664 237 664 255 671 c 128,-1,34
 273 678 273 678 293 682.5 c 128,-1,35
 313 687 313 687 333.5 689 c 128,-1,36
 354 691 354 691 371.5 691.5 c 128,-1,37
 389 692 389 692 402 692 c 2,38,-1
 421 692 l 1,39,-1
 421 637 l 1,40,41
 403 637 403 637 386 635 c 0,42,43
 371 633 371 633 355 628 c 128,-1,44
 339 623 339 623 328 612 c 0,45,46
 313 598 313 598 308 576.5 c 128,-1,47
 303 555 303 555 302.5 529.5 c 128,-1,48
 302 504 302 504 302 476.5 c 128,-1,49
 302 449 302 449 299.5 422 c 128,-1,50
 297 395 297 395 288 370.5 c 128,-1,51
 279 346 279 346 259 327 c 0,52,53
 244 312 244 312 227 303.5 c 128,-1,54
 210 295 210 295 195.5 291 c 128,-1,55
 181 287 181 287 170 286 c 0,56,57
 162 286 162 286 158 286 c 1,58,59
 162 286 162 286 170 286 c 0,60,61
 181 285 181 285 195.5 280.5 c 128,-1,62
 210 276 210 276 227 267.5 c 128,-1,63
 244 259 244 259 259 244 c 0,64,65
 279 225 279 225 288 200.5 c 128,-1,66
 297 176 297 176 299.5 149 c 128,-1,67
 302 122 302 122 302 94.5 c 128,-1,68
 302 67 302 67 302.5 42 c 128,-1,69
 303 17 303 17 308 -4.5 c 128,-1,70
 313 -26 313 -26 328 -40 c 0,71,72
 339 -51 339 -51 355 -56 c 128,-1,73
 371 -61 371 -61 386 -63 c 0,74,75
 403 -65 403 -65 421 -65 c 1,76,-1
 421 -122 l 1,0,-1
EndSplineSet
EndChar

StartChar: glyph95
Encoding: 124 124 95
Width: 397
Flags: W
LayerCount: 2
Fore
SplineSet
156 -257 m 1,0,-1
 156 796 l 1,1,-1
 241 796 l 1,2,-1
 241 -257 l 1,3,-1
 156 -257 l 1,0,-1
EndSplineSet
EndChar

StartChar: glyph96
Encoding: 125 125 96
Width: 495
Flags: W
LayerCount: 2
Fore
SplineSet
454 262 m 1,0,1
 434 264 434 264 415 263 c 0,2,3
 398 262 398 262 379 256 c 128,-1,4
 360 250 360 250 346 236 c 0,5,6
 332 221 332 221 327.5 198 c 128,-1,7
 323 175 323 175 322.5 147 c 128,-1,8
 322 119 322 119 322.5 88 c 128,-1,9
 323 57 323 57 320 27 c 128,-1,10
 317 -3 317 -3 307 -30 c 128,-1,11
 297 -57 297 -57 275 -77 c 0,12,13
 263 -88 263 -88 245.5 -95 c 128,-1,14
 228 -102 228 -102 208 -106.5 c 128,-1,15
 188 -111 188 -111 167.5 -113 c 128,-1,16
 147 -115 147 -115 129.5 -115.5 c 128,-1,17
 112 -116 112 -116 99 -116 c 2,18,-1
 80 -116 l 1,19,-1
 80 -61 l 1,20,21
 98 -61 98 -61 115 -59 c 0,22,23
 130 -57 130 -57 146 -52 c 128,-1,24
 162 -47 162 -47 173 -36 c 0,25,26
 188 -22 188 -22 193 -1 c 128,-1,27
 198 20 198 20 198.5 45 c 128,-1,28
 199 70 199 70 199 97.5 c 128,-1,29
 199 125 199 125 201.5 152 c 128,-1,30
 204 179 204 179 213 203.5 c 128,-1,31
 222 228 222 228 242 247 c 0,32,33
 257 261 257 261 273.5 269.5 c 128,-1,34
 290 278 290 278 304.5 282.5 c 128,-1,35
 319 287 319 287 330 288 c 128,-1,36
 341 289 341 289 345 289 c 1,37,38
 342 289 342 289 331.5 289.5 c 128,-1,39
 321 290 321 290 306.5 294 c 128,-1,40
 292 298 292 298 275 306.5 c 128,-1,41
 258 315 258 315 242 330 c 0,42,43
 222 349 222 349 213 373.5 c 128,-1,44
 204 398 204 398 201.5 425 c 128,-1,45
 199 452 199 452 199 479.5 c 128,-1,46
 199 507 199 507 198.5 532.5 c 128,-1,47
 198 558 198 558 193 579 c 128,-1,48
 188 600 188 600 173 614 c 0,49,50
 162 625 162 625 146 630 c 128,-1,51
 130 635 130 635 115 637 c 0,52,53
 98 639 98 639 80 639 c 1,54,-1
 80 694 l 1,55,-1
 99 694 l 2,56,57
 112 694 112 694 129.5 693.5 c 128,-1,58
 147 693 147 693 167.5 691 c 128,-1,59
 188 689 188 689 208 684.5 c 128,-1,60
 228 680 228 680 246 673 c 128,-1,61
 264 666 264 666 276 655 c 0,62,63
 298 635 298 635 308 608 c 128,-1,64
 318 581 318 581 321 551 c 128,-1,65
 324 521 324 521 323.5 490 c 128,-1,66
 323 459 323 459 323.5 431 c 128,-1,67
 324 403 324 403 328.5 379.5 c 128,-1,68
 333 356 333 356 347 342 c 256,69,70
 361 328 361 328 380 322 c 128,-1,71
 399 316 399 316 416 315 c 0,72,73
 435 314 435 314 455 316 c 1,74,-1
 454 262 l 1,0,1
EndSplineSet
EndChar

StartChar: asciitilde
Encoding: 126 126 97
Width: 833
Flags: W
LayerCount: 2
Fore
SplineSet
747 299 m 1,0,1
 717 278 717 278 691 263.5 c 128,-1,2
 665 249 665 249 642 240.5 c 128,-1,3
 619 232 619 232 598 228.5 c 128,-1,4
 577 225 577 225 557 225 c 0,5,6
 521 225 521 225 487 235 c 128,-1,7
 453 245 453 245 419.5 257 c 128,-1,8
 386 269 386 269 351.5 279 c 128,-1,9
 317 289 317 289 281 289 c 0,10,11
 247 289 247 289 201.5 268 c 128,-1,12
 156 247 156 247 94 200 c 1,13,-1
 94 294 l 1,14,15
 150 336 150 336 198.5 353 c 128,-1,16
 247 370 247 370 287 370 c 0,17,18
 315 370 315 370 341.5 364 c 128,-1,19
 368 358 368 358 394 349.5 c 128,-1,20
 420 341 420 341 445.5 331 c 128,-1,21
 471 321 471 321 497 314 c 0,22,23
 512 310 512 310 527.5 307.5 c 128,-1,24
 543 305 543 305 558 305 c 0,25,26
 574 305 574 305 592.5 308.5 c 128,-1,27
 611 312 611 312 634 322 c 128,-1,28
 657 332 657 332 685 349 c 128,-1,29
 713 366 713 366 748 392 c 1,30,-1
 747 299 l 1,0,1
EndSplineSet
EndChar

StartChar: quoteleft
Encoding: 8216 8216 98
Width: 274
Flags: W
LayerCount: 2
Fore
SplineSet
215 657 m 1,0,1
 210 656 210 656 195 647.5 c 128,-1,2
 180 639 180 639 163.5 623 c 128,-1,3
 147 607 147 607 134.5 582 c 128,-1,4
 122 557 122 557 122 523 c 2,5,-1
 122 520 l 2,6,7
 122 519 122 519 122 518 c 256,8,9
 122 517 122 517 122 516 c 1,10,-1
 181 516 l 1,11,12
 186 509 186 509 190 501 c 0,13,14
 193 494 193 494 196 484 c 128,-1,15
 199 474 199 474 199 463 c 0,16,17
 199 446 199 446 193.5 433 c 128,-1,18
 188 420 188 420 178 411 c 128,-1,19
 168 402 168 402 155 397.5 c 128,-1,20
 142 393 142 393 127 393 c 0,21,22
 107 393 107 393 90.5 401 c 128,-1,23
 74 409 74 409 62.5 423 c 128,-1,24
 51 437 51 437 45 456 c 128,-1,25
 39 475 39 475 39 496 c 0,26,27
 39 526 39 526 46 551 c 128,-1,28
 53 576 53 576 64 596 c 128,-1,29
 75 616 75 616 89.5 631.5 c 128,-1,30
 104 647 104 647 119 658 c 0,31,32
 155 685 155 685 200 700 c 1,33,-1
 215 657 l 1,0,1
EndSplineSet
EndChar

StartChar: quoteright
Encoding: 8217 8217 99
Width: 274
Flags: W
LayerCount: 2
Fore
SplineSet
237 590 m 1,0,1
 237 560 237 560 230 535 c 128,-1,2
 223 510 223 510 212 490 c 128,-1,3
 201 470 201 470 186.5 454.5 c 128,-1,4
 172 439 172 439 157 428 c 0,5,6
 121 401 121 401 76 387 c 1,7,-1
 61 425 l 1,8,9
 90 441 90 441 109.5 457 c 128,-1,10
 129 473 129 473 140 489.5 c 128,-1,11
 151 506 151 506 154.5 523.5 c 128,-1,12
 158 541 158 541 156 559 c 1,13,14
 156 559 156 559 156 560 c 128,-1,15
 156 561 156 561 156 562 c 256,16,17
 156 563 156 563 156 565 c 1,18,-1
 98 565 l 1,19,20
 93 571 93 571 89 579 c 0,21,22
 86 586 86 586 83.5 596 c 128,-1,23
 81 606 81 606 81 617 c 0,24,25
 81 632 81 632 85 645 c 128,-1,26
 89 658 89 658 98 667.5 c 128,-1,27
 107 677 107 677 120.5 682 c 128,-1,28
 134 687 134 687 152 687 c 0,29,30
 172 687 172 687 188.5 679 c 128,-1,31
 205 671 205 671 216.5 657.5 c 128,-1,32
 228 644 228 644 234.5 625 c 128,-1,33
 241 606 241 606 237 590 c 1,0,1
EndSplineSet
EndChar

StartChar: quotedblleft
Encoding: 8220 8220 100
Width: 502
Flags: W
LayerCount: 2
Fore
SplineSet
443 657 m 1,0,1
 416 646 416 646 395 628 c 0,2,3
 386 621 386 621 377.5 611 c 128,-1,4
 369 601 369 601 362.5 588.5 c 128,-1,5
 356 576 356 576 352 561 c 128,-1,6
 348 546 348 546 348 529 c 2,7,-1
 348 512 l 1,8,-1
 407 512 l 1,9,10
 412 505 412 505 416 497 c 0,11,12
 419 490 419 490 422 481 c 128,-1,13
 425 472 425 472 425 463 c 0,14,15
 425 446 425 446 419.5 432.5 c 128,-1,16
 414 419 414 419 404.5 409.5 c 128,-1,17
 395 400 395 400 382 395 c 128,-1,18
 369 390 369 390 354 390 c 0,19,20
 332 390 332 390 315.5 399 c 128,-1,21
 299 408 299 408 288 423 c 128,-1,22
 277 438 277 438 272 457.5 c 128,-1,23
 267 477 267 477 267 497 c 0,24,25
 267 525 267 525 274 549 c 128,-1,26
 281 573 281 573 292 592.5 c 128,-1,27
 303 612 303 612 317.5 627 c 128,-1,28
 332 642 332 642 347 653 c 0,29,30
 382 680 382 680 427 696 c 1,31,-1
 443 657 l 1,0,1
219 659 m 1,32,33
 201 649 201 649 183.5 637 c 128,-1,34
 166 625 166 625 153 609.5 c 128,-1,35
 140 594 140 594 132 573.5 c 128,-1,36
 124 553 124 553 124 526 c 0,37,38
 124 520 124 520 124 519 c 256,39,40
 124 518 124 518 124 518 c 1,41,-1
 183 518 l 1,42,43
 188 513 188 513 192 506 c 0,44,45
 195 500 195 500 198 490 c 128,-1,46
 201 480 201 480 201 466 c 0,47,48
 201 433 201 433 181 414 c 128,-1,49
 161 395 161 395 130 395 c 0,50,51
 109 395 109 395 92.5 403.5 c 128,-1,52
 76 412 76 412 65 426 c 128,-1,53
 54 440 54 440 48 458.5 c 128,-1,54
 42 477 42 477 42 497 c 0,55,56
 42 527 42 527 49 552 c 128,-1,57
 56 577 56 577 67 597 c 128,-1,58
 78 617 78 617 92.5 632.5 c 128,-1,59
 107 648 107 648 122 659 c 0,60,61
 157 686 157 686 202 701 c 1,62,-1
 219 659 l 1,32,33
EndSplineSet
EndChar

StartChar: quotedblright
Encoding: 8221 8221 101
Width: 501
Flags: W
LayerCount: 2
Fore
SplineSet
238 584 m 1,0,1
 238 555 238 555 231 531.5 c 128,-1,2
 224 508 224 508 213 488.5 c 128,-1,3
 202 469 202 469 187.5 454 c 128,-1,4
 173 439 173 439 158 428 c 0,5,6
 122 401 122 401 77 386 c 1,7,-1
 61 424 l 1,8,9
 87 435 87 435 107 453 c 0,10,11
 115 460 115 460 123.5 470 c 128,-1,12
 132 480 132 480 138.5 492 c 128,-1,13
 145 504 145 504 149 519 c 128,-1,14
 153 534 153 534 153 551 c 2,15,-1
 153 568 l 1,16,-1
 94 568 l 1,17,18
 89 574 89 574 85 582 c 0,19,20
 82 588 82 588 79.5 597.5 c 128,-1,21
 77 607 77 607 77 616 c 0,22,23
 77 633 77 633 82.5 646.5 c 128,-1,24
 88 660 88 660 97.5 670 c 128,-1,25
 107 680 107 680 120 685 c 128,-1,26
 133 690 133 690 148 690 c 0,27,28
 170 690 170 690 186.5 681 c 128,-1,29
 203 672 203 672 214 657 c 128,-1,30
 225 642 225 642 230 622.5 c 128,-1,31
 235 603 235 603 238 584 c 1,0,1
461 589 m 1,32,33
 461 559 461 559 454 534 c 128,-1,34
 447 509 447 509 436 488.5 c 128,-1,35
 425 468 425 468 410.5 452.5 c 128,-1,36
 396 437 396 437 381 426 c 0,37,38
 345 399 345 399 300 385 c 1,39,-1
 284 422 l 1,40,41
 303 432 303 432 320.5 444 c 128,-1,42
 338 456 338 456 351.5 472 c 128,-1,43
 365 488 365 488 373 508.5 c 128,-1,44
 381 529 381 529 381 556 c 0,45,46
 381 558 381 558 381 559.5 c 128,-1,47
 381 561 381 561 381 562 c 256,48,49
 381 563 381 563 381 563 c 1,50,-1
 321 563 l 1,51,52
 316 567 316 567 312 575 c 0,53,54
 309 581 309 581 306.5 591.5 c 128,-1,55
 304 602 304 602 304 616 c 0,56,57
 304 632 304 632 309.5 644.5 c 128,-1,58
 315 657 315 657 324.5 666 c 128,-1,59
 334 675 334 675 347 679.5 c 128,-1,60
 360 684 360 684 375 684 c 0,61,62
 396 684 396 684 412.5 675.5 c 128,-1,63
 429 667 429 667 440 653 c 128,-1,64
 451 639 451 639 457 620.5 c 128,-1,65
 463 602 463 602 461 589 c 1,32,33
EndSplineSet
EndChar

StartChar: u0A81
Encoding: 2689 2689 102
Width: 11
Flags: W
AnchorPoint: "a" -196 511 mark 0
LayerCount: 2
Fore
SplineSet
-122 701 m 1,0,-1
 -177 650 l 1,1,-1
 -231 702 l 1,2,-1
 -176 752 l 1,3,-1
 -122 701 l 1,0,-1
-41 616 m 1,4,5
 -67 580 -67 580 -108 561 c 128,-1,6
 -149 542 -149 542 -195 542 c 0,7,8
 -261 542 -261 542 -297.5 571.5 c 128,-1,9
 -334 601 -334 601 -334 642 c 0,10,11
 -334 693 -334 693 -279 721 c 1,12,-1
 -217 663 l 1,13,14
 -236 657 -236 657 -248.5 641.5 c 128,-1,15
 -261 626 -261 626 -261 610 c 0,16,17
 -261 587 -261 587 -235 587 c 0,18,19
 -181 587 -181 587 -141 625 c 0,20,21
 -107 658 -107 658 -96 706 c 1,22,-1
 -41 616 l 1,4,5
EndSplineSet
EndChar

StartChar: u0A82
Encoding: 2690 2690 103
Width: 11
Flags: W
AnchorPoint: "a" -156 511 basechar 0
LayerCount: 2
Fore
SplineSet
-102 591 m 1,0,-1
 -156 547 l 1,1,-1
 -207 591 l 1,2,-1
 -156 635 l 1,3,-1
 -102 591 l 1,0,-1
EndSplineSet
EndChar

StartChar: u0A83
Encoding: 2691 2691 104
Width: 279
Flags: W
LayerCount: 2
Fore
SplineSet
154 236 m 0,0,1
 154 215 154 215 137.5 203 c 128,-1,2
 121 191 121 191 103 191 c 0,3,4
 86 191 86 191 73 201 c 0,5,6
 56 214 56 214 56 236 c 0,7,8
 56 257 56 257 69.5 270.5 c 128,-1,9
 83 284 83 284 103 284 c 0,10,11
 124 284 124 284 139 270 c 128,-1,12
 154 256 154 256 154 236 c 0,0,1
154 39 m 0,13,14
 154 18 154 18 137.5 6 c 128,-1,15
 121 -6 121 -6 103 -6 c 0,16,17
 87 -6 87 -6 71.5 6 c 128,-1,18
 56 18 56 18 56 39 c 0,19,20
 56 59 56 59 69.5 72.5 c 128,-1,21
 83 86 83 86 103 86 c 0,22,23
 124 86 124 86 139 72 c 128,-1,24
 154 58 154 58 154 39 c 0,13,14
EndSplineSet
EndChar

StartChar: u0A85
Encoding: 2693 2693 105
Width: 715
Flags: W
LayerCount: 2
Fore
SplineSet
626 31 m 1,0,1
 610 15 610 15 590 6.5 c 128,-1,2
 570 -2 570 -2 551 -2 c 0,3,4
 514 -2 514 -2 487.5 23 c 128,-1,5
 461 48 461 48 461 84 c 2,6,-1
 461 217 l 1,7,8
 423 217 423 217 393 238 c 1,9,-1
 392 158 l 1,10,11
 385 128 385 128 346 101 c 0,12,13
 299 68 299 68 241 68 c 0,14,15
 182 68 182 68 132 115 c 0,16,17
 91 154 91 154 66 213 c 1,18,19
 32 221 32 221 12.5 243.5 c 128,-1,20
 -7 266 -7 266 -7 295 c 0,21,22
 -7 306 -7 306 -3.5 319.5 c 128,-1,23
 0 333 0 333 11.5 338.5 c 128,-1,24
 23 344 23 344 38 344 c 0,25,26
 47 344 47 344 59.5 341.5 c 128,-1,27
 72 339 72 339 87 319 c 128,-1,28
 102 299 102 299 107 278 c 1,29,30
 153 278 153 278 188 302 c 0,31,32
 228 330 228 330 228 378 c 0,33,34
 228 394 228 394 226 405 c 128,-1,35
 224 416 224 416 216 434 c 1,36,-1
 69 434 l 1,37,-1
 32 500 l 1,38,-1
 192 500 l 1,39,40
 230 485 230 485 252.5 445 c 128,-1,41
 275 405 275 405 275 358 c 0,42,43
 275 296 275 296 238 257 c 0,44,45
 195 212 195 212 114 212 c 1,46,47
 120 183 120 183 152.5 157.5 c 128,-1,48
 185 132 185 132 216 132 c 0,49,50
 263 132 263 132 291.5 151.5 c 128,-1,51
 320 171 320 171 324 195 c 1,52,-1
 324 442 l 1,53,-1
 392 372 l 1,54,-1
 392 290 l 1,55,56
 402 283 402 283 414 283 c 0,57,58
 427 283 427 283 437 288 c 128,-1,59
 447 293 447 293 460 304 c 1,60,-1
 460 510 l 1,61,-1
 527 440 l 1,62,-1
 527 55 l 1,63,64
 530 52 530 52 534 50 c 1,65,66
 550 61 550 61 563 99 c 1,67,-1
 626 31 l 1,0,1
EndSplineSet
EndChar

StartChar: u0A87
Encoding: 2695 2695 107
Width: 430
Flags: W
LayerCount: 2
Fore
SplineSet
300 242 m 0,0,1
 300 281 300 281 280 353 c 0,2,3
 253 446 253 446 226 538 c 1,4,5
 225 545 225 545 224.5 553.5 c 128,-1,6
 224 562 224 562 224 566 c 0,7,8
 224 607 224 607 241.5 634.5 c 128,-1,9
 259 662 259 662 297 659 c 1,10,-1
 297 592 l 1,11,12
 265 587 265 587 265 570 c 0,13,14
 265 539 265 539 286 466 c 0,15,16
 321 344 321 344 325 327 c 0,17,18
 346 243 346 243 346 185 c 0,19,20
 346 137 346 137 333 101 c 128,-1,21
 320 65 320 65 289 40 c 1,22,23
 235 1 235 1 171 1 c 0,24,25
 98 1 98 1 48 50 c 0,26,27
 -6 103 -6 103 -6 193 c 0,28,29
 -6 274 -6 274 59 314 c 1,30,31
 -6 394 -6 394 -6 450 c 0,32,33
 -6 512 -6 512 73 512 c 2,34,-1
 160 512 l 1,35,-1
 180 446 l 1,36,-1
 67 446 l 1,37,38
 57 432 57 432 57 413 c 0,39,40
 57 392 57 392 69 370.5 c 128,-1,41
 81 349 81 349 98 335 c 1,42,43
 110 340 110 340 127.5 342 c 128,-1,44
 145 344 145 344 163 344 c 2,45,-1
 200 344 l 1,46,-1
 210 272 l 1,47,48
 124 272 124 272 80 239 c 0,49,50
 42 210 42 210 42 164 c 0,51,52
 42 122 42 122 74 90 c 128,-1,53
 106 58 106 58 154 58 c 0,54,55
 179 58 179 58 203 66.5 c 128,-1,56
 227 75 227 75 253 96 c 1,57,58
 282 122 282 122 293 165 c 0,59,60
 300 193 300 193 300 242 c 0,0,1
EndSplineSet
EndChar

StartChar: u0A87.abvm
Encoding: 65539 -1 108
Width: 430
Flags: W
LayerCount: 2
Fore
SplineSet
187 612 m 1,0,-1
 133 559 l 1,1,-1
 82 612 l 1,2,-1
 133 665 l 1,3,-1
 187 612 l 1,0,-1
300 241 m 0,4,5
 300 280 300 280 280 352 c 1,6,7
 253 444 253 444 226 535 c 1,8,9
 225 542 225 542 224.5 550.5 c 128,-1,10
 224 559 224 559 224 563 c 0,11,12
 224 603 224 603 240 628 c 0,13,14
 260 658 260 658 297 655 c 1,15,-1
 297 589 l 1,16,17
 265 584 265 584 265 567 c 0,18,19
 265 536 265 536 286 464 c 0,20,21
 321 341 321 341 325 326 c 0,22,23
 346 242 346 242 346 185 c 0,24,25
 346 137 346 137 333 101.5 c 128,-1,26
 320 66 320 66 289 41 c 1,27,28
 235 2 235 2 171 2 c 0,29,30
 98 2 98 2 48 51 c 0,31,32
 -6 104 -6 104 -6 193 c 0,33,34
 -6 273 -6 273 59 313 c 1,35,36
 -6 393 -6 393 -6 447 c 0,37,38
 -6 510 -6 510 73 510 c 2,39,-1
 160 510 l 1,40,-1
 180 443 l 1,41,-1
 67 443 l 1,42,43
 57 429 57 429 57 411 c 0,44,45
 57 389 57 389 68.5 369 c 128,-1,46
 80 349 80 349 98 334 c 1,47,48
 108 338 108 338 125 340 c 128,-1,49
 142 342 142 342 157 342 c 2,50,-1
 200 342 l 1,51,-1
 210 271 l 1,52,53
 124 271 124 271 80 238 c 0,54,55
 42 209 42 209 42 164 c 0,56,57
 42 122 42 122 74 90 c 128,-1,58
 106 58 106 58 154 58 c 0,59,60
 179 58 179 58 202.5 66.5 c 128,-1,61
 226 75 226 75 253 96 c 1,62,63
 282 122 282 122 293 165 c 0,64,65
 300 193 300 193 300 241 c 0,4,5
EndSplineSet
EndChar

StartChar: u0A88
Encoding: 2696 2696 109
Width: 461
Flags: W
LayerCount: 2
Fore
SplineSet
381 549 m 1,0,1
 378 546 378 546 364 537 c 0,2,3
 356 532 356 532 353 529 c 1,4,5
 331 574 331 574 313 588 c 0,6,7
 304 595 304 595 290 595 c 1,8,9
 282 594 282 594 273.5 586.5 c 128,-1,10
 265 579 265 579 265 570 c 0,11,12
 265 539 265 539 286 466 c 0,13,14
 324 333 324 333 325 329 c 0,15,16
 346 245 346 245 346 186 c 0,17,18
 346 138 346 138 333 102 c 128,-1,19
 320 66 320 66 289 41 c 1,20,21
 235 2 235 2 171 2 c 0,22,23
 98 2 98 2 48 51 c 0,24,25
 -6 104 -6 104 -6 194 c 0,26,27
 -6 275 -6 275 59 315 c 1,28,29
 -6 395 -6 395 -6 450 c 0,30,31
 -6 512 -6 512 73 512 c 2,32,-1
 160 512 l 1,33,-1
 180 446 l 1,34,-1
 67 446 l 1,35,36
 57 432 57 432 57 414 c 0,37,38
 57 393 57 393 69 371.5 c 128,-1,39
 81 350 81 350 98 335 c 1,40,41
 110 340 110 340 127.5 342 c 128,-1,42
 145 344 145 344 163 344 c 2,43,-1
 200 344 l 1,44,-1
 210 273 l 1,45,46
 124 273 124 273 80 240 c 0,47,48
 42 211 42 211 42 165 c 0,49,50
 42 123 42 123 74 91 c 128,-1,51
 106 59 106 59 154 59 c 0,52,53
 179 59 179 59 203 67.5 c 128,-1,54
 227 76 227 76 253 97 c 1,55,56
 282 123 282 123 293 166 c 0,57,58
 300 194 300 194 300 243 c 0,59,60
 300 282 300 282 280 354 c 1,61,62
 253 446 253 446 226 538 c 1,63,64
 223 553 223 553 223 568 c 0,65,66
 223 609 223 609 239.5 636.5 c 128,-1,67
 256 664 256 664 289 661 c 1,68,69
 305 661 305 661 313.5 658.5 c 128,-1,70
 322 656 322 656 331 646 c 0,71,72
 361 612 361 612 381 549 c 1,0,1
EndSplineSet
EndChar

StartChar: u0A88.abvm
Encoding: 65540 -1 110
Width: 461
Flags: W
LayerCount: 2
Fore
SplineSet
187 612 m 1,0,-1
 133 559 l 1,1,-1
 82 612 l 1,2,-1
 133 665 l 1,3,-1
 187 612 l 1,0,-1
381 545 m 1,4,5
 367 535 367 535 353 526 c 1,6,7
 332 570 332 570 313 584 c 0,8,9
 304 591 304 591 290 591 c 1,10,11
 282 590 282 590 273.5 582.5 c 128,-1,12
 265 575 265 575 265 567 c 0,13,14
 265 536 265 536 286 464 c 0,15,16
 321 341 321 341 325 326 c 0,17,18
 346 242 346 242 346 185 c 0,19,20
 346 137 346 137 333 101.5 c 128,-1,21
 320 66 320 66 289 41 c 1,22,23
 235 2 235 2 171 2 c 0,24,25
 98 2 98 2 48 51 c 0,26,27
 -6 104 -6 104 -6 193 c 0,28,29
 -6 273 -6 273 59 313 c 1,30,31
 -6 393 -6 393 -6 447 c 0,32,33
 -6 510 -6 510 73 510 c 2,34,-1
 160 510 l 1,35,-1
 180 443 l 1,36,-1
 67 443 l 1,37,38
 57 429 57 429 57 411 c 0,39,40
 57 389 57 389 68.5 369 c 128,-1,41
 80 349 80 349 98 334 c 1,42,43
 108 338 108 338 125 340 c 128,-1,44
 142 342 142 342 157 342 c 2,45,-1
 200 342 l 1,46,-1
 210 271 l 1,47,48
 124 271 124 271 80 238 c 0,49,50
 42 209 42 209 42 164 c 0,51,52
 42 122 42 122 74 90 c 128,-1,53
 106 58 106 58 154 58 c 0,54,55
 179 58 179 58 202.5 66.5 c 128,-1,56
 226 75 226 75 253 96 c 1,57,58
 282 122 282 122 293 165 c 0,59,60
 300 193 300 193 300 241 c 0,61,62
 300 280 300 280 280 352 c 1,63,64
 253 444 253 444 226 535 c 1,65,66
 223 549 223 549 223 565 c 0,67,68
 223 605 223 605 239.5 632.5 c 128,-1,69
 256 660 256 660 289 657 c 1,70,71
 305 657 305 657 313.5 654.5 c 128,-1,72
 322 652 322 652 331 643 c 1,73,74
 361 607 361 607 381 545 c 1,4,5
EndSplineSet
EndChar

StartChar: u0A89
Encoding: 2697 2697 111
Width: 499
Flags: W
LayerCount: 2
Fore
SplineSet
378 393 m 0,0,1
 378 345 378 345 366 318 c 128,-1,2
 354 291 354 291 324 268 c 1,3,4
 383 209 383 209 383 139 c 0,5,6
 383 80 383 80 339.5 40.5 c 128,-1,7
 296 1 296 1 219 1 c 0,8,9
 114 1 114 1 50 112 c 0,10,11
 -6 209 -6 209 -6 339 c 0,12,13
 -6 457 -6 457 45 536 c 0,14,15
 105 630 105 630 217 630 c 0,16,17
 235 630 235 630 245 629 c 0,18,19
 291 624 291 624 323 602 c 0,20,21
 349 584 349 584 374 548 c 1,22,-1
 346 528 l 1,23,24
 331 551 331 551 313.5 563 c 128,-1,25
 296 575 296 575 276.5 578 c 128,-1,26
 257 581 257 581 240 581 c 0,27,28
 152 581 152 581 98 494 c 0,29,30
 50 415 50 415 50 305 c 0,31,32
 50 206 50 206 90 141 c 0,33,34
 135 68 135 68 215 68 c 0,35,36
 270 68 270 68 298.5 96.5 c 128,-1,37
 327 125 327 125 327 165 c 0,38,39
 327 216 327 216 288 246 c 1,40,41
 274 239 274 239 252.5 235 c 128,-1,42
 231 231 231 231 213 231 c 0,43,44
 198 231 198 231 191 232 c 1,45,-1
 177 309 l 1,46,47
 252 309 252 309 292.5 335.5 c 128,-1,48
 333 362 333 362 333 398 c 0,49,50
 333 425 333 425 310 445 c 1,51,-1
 187 445 l 1,52,-1
 168 512 l 1,53,-1
 263 512 l 2,54,55
 304 512 304 512 341 475.5 c 128,-1,56
 378 439 378 439 378 393 c 0,0,1
EndSplineSet
EndChar

StartChar: u0A89.abvm
Encoding: 65541 -1 112
Width: 499
Flags: W
LayerCount: 2
Fore
SplineSet
257 711 m 1,0,-1
 203 659 l 1,1,-1
 152 711 l 1,2,-1
 203 765 l 1,3,-1
 257 711 l 1,0,-1
378 393 m 0,4,5
 378 345 378 345 366.5 318.5 c 128,-1,6
 355 292 355 292 324 268 c 1,7,8
 383 209 383 209 383 140 c 0,9,10
 383 81 383 81 339.5 41.5 c 128,-1,11
 296 2 296 2 219 2 c 0,12,13
 114 2 114 2 50 113 c 0,14,15
 -6 210 -6 210 -6 340 c 0,16,17
 -6 459 -6 459 45 537 c 0,18,19
 105 630 105 630 217 630 c 0,20,21
 235 630 235 630 262.5 627.5 c 128,-1,22
 290 625 290 625 323 602 c 0,23,24
 349 584 349 584 374 548 c 1,25,-1
 346 529 l 1,26,27
 330 553 330 553 313 564.5 c 128,-1,28
 296 576 296 576 276.5 579 c 128,-1,29
 257 582 257 582 241 582 c 0,30,31
 153 582 153 582 99 495 c 0,32,33
 50 415 50 415 50 306 c 0,34,35
 50 207 50 207 90 142 c 0,36,37
 135 69 135 69 215 69 c 0,38,39
 270 69 270 69 298.5 97.5 c 128,-1,40
 327 126 327 126 327 166 c 0,41,42
 327 217 327 217 288 247 c 1,43,44
 275 240 275 240 254 236 c 128,-1,45
 233 232 233 232 215 232 c 0,46,47
 199 232 199 232 191 233 c 1,48,-1
 177 309 l 1,49,50
 252 309 252 309 292.5 335.5 c 128,-1,51
 333 362 333 362 333 398 c 0,52,53
 333 426 333 426 310 446 c 1,54,-1
 187 446 l 1,55,-1
 168 512 l 1,56,-1
 263 512 l 2,57,58
 304 512 304 512 341 475.5 c 128,-1,59
 378 439 378 439 378 393 c 0,4,5
EndSplineSet
EndChar

StartChar: u0A8A
Encoding: 2698 2698 113
Width: 663
Flags: W
LayerCount: 2
Fore
SplineSet
-5 339 m 0,0,1
 -5 463 -5 463 56 555 c 0,2,3
 125 661 125 661 240 661 c 0,4,5
 349 661 349 661 417 591 c 0,6,7
 476 530 476 530 476 454 c 2,8,-1
 476 58 l 1,9,10
 479 55 479 55 483 52 c 1,11,12
 498 63 498 63 510 101 c 1,13,-1
 573 33 l 1,14,15
 560 17 560 17 540 9.5 c 128,-1,16
 520 2 520 2 498 2 c 0,17,18
 481 2 481 2 466 7 c 0,19,20
 407 23 407 23 407 88 c 2,21,-1
 407 508 l 2,22,23
 407 546 407 546 362 576.5 c 128,-1,24
 317 607 317 607 268 607 c 0,25,26
 257 607 257 607 252 606 c 0,27,28
 208 599 208 599 169 570 c 0,29,30
 135 545 135 545 104 502 c 1,31,32
 82 469 82 469 69 415.5 c 128,-1,33
 56 362 56 362 56 306 c 0,34,35
 56 207 56 207 93 143 c 0,36,37
 136 69 136 69 216 69 c 0,38,39
 271 69 271 69 299.5 97.5 c 128,-1,40
 328 126 328 126 328 166 c 0,41,42
 328 190 328 190 317.5 212 c 128,-1,43
 307 234 307 234 289 247 c 1,44,45
 274 240 274 240 256.5 236.5 c 128,-1,46
 239 233 239 233 216 233 c 0,47,48
 200 233 200 233 192 234 c 1,49,-1
 178 310 l 1,50,51
 253 310 253 310 293.5 336.5 c 128,-1,52
 334 363 334 363 334 399 c 0,53,54
 334 427 334 427 311 447 c 1,55,-1
 188 447 l 1,56,-1
 169 513 l 1,57,-1
 264 513 l 2,58,59
 305 513 305 513 342 476.5 c 128,-1,60
 379 440 379 440 379 394 c 0,61,62
 379 346 379 346 367 319 c 128,-1,63
 355 292 355 292 325 269 c 1,64,65
 384 210 384 210 384 140 c 0,66,67
 384 81 384 81 340.5 41.5 c 128,-1,68
 297 2 297 2 220 2 c 0,69,70
 115 2 115 2 51 113 c 0,71,72
 -5 210 -5 210 -5 339 c 0,0,1
EndSplineSet
EndChar

StartChar: u0A8A.abvm
Encoding: 65542 -1 114
Width: 663
Flags: W
LayerCount: 2
Fore
SplineSet
527 631 m 1,0,-1
 474 579 l 1,1,-1
 423 631 l 1,2,-1
 474 685 l 1,3,-1
 527 631 l 1,0,-1
-5 339 m 0,4,5
 -5 462 -5 462 56 554 c 0,6,7
 125 659 125 659 240 659 c 0,8,9
 349 659 349 659 417 589 c 0,10,11
 476 528 476 528 476 452 c 2,12,-1
 476 58 l 1,13,14
 479 55 479 55 483 53 c 1,15,16
 498 63 498 63 510 101 c 1,17,-1
 573 34 l 1,18,19
 560 18 560 18 540 10.5 c 128,-1,20
 520 3 520 3 498 3 c 0,21,22
 481 3 481 3 466 8 c 0,23,24
 407 24 407 24 407 89 c 2,25,-1
 407 506 l 2,26,27
 407 544 407 544 362 574.5 c 128,-1,28
 317 605 317 605 268 605 c 0,29,30
 257 605 257 605 252 604 c 0,31,32
 208 597 208 597 169 569 c 0,33,34
 135 544 135 544 104 500 c 1,35,36
 82 466 82 466 69 414 c 128,-1,37
 56 362 56 362 56 306 c 0,38,39
 56 207 56 207 93 143 c 0,40,41
 135 70 135 70 216 70 c 0,42,43
 271 70 271 70 299.5 98.5 c 128,-1,44
 328 127 328 127 328 166 c 0,45,46
 328 219 328 219 289 247 c 1,47,48
 274 240 274 240 256.5 236.5 c 128,-1,49
 239 233 239 233 216 233 c 0,50,51
 200 233 200 233 192 234 c 1,52,-1
 178 309 l 1,53,54
 253 309 253 309 293.5 335.5 c 128,-1,55
 334 362 334 362 334 398 c 0,56,57
 334 426 334 426 311 446 c 1,58,-1
 188 446 l 1,59,-1
 169 513 l 1,60,-1
 264 513 l 2,61,62
 305 513 305 513 342 476 c 128,-1,63
 379 439 379 439 379 393 c 0,64,65
 379 345 379 345 367.5 318.5 c 128,-1,66
 356 292 356 292 325 269 c 1,67,68
 384 210 384 210 384 141 c 0,69,70
 384 82 384 82 340.5 42.5 c 128,-1,71
 297 3 297 3 220 3 c 0,72,73
 114 3 114 3 51 113 c 0,74,75
 -5 210 -5 210 -5 339 c 0,4,5
EndSplineSet
EndChar

StartChar: u0A8B
Encoding: 2699 2699 115
Width: 741
Flags: W
LayerCount: 2
Fore
SplineSet
632 60 m 0,0,1
 614 26 614 26 569 13 c 0,2,3
 546 6 546 6 484 1 c 1,4,5
 479 7 479 7 469.5 41 c 128,-1,6
 460 75 460 75 452 105 c 1,7,8
 502 85 502 85 536 85 c 0,9,10
 569 85 569 85 585 102 c 128,-1,11
 601 119 601 119 601 146 c 0,12,13
 601 181 601 181 579.5 199.5 c 128,-1,14
 558 218 558 218 526 218 c 0,15,16
 492 218 492 218 462 197 c 1,17,-1
 462 320 l 1,18,-1
 324 233 l 1,19,-1
 324 56 l 1,20,21
 327 53 327 53 331 51 c 1,22,23
 346 61 346 61 358 98 c 1,24,-1
 422 32 l 1,25,26
 409 17 409 17 390 8 c 128,-1,27
 371 -1 371 -1 352 -1 c 0,28,29
 335 -1 335 -1 314 7 c 0,30,31
 285 18 285 18 270 37 c 128,-1,32
 255 56 255 56 255 86 c 2,33,-1
 255 186 l 1,34,-1
 72 68 l 1,35,-1
 33 129 l 1,36,-1
 222 252 l 1,37,-1
 141 382 l 1,38,39
 132 392 132 392 105.5 396.5 c 128,-1,40
 79 401 79 401 51 401 c 0,41,42
 39 401 39 401 31.5 401 c 128,-1,43
 24 401 24 401 19 400 c 1,44,-1
 -8 466 l 1,45,-1
 120 466 l 2,46,47
 146 466 146 466 208 368 c 0,48,49
 232 331 232 331 256 286 c 1,50,-1
 256 511 l 1,51,-1
 323 442 l 1,52,-1
 325 320 l 1,53,-1
 459 407 l 1,54,55
 459 443 459 443 474.5 463.5 c 128,-1,56
 490 484 490 484 513 484 c 0,57,58
 541 484 541 484 560.5 468 c 128,-1,59
 580 452 580 452 580 429 c 0,60,61
 580 407 580 407 564 386.5 c 128,-1,62
 548 366 548 366 512 348 c 1,63,-1
 512 292 l 1,64,65
 540 292 540 292 561 288 c 128,-1,66
 582 284 582 284 600 271 c 0,67,68
 624 253 624 253 636.5 217.5 c 128,-1,69
 649 182 649 182 649 140 c 0,70,71
 649 93 649 93 632 60 c 0,0,1
EndSplineSet
EndChar

StartChar: u0A95
Encoding: 2709 2709 122
Width: 491
Flags: W
AnchorPoint: "a" 35 525.5 basechar 0
LayerCount: 2
Fore
SplineSet
403 320 m 1,0,-1
 310 286 l 1,1,2
 347 260 347 260 367 219.5 c 128,-1,3
 387 179 387 179 387 137 c 0,4,5
 387 79 387 79 352 42 c 0,6,7
 313 1 313 1 241 1 c 0,8,9
 150 1 150 1 88 56 c 0,10,11
 33 105 33 105 -9 207 c 1,12,13
 3 210 3 210 17 217 c 0,14,15
 20 218 20 218 25 222 c 1,16,17
 58 147 58 147 95 113 c 0,18,19
 143 69 143 69 219 69 c 0,20,21
 268 69 268 69 296.5 94.5 c 128,-1,22
 325 120 325 120 325 159 c 0,23,24
 325 188 325 188 308.5 215 c 128,-1,25
 292 242 292 242 258 264 c 1,26,-1
 122 215 l 1,27,-1
 86 276 l 1,28,-1
 182 310 l 1,29,30
 144 339 144 339 125.5 371 c 128,-1,31
 107 403 107 403 107 434 c 0,32,33
 107 472 107 472 134.5 496 c 128,-1,34
 162 520 162 520 209 520 c 0,35,36
 239 520 239 520 277 509 c 1,37,-1
 309 442 l 1,38,39
 276 447 276 447 256 447 c 0,40,41
 217 447 217 447 199 434.5 c 128,-1,42
 181 422 181 422 181 401 c 0,43,44
 181 383 181 383 193.5 363.5 c 128,-1,45
 206 344 206 344 227 328 c 1,46,-1
 368 379 l 1,47,-1
 403 320 l 1,0,-1
EndSplineSet
EndChar

StartChar: u0A95.half
Encoding: 65543 -1 123
Width: 491
Flags: W
LayerCount: 2
Fore
SplineSet
410 279 m 1,0,-1
 318 280 l 1,1,2
 350 254 350 254 368.5 214.5 c 128,-1,3
 387 175 387 175 387 136 c 0,4,5
 387 79 387 79 352 42 c 0,6,7
 313 1 313 1 241 1 c 0,8,9
 150 1 150 1 88 56 c 0,10,11
 33 105 33 105 -9 207 c 1,12,13
 3 210 3 210 17 217 c 0,14,15
 20 218 20 218 25 222 c 1,16,17
 58 147 58 147 95 113 c 0,18,19
 143 69 143 69 219 69 c 0,20,21
 268 69 268 69 296.5 94.5 c 128,-1,22
 325 120 325 120 325 159 c 0,23,24
 325 188 325 188 308.5 215 c 128,-1,25
 292 242 292 242 258 264 c 1,26,-1
 122 215 l 1,27,-1
 86 276 l 1,28,-1
 182 310 l 1,29,30
 144 339 144 339 125.5 371 c 128,-1,31
 107 403 107 403 107 434 c 0,32,33
 107 472 107 472 134.5 496 c 128,-1,34
 162 520 162 520 209 520 c 0,35,36
 239 520 239 520 277 509 c 1,37,-1
 309 442 l 1,38,39
 277 447 277 447 269.5 447 c 128,-1,40
 262 447 262 447 257 447 c 0,41,42
 218 447 218 447 199.5 434.5 c 128,-1,43
 181 422 181 422 181 400 c 0,44,45
 181 362 181 362 230 326 c 1,46,-1
 366 321 l 1,47,-1
 410 279 l 1,0,-1
EndSplineSet
Ligature2: "'half' Half Forms in Gujarati lookup 4 subtable" u0A95 u0ACD
EndChar

StartChar: u0A95.pres
Encoding: 65544 -1 124
Width: 831
Flags: W
LayerCount: 2
Fore
SplineSet
743 320 m 1,0,-1
 650 286 l 1,1,2
 687 260 687 260 707 219.5 c 128,-1,3
 727 179 727 179 727 137 c 0,4,5
 727 79 727 79 692 42 c 0,6,7
 653 1 653 1 581 1 c 0,8,9
 515 1 515 1 467.5 28 c 128,-1,10
 420 55 420 55 384 106 c 1,11,12
 375 60 375 60 339 30.5 c 128,-1,13
 303 1 303 1 242 1 c 0,14,15
 151 1 151 1 89 56 c 0,16,17
 34 105 34 105 -8 207 c 1,18,19
 4 210 4 210 18 217 c 0,20,21
 21 218 21 218 26 222 c 1,22,23
 59 147 59 147 96 113 c 0,24,25
 144 69 144 69 220 69 c 0,26,27
 269 69 269 69 297.5 94.5 c 128,-1,28
 326 120 326 120 326 159 c 0,29,30
 326 188 326 188 309.5 215 c 128,-1,31
 293 242 293 242 259 264 c 1,32,-1
 123 215 l 1,33,-1
 87 276 l 1,34,-1
 183 310 l 1,35,36
 145 339 145 339 126.5 371 c 128,-1,37
 108 403 108 403 108 434 c 0,38,39
 108 472 108 472 135.5 496 c 128,-1,40
 163 520 163 520 210 520 c 0,41,42
 240 520 240 520 278 509 c 1,43,-1
 310 442 l 1,44,45
 277 447 277 447 257 447 c 0,46,47
 218 447 218 447 200 434.5 c 128,-1,48
 182 422 182 422 182 401 c 0,49,50
 182 383 182 383 194.5 363.5 c 128,-1,51
 207 344 207 344 228 328 c 1,52,-1
 369 379 l 1,53,-1
 404 320 l 1,54,-1
 311 286 l 1,55,56
 335 268 335 268 352 245 c 128,-1,57
 369 222 369 222 378 194 c 1,58,59
 409 134 409 134 444 106 c 0,60,61
 490 69 490 69 559 69 c 0,62,63
 608 69 608 69 636.5 94.5 c 128,-1,64
 665 120 665 120 665 159 c 0,65,66
 665 188 665 188 648.5 215 c 128,-1,67
 632 242 632 242 598 264 c 1,68,-1
 463 215 l 1,69,-1
 427 276 l 1,70,-1
 522 310 l 1,71,72
 485 339 485 339 466.5 371 c 128,-1,73
 448 403 448 403 448 434 c 0,74,75
 448 472 448 472 475.5 496 c 128,-1,76
 503 520 503 520 549 520 c 0,77,78
 579 520 579 520 617 509 c 1,79,-1
 649 442 l 1,80,81
 616 447 616 447 596 447 c 0,82,83
 557 447 557 447 539 434.5 c 128,-1,84
 521 422 521 422 521 401 c 0,85,86
 521 383 521 383 533.5 363.5 c 128,-1,87
 546 344 546 344 567 328 c 1,88,-1
 708 379 l 1,89,-1
 743 320 l 1,0,-1
EndSplineSet
Ligature2: "'pres' Pre Base Substitutions in Gujarati lookup 5 subtable" u0A95.half u0A95
EndChar

StartChar: u0A95.vatu
Encoding: 65545 -1 125
Width: 491
Flags: W
LayerCount: 2
Fore
SplineSet
403 320 m 1,0,-1
 310 286 l 1,1,2
 347 260 347 260 367 219.5 c 128,-1,3
 387 179 387 179 387 137 c 0,4,5
 387 79 387 79 352 42 c 0,6,7
 313 1 313 1 241 1 c 0,8,9
 150 1 150 1 88 56 c 0,10,11
 33 105 33 105 -9 207 c 1,12,13
 3 210 3 210 17 217 c 0,14,15
 20 218 20 218 25 222 c 1,16,17
 58 147 58 147 95 113 c 0,18,19
 143 69 143 69 219 69 c 0,20,21
 268 69 268 69 296 95 c 128,-1,22
 324 121 324 121 324 160 c 0,23,24
 324 200 324 200 293 235 c 1,25,-1
 182 101 l 1,26,-1
 133 144 l 1,27,-1
 230 254 l 1,28,-1
 122 215 l 1,29,-1
 86 276 l 1,30,-1
 182 310 l 1,31,32
 144 339 144 339 125.5 371 c 128,-1,33
 107 403 107 403 107 434 c 0,34,35
 107 472 107 472 134.5 496 c 128,-1,36
 162 520 162 520 209 520 c 0,37,38
 239 520 239 520 277 509 c 1,39,-1
 309 442 l 1,40,41
 276 447 276 447 256 447 c 0,42,43
 217 447 217 447 199 434.5 c 128,-1,44
 181 422 181 422 181 401 c 0,45,46
 181 383 181 383 193.5 363.5 c 128,-1,47
 206 344 206 344 227 328 c 1,48,-1
 368 379 l 1,49,-1
 403 320 l 1,0,-1
EndSplineSet
Ligature2: "'vatu' Vattu Variants in Gujarati lookup 3 subtable" u0A95 u0ACD_u0AB0
EndChar

StartChar: u0A96.half
Encoding: 65547 -1 128
Width: 396
Flags: W
LayerCount: 2
Fore
SplineSet
413 232 m 1,0,1
 398 229 398 229 384 229 c 0,2,3
 350 229 350 229 324 249 c 1,4,-1
 324 144 l 2,5,6
 324 101 324 101 294 76.5 c 128,-1,7
 264 52 264 52 220 52 c 0,8,9
 171 52 171 52 137 83 c 0,10,11
 99 118 99 118 99 181 c 2,12,-1
 99 448 l 1,13,14
 96 450 96 450 89 450 c 0,15,16
 80 450 80 450 68 437 c 0,17,18
 53 419 53 419 45 410 c 1,19,-1
 -10 475 l 1,20,21
 8 493 8 493 28 501.5 c 128,-1,22
 48 510 48 510 69 510 c 0,23,24
 86 510 86 510 102 504.5 c 128,-1,25
 118 499 118 499 132 489 c 0,26,27
 150 475 150 475 158.5 448 c 128,-1,28
 167 421 167 421 167 390 c 2,29,-1
 168 127 l 2,30,31
 168 105 168 105 194 105 c 0,32,33
 210 105 210 105 229 114 c 128,-1,34
 248 123 248 123 256 134 c 1,35,-1
 256 469 l 1,36,-1
 323 397 l 1,37,-1
 324 292 l 1,38,39
 328 288 328 288 338 288 c 0,40,41
 354 288 354 288 375.5 300.5 c 128,-1,42
 397 313 397 313 413 337 c 1,43,-1
 413 232 l 1,0,1
EndSplineSet
Ligature2: "'half' Half Forms in Gujarati lookup 4 subtable" u0A96 u0ACD
EndChar

StartChar: u0A97.half
Encoding: 65549 -1 131
Width: 381
Flags: W
LayerCount: 2
Fore
SplineSet
165 80 m 0,0,1
 99 80 99 80 49 131 c 0,2,3
 4 177 4 177 -8 243 c 1,4,-1
 25 251 l 1,5,6
 39 207 39 207 73 181 c 128,-1,7
 107 155 107 155 146 155 c 0,8,9
 201 155 201 155 232 198 c 0,10,11
 260 237 260 237 260 294 c 0,12,13
 260 354 260 354 232 396 c 0,14,15
 201 443 201 443 149 443 c 2,16,-1
 58 443 l 1,17,-1
 21 510 l 1,18,-1
 160 510 l 1,19,20
 222 503 222 503 262 427 c 0,21,22
 299 357 299 357 299 267 c 0,23,24
 299 186 299 186 268 137 c 0,25,26
 232 80 232 80 165 80 c 0,0,1
EndSplineSet
Ligature2: "'half' Half Forms in Gujarati lookup 4 subtable" u0A97 u0ACD
EndChar

StartChar: u0A97_u0AA8.pres
Encoding: 65551 -1 133
Width: 811
Flags: W
LayerCount: 2
Fore
SplineSet
771 32 m 1,0,1
 742 -3 742 -3 701 -3 c 0,2,3
 684 -3 684 -3 663 5 c 0,4,5
 634 16 634 16 619 35 c 128,-1,6
 604 54 604 54 604 84 c 2,7,-1
 604 282 l 1,8,-1
 456 282 l 1,9,10
 456 247 456 247 449 234 c 128,-1,11
 442 221 442 221 423 215 c 1,12,13
 392 211 392 211 357 245 c 128,-1,14
 322 279 322 279 322 313 c 0,15,16
 322 331 322 331 331.5 341 c 128,-1,17
 341 351 341 351 357.5 352 c 128,-1,18
 374 353 374 353 390 354 c 1,19,-1
 604 354 l 1,20,-1
 604 510 l 1,21,-1
 672 440 l 1,22,-1
 673 55 l 1,23,24
 676 52 676 52 680 50 c 1,25,26
 695 60 695 60 707 98 c 1,27,-1
 771 32 l 1,0,1
165 75 m 256,28,29
 98 75 98 75 49 125 c 0,30,31
 4 170 4 170 -8 236 c 1,32,-1
 25 244 l 1,33,34
 39 201 39 201 72.5 175.5 c 128,-1,35
 106 150 106 150 146 150 c 0,36,37
 201 150 201 150 232 192 c 0,38,39
 260 230 260 230 260 287 c 0,40,41
 260 346 260 346 232 388 c 0,42,43
 201 434 201 434 149 434 c 2,44,-1
 58 434 l 1,45,-1
 21 500 l 1,46,-1
 160 500 l 1,47,48
 222 492 222 492 262 417 c 0,49,50
 299 348 299 348 299 260 c 0,51,52
 299 180 299 180 268 131 c 0,53,54
 232 75 232 75 165 75 c 256,28,29
EndSplineSet
Ligature2: "'pres' Pre Base Substitutions in Gujarati lookup 5 subtable" u0A97.half u0AA8
EndChar

StartChar: u0A98.half
Encoding: 65552 -1 135
Width: 292
Flags: W
LayerCount: 2
Fore
SplineSet
306 101 m 1,0,1
 273 72 273 72 233.5 54.5 c 128,-1,2
 194 37 194 37 153 37 c 0,3,4
 144 37 144 37 133.5 38.5 c 128,-1,5
 123 40 123 40 106 44 c 1,6,7
 49 61 49 61 20.5 100.5 c 128,-1,8
 -8 140 -8 140 -8 188 c 0,9,10
 -8 225 -8 225 8 257 c 128,-1,11
 24 289 24 289 53 309 c 1,12,13
 30 337 30 337 21 355 c 0,14,15
 7 381 7 381 7 411 c 0,16,17
 7 424 7 424 10 441 c 0,18,19
 18 477 18 477 66 492 c 0,20,21
 100 503 100 503 154 503 c 0,22,23
 188 503 188 503 196 502.5 c 128,-1,24
 204 502 204 502 209 500 c 1,25,-1
 238 430 l 1,26,27
 203 438 203 438 174 438 c 0,28,29
 128 438 128 438 98.5 422.5 c 128,-1,30
 69 407 69 407 69 381 c 0,31,32
 69 359 69 359 92 333 c 1,33,34
 107 343 107 343 134 351.5 c 128,-1,35
 161 360 161 360 180 360 c 1,36,-1
 205 282 l 1,37,38
 120 260 120 260 79.5 232 c 128,-1,39
 39 204 39 204 39 172 c 0,40,41
 39 135 39 135 93 106 c 0,42,43
 109 98 109 98 128 98 c 0,44,45
 174 98 174 98 225.5 130 c 128,-1,46
 277 162 277 162 291 204 c 1,47,-1
 306 202 l 1,48,-1
 306 101 l 1,0,1
EndSplineSet
Ligature2: "'half' Half Forms in Gujarati lookup 4 subtable" u0A98 u0ACD
EndChar

StartChar: u0A99
Encoding: 2713 2713 137
Width: 457
Flags: W
AnchorPoint: "a" 152 538 basechar 0
LayerCount: 2
Fore
SplineSet
363 349 m 1,0,-1
 315 301 l 1,1,-1
 264 350 l 1,2,-1
 315 397 l 1,3,-1
 363 349 l 1,0,-1
365 143 m 1,4,5
 365 74 365 74 338 40 c 0,6,7
 307 1 307 1 235 1 c 0,8,9
 139 1 139 1 73 74 c 0,10,11
 20 132 20 132 -9 230 c 1,12,-1
 28 238 l 1,13,14
 42 169 42 169 95.5 119 c 128,-1,15
 149 69 149 69 208 69 c 0,16,17
 234 69 234 69 255.5 79.5 c 128,-1,18
 277 90 277 90 294 115 c 0,19,20
 308 135 308 135 308 155 c 0,21,22
 308 197 308 197 243 251 c 1,23,24
 182 296 182 296 122 341 c 1,25,26
 56 393 56 393 56 428 c 0,27,28
 56 479 56 479 81 501.5 c 128,-1,29
 106 524 106 524 150 524 c 0,30,31
 202 524 202 524 287 491 c 1,32,-1
 277 420 l 1,33,34
 206 447 206 447 179 447 c 0,35,36
 149 447 149 447 136 417 c 0,37,38
 133 409 133 409 133 402 c 0,39,40
 133 374 133 374 192 332 c 0,41,42
 295 259 295 259 303 252 c 0,43,44
 364 198 364 198 365 143 c 1,4,5
EndSplineSet
EndChar

StartChar: u0A9A.half
Encoding: 65554 -1 139
Width: 358
Flags: W
LayerCount: 2
Fore
SplineSet
376 236 m 1,0,-1
 376 137 l 1,1,2
 350 108 350 108 313.5 90 c 128,-1,3
 277 72 277 72 236 72 c 0,4,5
 223 72 223 72 209 75 c 0,6,7
 164 85 164 85 124 130 c 0,8,9
 93 166 93 166 71 218 c 1,10,11
 37 227 37 227 16 249 c 128,-1,12
 -5 271 -5 271 -5 302 c 0,13,14
 -5 317 -5 317 1 332 c 128,-1,15
 7 347 7 347 19 352.5 c 128,-1,16
 31 358 31 358 46 358 c 0,17,18
 50 358 50 358 55 358 c 1,19,20
 59 356 59 356 67.5 354.5 c 128,-1,21
 76 353 76 353 90 329 c 0,22,23
 100 311 100 311 106 286 c 1,24,25
 151 286 151 286 188 311 c 0,26,27
 231 340 231 340 231 386 c 0,28,29
 231 414 231 414 216 443 c 1,30,-1
 74 443 l 1,31,-1
 37 510 l 1,32,-1
 197 510 l 1,33,34
 235 494 235 494 257.5 453 c 128,-1,35
 280 412 280 412 280 361 c 0,36,37
 280 295 280 295 238 257 c 0,38,39
 214 236 214 236 184 227 c 128,-1,40
 154 218 154 218 123 218 c 1,41,42
 134 189 134 189 161.5 167.5 c 128,-1,43
 189 146 189 146 221 146 c 0,44,45
 260 146 260 146 302.5 174 c 128,-1,46
 345 202 345 202 360 239 c 1,47,-1
 376 236 l 1,0,-1
EndSplineSet
Ligature2: "'half' Half Forms in Gujarati lookup 4 subtable" u0A9A u0ACD
EndChar

StartChar: u0A9B
Encoding: 2715 2715 141
Width: 521
Flags: W
AnchorPoint: "a" 298 528 basechar 0
LayerCount: 2
Fore
SplineSet
416 355 m 1,0,1
 428 305 428 305 428 259 c 0,2,3
 428 146 428 146 365 77 c 0,4,5
 296 1 296 1 168 1 c 0,6,7
 87 1 87 1 40.5 52.5 c 128,-1,8
 -6 104 -6 104 -6 192 c 0,9,10
 -6 269 -6 269 53 311 c 1,11,12
 31 337 31 337 18 359 c 0,13,14
 0 389 0 389 -5 416 c 0,15,16
 -6 425 -6 425 -6 429 c 0,17,18
 -6 491 -6 491 52 509 c 1,19,-1
 151 509 l 1,20,-1
 176 442 l 1,21,-1
 65 442 l 1,22,23
 50 433 50 433 50 413 c 256,24,25
 50 393 50 393 62 370.5 c 128,-1,26
 74 348 74 348 93 335 c 1,27,28
 105 343 105 343 128.5 351 c 128,-1,29
 152 359 152 359 172 361 c 1,30,-1
 197 280 l 1,31,32
 122 262 122 262 83 226 c 0,33,34
 50 195 50 195 50 158 c 0,35,36
 50 120 50 120 82.5 91 c 128,-1,37
 115 62 115 62 159 62 c 0,38,39
 176 62 176 62 196 68 c 0,40,41
 251 85 251 85 300 122 c 0,42,43
 359 167 359 167 373 218 c 1,44,45
 312 239 312 239 261.5 304.5 c 128,-1,46
 211 370 211 370 211 428 c 0,47,48
 211 458 211 458 226 478.5 c 128,-1,49
 241 499 241 499 276 507 c 0,50,51
 282 509 282 509 292 509 c 0,52,53
 334 509 334 509 372 453 c 0,54,55
 401 411 401 411 416 355 c 1,0,1
381 258 m 0,56,57
 400 254 400 254 400 278 c 0,58,59
 400 317 400 317 366 372 c 0,60,61
 329 432 329 432 297 432 c 0,62,63
 290 432 290 432 284 429 c 0,64,65
 265 419 265 419 265 396 c 0,66,67
 265 360 265 360 305 313 c 128,-1,68
 345 266 345 266 381 258 c 0,56,57
EndSplineSet
EndChar

StartChar: u0A9C
Encoding: 2716 2716 142
Width: 498
Flags: W
AnchorPoint: "a" 512 536 basechar 0
LayerCount: 2
Fore
SplineSet
549 466 m 1,0,-1
 362 237 l 1,1,2
 377 195 377 195 377 144 c 0,3,4
 377 82 377 82 356 45 c 0,5,6
 331 1 331 1 283 1 c 0,7,8
 226 1 226 1 200 31 c 0,9,10
 179 56 179 56 179 94 c 0,11,12
 179 113 179 113 183 127.5 c 128,-1,13
 187 142 187 142 192 149 c 2,14,-1
 297 272 l 1,15,16
 271 334 271 334 246 366 c 0,17,18
 226 392 226 392 202 405 c 1,19,20
 208 385 208 385 208 365 c 0,21,22
 208 330 208 330 190 301 c 128,-1,23
 172 272 172 272 148 263 c 0,24,25
 140 259 140 259 128 257 c 128,-1,26
 116 255 116 255 107 255 c 0,27,28
 65 255 65 255 35 287.5 c 128,-1,29
 5 320 5 320 -3 365 c 0,30,31
 -6 379 -6 379 -6 391 c 0,32,33
 -6 434 -6 434 20 467 c 128,-1,34
 46 500 46 500 90 506 c 0,35,36
 97 507 97 507 112 507 c 0,37,38
 180 507 180 507 241 442 c 0,39,40
 281 399 281 399 330 309 c 1,41,-1
 495 510 l 1,42,-1
 549 466 l 1,0,-1
146 429 m 0,43,44
 136 436 136 436 122 436 c 0,45,46
 98 436 98 436 75 414 c 128,-1,47
 52 392 52 392 52 366 c 0,48,49
 52 344 52 344 70 330 c 0,50,51
 83 320 83 320 98 320 c 0,52,53
 123 320 123 320 142.5 344.5 c 128,-1,54
 162 369 162 369 162 396 c 0,55,56
 162 417 162 417 146 429 c 0,43,44
326 199 m 1,57,58
 317 188 317 188 269 133 c 0,59,60
 238 97 238 97 234 94 c 1,61,62
 231 76 231 76 240 67 c 128,-1,63
 249 58 249 58 265 58 c 0,64,65
 278 58 278 58 287 64 c 0,66,67
 312 81 312 81 322 104.5 c 128,-1,68
 332 128 332 128 332 156 c 0,69,70
 332 167 332 167 330 179.5 c 128,-1,71
 328 192 328 192 326 199 c 1,57,58
EndSplineSet
EndChar

StartChar: u0A9C.half
Encoding: 65556 -1 143
Width: 471
Flags: W
LayerCount: 2
Fore
SplineSet
461 355 m 1,0,-1
 361 238 l 1,1,2
 376 196 376 196 376 145 c 0,3,4
 376 83 376 83 355 45 c 0,5,6
 330 1 330 1 282 1 c 0,7,8
 225 1 225 1 199 31 c 0,9,10
 178 56 178 56 178 95 c 0,11,12
 178 114 178 114 182 128.5 c 128,-1,13
 186 143 186 143 191 150 c 2,14,-1
 296 274 l 1,15,16
 269 337 269 337 245 368 c 0,17,18
 225 394 225 394 201 407 c 1,19,20
 207 387 207 387 207 367 c 0,21,22
 207 332 207 332 189.5 303 c 128,-1,23
 172 274 172 274 147 264 c 0,24,25
 139 260 139 260 127 258 c 128,-1,26
 115 256 115 256 106 256 c 0,27,28
 64 256 64 256 34 288.5 c 128,-1,29
 4 321 4 321 -4 367 c 0,30,31
 -7 381 -7 381 -7 393 c 0,32,33
 -7 436 -7 436 19 469 c 128,-1,34
 45 502 45 502 89 509 c 0,35,36
 96 510 96 510 111 510 c 0,37,38
 178 510 178 510 239 445 c 0,39,40
 280 401 280 401 329 311 c 1,41,-1
 407 400 l 1,42,-1
 461 355 l 1,0,-1
145 431 m 0,43,44
 135 438 135 438 121 438 c 0,45,46
 97 438 97 438 74 416 c 128,-1,47
 51 394 51 394 51 368 c 0,48,49
 51 346 51 346 69 332 c 0,50,51
 82 322 82 322 97 322 c 0,52,53
 122 322 122 322 141.5 346.5 c 128,-1,54
 161 371 161 371 161 398 c 0,55,56
 161 419 161 419 145 431 c 0,43,44
325 200 m 1,57,-1
 233 94 l 1,58,59
 230 76 230 76 239 67 c 128,-1,60
 248 58 248 58 264 58 c 0,61,62
 277 58 277 58 286 64 c 0,63,64
 310 80 310 80 322 108 c 0,65,66
 331 130 331 130 331 157 c 0,67,68
 331 168 331 168 329 180.5 c 128,-1,69
 327 193 327 193 325 200 c 1,57,-1
EndSplineSet
Ligature2: "'half' Half Forms in Gujarati lookup 4 subtable" u0A9C u0ACD
EndChar

StartChar: u0A9C.vatu
Encoding: 65557 -1 144
Width: 605
Flags: W
LayerCount: 2
Fore
SplineSet
658 459 m 1,0,-1
 471 238 l 1,1,2
 486 196 486 196 486 145 c 0,3,4
 486 83 486 83 465 45 c 0,5,6
 440 1 440 1 392 1 c 0,7,8
 335 1 335 1 309 31 c 0,9,10
 288 56 288 56 288 95 c 0,11,12
 288 114 288 114 292 128.5 c 128,-1,13
 296 143 296 143 301 150 c 2,14,-1
 406 274 l 1,15,16
 397 294 397 294 371 322 c 1,17,-1
 212 155 l 1,18,-1
 163 197 l 1,19,-1
 320 365 l 1,20,21
 291 387 291 387 260.5 403 c 128,-1,22
 230 419 230 419 205 423 c 1,23,24
 217 396 217 396 217 371 c 0,25,26
 217 334 217 334 196 304.5 c 128,-1,27
 175 275 175 275 148 264 c 0,28,29
 140 260 140 260 128 258 c 128,-1,30
 116 256 116 256 107 256 c 0,31,32
 65 256 65 256 35 288.5 c 128,-1,33
 5 321 5 321 -3 367 c 1,34,35
 -5 372 -5 372 -5 379 c 128,-1,36
 -5 386 -5 386 -5 390 c 0,37,38
 -5 436 -5 436 25.5 472.5 c 128,-1,39
 56 509 56 509 101 509 c 0,40,41
 183 509 183 509 289.5 445 c 128,-1,42
 396 381 396 381 439 311 c 1,43,-1
 604 505 l 1,44,-1
 658 459 l 1,0,-1
435 200 m 1,45,-1
 343 94 l 1,46,47
 340 76 340 76 349 67 c 128,-1,48
 358 58 358 58 374 58 c 0,49,50
 387 58 387 58 396 64 c 0,51,52
 420 80 420 80 432 108 c 0,53,54
 441 130 441 130 441 157 c 0,55,56
 441 168 441 168 439 180.5 c 128,-1,57
 437 193 437 193 435 200 c 1,45,-1
146 431 m 0,58,59
 136 438 136 438 122 438 c 0,60,61
 98 438 98 438 75 416 c 128,-1,62
 52 394 52 394 52 368 c 0,63,64
 52 346 52 346 70 332 c 0,65,66
 83 322 83 322 98 322 c 0,67,68
 123 322 123 322 142.5 346.5 c 128,-1,69
 162 371 162 371 162 398 c 0,70,71
 162 419 162 419 146 431 c 0,58,59
EndSplineSet
Ligature2: "'vatu' Vattu Variants in Gujarati lookup 3 subtable" u0A9C u0ACD_u0AB0
EndChar

StartChar: u0A9C_u0A9E.half
Encoding: 65559 -1 146
Width: 318
Flags: W
LayerCount: 2
Fore
SplineSet
332 313 m 1,0,1
 315 307 315 307 299 307 c 0,2,3
 263 307 263 307 197 339 c 128,-1,4
 131 371 131 371 108 371 c 0,5,6
 90 371 90 371 79 361 c 1,7,8
 65 346 65 346 65 335 c 0,9,10
 65 321 65 321 165 284 c 128,-1,11
 265 247 265 247 265 168 c 0,12,13
 265 111 265 111 237 66 c 0,14,15
 204 13 204 13 146 0 c 1,16,17
 158 -17 158 -17 175 -27.5 c 128,-1,18
 192 -38 192 -38 213 -38 c 0,19,20
 229 -38 229 -38 242.5 -32.5 c 128,-1,21
 256 -27 256 -27 273 -13 c 1,22,-1
 307 -79 l 1,23,24
 267 -111 267 -111 229 -111 c 0,25,26
 185 -111 185 -111 141 -58 c 0,27,28
 124 -38 124 -38 101 -2 c 1,29,30
 68 1 68 1 46 16 c 128,-1,31
 24 31 24 31 15 50 c 0,32,33
 12 56 12 56 12 64 c 0,34,35
 12 85 12 85 27 102.5 c 128,-1,36
 42 120 42 120 63 120 c 0,37,38
 79 120 79 120 95.5 107 c 128,-1,39
 112 94 112 94 125 65 c 1,40,41
 155 65 155 65 181 87.5 c 128,-1,42
 207 110 207 110 215.5 132 c 128,-1,43
 224 154 224 154 224 172 c 0,44,45
 224 213 224 213 122 247 c 128,-1,46
 20 281 20 281 20 353 c 0,47,48
 20 378 20 378 33 395.5 c 128,-1,49
 46 413 46 413 63 418.5 c 128,-1,50
 80 424 80 424 92 424 c 0,51,52
 109 424 109 424 155 403 c 128,-1,53
 201 382 201 382 246 382 c 0,54,55
 280 382 280 382 330 394 c 1,56,-1
 332 313 l 1,0,1
EndSplineSet
EndChar

StartChar: u0A9C_u0ABE.psts
Encoding: 65560 -1 147
Width: 745
Flags: W
LayerCount: 2
Fore
SplineSet
655 33 m 1,0,1
 626 -2 626 -2 585 -2 c 0,2,3
 568 -2 568 -2 547 6 c 0,4,5
 518 17 518 17 503.5 36 c 128,-1,6
 489 55 489 55 489 86 c 2,7,-1
 489 392 l 1,8,-1
 362 237 l 1,9,10
 377 195 377 195 377 144 c 0,11,12
 377 82 377 82 356 45 c 0,13,14
 331 1 331 1 283 1 c 0,15,16
 226 1 226 1 200 31 c 0,17,18
 179 56 179 56 179 94 c 0,19,20
 179 113 179 113 183 127.5 c 128,-1,21
 187 142 187 142 192 149 c 2,22,-1
 297 272 l 1,23,24
 271 334 271 334 246 366 c 0,25,26
 226 392 226 392 202 405 c 1,27,28
 208 385 208 385 208 365 c 0,29,30
 208 330 208 330 190 301 c 128,-1,31
 172 272 172 272 148 263 c 0,32,33
 140 259 140 259 128 257 c 128,-1,34
 116 255 116 255 107 255 c 0,35,36
 65 255 65 255 35 287.5 c 128,-1,37
 5 320 5 320 -3 365 c 0,38,39
 -6 379 -6 379 -6 391 c 0,40,41
 -6 434 -6 434 20 467 c 128,-1,42
 46 500 46 500 90 506 c 0,43,44
 97 507 97 507 112 507 c 0,45,46
 180 507 180 507 241 442 c 0,47,48
 281 399 281 399 330 309 c 1,49,-1
 496 510 l 1,50,-1
 556 446 l 1,51,-1
 557 56 l 1,52,53
 560 53 560 53 564 51 c 1,54,55
 579 61 579 61 591 99 c 1,56,-1
 655 33 l 1,0,1
146 429 m 0,57,58
 136 436 136 436 122 436 c 0,59,60
 98 436 98 436 75 414 c 128,-1,61
 52 392 52 392 52 366 c 0,62,63
 52 344 52 344 70 330 c 0,64,65
 83 320 83 320 98 320 c 0,66,67
 123 320 123 320 142.5 344.5 c 128,-1,68
 162 369 162 369 162 396 c 0,69,70
 162 417 162 417 146 429 c 0,57,58
326 199 m 1,71,72
 317 188 317 188 269 133 c 0,73,74
 238 97 238 97 234 94 c 1,75,76
 231 76 231 76 240 67 c 128,-1,77
 249 58 249 58 265 58 c 0,78,79
 278 58 278 58 287 64 c 0,80,81
 312 81 312 81 322 104.5 c 128,-1,82
 332 128 332 128 332 156 c 0,83,84
 332 167 332 167 330 179.5 c 128,-1,85
 328 192 328 192 326 199 c 1,71,72
EndSplineSet
Ligature2: "'psts' Post Base Substitutions in Gujarati lookup 7 subtable" u0A9C u0ABE
EndChar

StartChar: u0A9C_u0AC0.psts
Encoding: 65561 -1 148
Width: 668
Flags: W
LayerCount: 2
Fore
SplineSet
523 105 m 1,0,1
 487 50 487 50 426 25 c 0,2,3
 372 2 372 2 298 2 c 0,4,5
 221 2 221 2 152 50 c 0,6,7
 69 108 69 108 -9 247 c 1,8,-1
 24 267 l 1,9,10
 68 190 68 190 129 136 c 0,11,12
 206 69 206 69 283 69 c 0,13,14
 404 69 404 69 467 137 c 0,15,16
 524 199 524 199 524 302 c 0,17,18
 524 352 524 352 512 400 c 0,19,20
 509 412 509 412 494 412 c 0,21,22
 485 412 485 412 481 408 c 0,23,24
 426 356 426 356 371 305 c 1,25,26
 377 294 377 294 380 280 c 128,-1,27
 383 266 383 266 383 256 c 0,28,29
 383 224 383 224 363 203 c 128,-1,30
 343 182 343 182 311 182 c 0,31,32
 283 182 283 182 262 202 c 128,-1,33
 241 222 241 222 241 256 c 0,34,35
 241 277 241 277 256 299 c 0,36,37
 267 314 267 314 291 337 c 1,38,39
 262 377 262 377 254 386 c 0,40,41
 231 413 231 413 207 424 c 1,42,43
 219 392 219 392 219 361 c 0,44,45
 219 329 219 329 206.5 305.5 c 128,-1,46
 194 282 194 282 170 272 c 0,47,48
 161 268 161 268 149 266 c 128,-1,49
 137 264 137 264 127 264 c 0,50,51
 86 264 86 264 57.5 294.5 c 128,-1,52
 29 325 29 325 20 369 c 0,53,54
 17 383 17 383 17 396 c 0,55,56
 17 439 17 439 43 471 c 128,-1,57
 69 503 69 503 114 510 c 0,58,59
 128 512 128 512 135 512 c 0,60,61
 191 512 191 512 244 464 c 0,62,63
 278 433 278 433 324 365 c 1,64,-1
 489 511 l 1,65,-1
 502 511 l 1,66,67
 534 464 534 464 554 401 c 128,-1,68
 574 338 574 338 574 277 c 0,69,70
 574 228 574 228 561.5 185 c 128,-1,71
 549 142 549 142 523 105 c 1,0,1
149 433 m 1,72,73
 141 436 141 436 134 436 c 0,74,75
 111 436 111 436 89.5 410.5 c 128,-1,76
 68 385 68 385 68 359 c 0,77,78
 68 347 68 347 72.5 340 c 128,-1,79
 77 333 77 333 87 329 c 128,-1,80
 97 325 97 325 105 325 c 0,81,82
 129 325 129 325 148 349 c 128,-1,83
 167 373 167 373 167 399 c 0,84,85
 167 423 167 423 149 433 c 1,72,73
EndSplineSet
Ligature2: "'psts' Post Base Substitutions in Gujarati lookup 7 subtable" u0A9C u0AC0
EndChar

StartChar: u0A9D
Encoding: 2717 2717 149
Width: 608
Flags: W
AnchorPoint: "a" 450 526 basechar 0
LayerCount: 2
Fore
SplineSet
494 450 m 1,0,1
 484 415 484 415 470.5 388 c 128,-1,2
 457 361 457 361 436 335 c 1,3,4
 475 305 475 305 494.5 265.5 c 128,-1,5
 514 226 514 226 514 186 c 0,6,7
 514 114 514 114 463 57.5 c 128,-1,8
 412 1 412 1 342 1 c 1,9,-1
 299 81 l 1,10,11
 370 81 370 81 416 116 c 128,-1,12
 462 151 462 151 462 202 c 0,13,14
 462 228 462 228 452.5 248 c 128,-1,15
 443 268 443 268 419 279 c 128,-1,16
 395 290 395 290 366 290 c 0,17,18
 343 290 343 290 325 281.5 c 128,-1,19
 307 273 307 273 297 255 c 1,20,21
 288 197 288 197 259 162 c 0,22,23
 226 122 226 122 175 122 c 0,24,25
 105 122 105 122 54 186 c 0,26,27
 11 240 11 240 -8 322 c 1,28,-1
 28 331 l 1,29,30
 41 280 41 280 62 248 c 0,31,32
 91 205 91 205 130 197 c 0,33,34
 139 195 139 195 155 195 c 0,35,36
 203 195 203 195 230 238 c 0,37,38
 253 275 253 275 253 330 c 0,39,40
 253 393 253 393 226 423 c 0,41,42
 215 436 215 436 179.5 441 c 128,-1,43
 144 446 144 446 101 446 c 0,44,45
 87 446 87 446 79 446 c 128,-1,46
 71 446 71 446 67 445 c 1,47,-1
 31 511 l 1,48,-1
 170 511 l 1,49,50
 221 500 221 500 257 451 c 0,51,52
 288 409 288 409 301 352 c 1,53,54
 322 360 322 360 354 360 c 0,55,56
 365 360 365 360 370 359 c 1,57,58
 388 379 388 379 401.5 415 c 128,-1,59
 415 451 415 451 415 486 c 0,60,61
 415 498 415 498 414 504 c 1,62,63
 433 491 433 491 453 479 c 1,64,65
 466 470 466 470 494 450 c 1,0,1
EndSplineSet
EndChar

StartChar: u0A9D.half
Encoding: 65562 -1 150
Width: 521
Flags: W
LayerCount: 2
Fore
SplineSet
515 185 m 1,0,1
 515 115 515 115 475 66 c 0,2,3
 429 11 429 11 343 1 c 1,4,-1
 300 82 l 1,5,6
 370 82 370 82 416.5 117 c 128,-1,7
 463 152 463 152 463 202 c 0,8,9
 463 228 463 228 452 250 c 0,10,11
 445 266 445 266 420 278 c 128,-1,12
 395 290 395 290 367 290 c 0,13,14
 344 290 344 290 326 281.5 c 128,-1,15
 308 273 308 273 298 255 c 1,16,17
 289 199 289 199 260 163 c 0,18,19
 227 122 227 122 176 122 c 0,20,21
 106 122 106 122 55 186 c 0,22,23
 12 240 12 240 -7 322 c 1,24,-1
 29 330 l 1,25,26
 42 280 42 280 63 248 c 0,27,28
 92 205 92 205 131 197 c 0,29,30
 140 195 140 195 156 195 c 0,31,32
 204 195 204 195 231 238 c 0,33,34
 254 275 254 275 254 330 c 0,35,36
 254 393 254 393 227 423 c 0,37,38
 217 435 217 435 182 440 c 128,-1,39
 147 445 147 445 106 445 c 0,40,41
 90 445 90 445 81.5 445 c 128,-1,42
 73 445 73 445 68 444 c 1,43,-1
 32 510 l 1,44,-1
 171 510 l 1,45,46
 223 499 223 499 259 450 c 0,47,48
 289 409 289 409 302 351 c 1,49,50
 329 360 329 360 355 360 c 0,51,52
 394 360 394 360 431 339 c 128,-1,53
 468 318 468 318 491 275.5 c 128,-1,54
 514 233 514 233 515 185 c 1,0,1
EndSplineSet
Ligature2: "'half' Half Forms in Gujarati lookup 4 subtable" u0A9D u0ACD
EndChar

StartChar: u0A9D.vatu
Encoding: 65563 -1 151
Width: 608
Flags: W
LayerCount: 2
Fore
SplineSet
494 450 m 1,0,1
 484 415 484 415 470.5 388 c 128,-1,2
 457 361 457 361 436 335 c 1,3,4
 475 305 475 305 494.5 265.5 c 128,-1,5
 514 226 514 226 514 186 c 0,6,7
 514 114 514 114 463 57.5 c 128,-1,8
 412 1 412 1 342 1 c 1,9,-1
 299 81 l 1,10,11
 371 81 371 81 416.5 116 c 128,-1,12
 462 151 462 151 462 202 c 0,13,14
 462 215 462 215 457 233 c 1,15,-1
 360 131 l 1,16,-1
 311 173 l 1,17,-1
 407 282 l 1,18,19
 387 289 387 289 363 289 c 0,20,21
 340 289 340 289 323.5 281 c 128,-1,22
 307 273 307 273 297 255 c 1,23,24
 288 197 288 197 259 162 c 0,25,26
 226 122 226 122 175 122 c 0,27,28
 105 122 105 122 54 186 c 0,29,30
 11 240 11 240 -8 322 c 1,31,-1
 28 331 l 1,32,33
 41 280 41 280 62 248 c 0,34,35
 91 205 91 205 130 197 c 0,36,37
 139 195 139 195 155 195 c 0,38,39
 203 195 203 195 230 238 c 0,40,41
 253 275 253 275 253 330 c 0,42,43
 253 393 253 393 226 423 c 0,44,45
 215 436 215 436 179.5 441 c 128,-1,46
 144 446 144 446 101 446 c 0,47,48
 87 446 87 446 79 446 c 128,-1,49
 71 446 71 446 67 445 c 1,50,-1
 31 511 l 1,51,-1
 170 511 l 1,52,53
 221 500 221 500 257 451 c 0,54,55
 288 409 288 409 301 352 c 1,56,57
 322 360 322 360 354 360 c 0,58,59
 365 360 365 360 370 359 c 1,60,61
 388 379 388 379 401.5 415 c 128,-1,62
 415 451 415 451 415 486 c 0,63,64
 415 498 415 498 414 504 c 1,65,66
 433 491 433 491 453 479 c 1,67,68
 466 470 466 470 494 450 c 1,0,1
EndSplineSet
Ligature2: "'vatu' Vattu Variants in Gujarati lookup 3 subtable" u0A9D u0ACD_u0AB0
EndChar

StartChar: u0A9F
Encoding: 2719 2719 153
Width: 430
Flags: W
AnchorPoint: "a" 130 530 basechar 0
LayerCount: 2
Fore
SplineSet
340 79 m 1,0,1
 290 44 290 44 277 36 c 0,2,3
 222 3 222 3 150 3 c 0,4,5
 76 3 76 3 33 63 c 0,6,7
 -6 118 -6 118 -6 201 c 0,8,9
 -6 254 -6 254 50 289 c 0,10,11
 71 302 71 302 158 336 c 0,12,13
 220 360 220 360 228 382 c 0,14,15
 231 390 231 390 231 400 c 0,16,17
 231 414 231 414 226.5 424 c 128,-1,18
 222 434 222 434 210 443 c 1,19,-1
 68 443 l 1,20,-1
 26 510 l 1,21,-1
 188 510 l 1,22,23
 219 503 219 503 241.5 478.5 c 128,-1,24
 264 454 264 454 274 417 c 0,25,26
 280 396 280 396 280 377 c 0,27,28
 280 333 280 333 250 308 c 1,29,30
 226 286 226 286 158 264 c 0,31,32
 42 226 42 226 42 183 c 0,33,34
 42 129 42 129 69.5 102 c 128,-1,35
 97 75 97 75 143 75 c 0,36,37
 224 75 224 75 299 148 c 1,38,-1
 340 79 l 1,0,1
EndSplineSet
EndChar

StartChar: u0A9F.blws
Encoding: 65564 -1 154
Width: 371
Flags: W
LayerCount: 2
Fore
SplineSet
281 0 m 1,0,1
 253 -47 253 -47 208.5 -71 c 128,-1,2
 164 -95 164 -95 116 -95 c 0,3,4
 64 -95 64 -95 28.5 -67 c 128,-1,5
 -7 -39 -7 -39 -7 9 c 0,6,7
 -7 45 -7 45 27 63.5 c 128,-1,8
 61 82 61 82 106 82 c 1,9,10
 118 81 118 81 123 81 c 1,11,-1
 123 99 l 1,12,13
 62 99 62 99 26 150 c 0,14,15
 -6 196 -6 196 -6 260 c 0,16,17
 -6 314 -6 314 87.5 347.5 c 128,-1,18
 181 381 181 381 187 409 c 0,19,20
 190 420 190 420 181.5 433.5 c 128,-1,21
 173 447 173 447 159 447 c 2,22,-1
 50 447 l 1,23,-1
 21 511 l 1,24,-1
 152 511 l 1,25,26
 178 506 178 506 200.5 484 c 128,-1,27
 223 462 223 462 231 434 c 0,28,29
 234 424 234 424 234.5 413 c 128,-1,30
 235 402 235 402 236 396 c 1,31,32
 236 333 236 333 137 301 c 128,-1,33
 38 269 38 269 38 238 c 0,34,35
 38 203 38 203 65 183 c 128,-1,36
 92 163 92 163 127 163 c 0,37,38
 155 163 155 163 185 181.5 c 128,-1,39
 215 200 215 200 241 230 c 1,40,-1
 275 162 l 1,41,42
 256 140 256 140 227 123.5 c 128,-1,43
 198 107 198 107 165 101 c 1,44,-1
 165 35 l 1,45,46
 104 35 104 35 74.5 22 c 128,-1,47
 45 9 45 9 45 -10 c 0,48,49
 45 -24 45 -24 61 -35 c 128,-1,50
 77 -46 77 -46 103 -46 c 0,51,52
 135 -46 135 -46 166 -30 c 0,53,54
 203 -11 203 -11 236 30 c 1,55,-1
 281 0 l 1,0,1
EndSplineSet
Ligature2: "'blws' Below Base Substitutions in Gujarati lookup 6 subtable" u0A9F u0ACD u0A9F
EndChar

StartChar: u0A9F_u0AA0.blws
Encoding: 65565 -1 155
Width: 371
Flags: W
LayerCount: 2
Fore
SplineSet
273 161 m 1,0,1
 237 117 237 117 169 102 c 1,2,-1
 169 89 l 1,3,4
 208 81 208 81 232.5 54.5 c 128,-1,5
 257 28 257 28 257 -6 c 0,6,7
 257 -47 257 -47 224.5 -76.5 c 128,-1,8
 192 -106 192 -106 143 -106 c 0,9,10
 93 -106 93 -106 61 -77 c 128,-1,11
 29 -48 29 -48 29 -6 c 0,12,13
 29 27 29 27 54 54.5 c 128,-1,14
 79 82 79 82 118 89 c 1,15,-1
 118 99 l 1,16,17
 57 105 57 105 25.5 150.5 c 128,-1,18
 -6 196 -6 196 -6 259 c 0,19,20
 -6 315 -6 315 87.5 348 c 128,-1,21
 181 381 181 381 187 408 c 0,22,23
 190 419 190 419 181.5 433 c 128,-1,24
 173 447 173 447 159 447 c 2,25,-1
 50 446 l 1,26,-1
 21 510 l 1,27,-1
 152 510 l 1,28,29
 178 505 178 505 200.5 483 c 128,-1,30
 223 461 223 461 231 433 c 0,31,32
 234 423 234 423 234.5 412 c 128,-1,33
 235 401 235 401 236 395 c 1,34,35
 236 332 236 332 137 301 c 128,-1,36
 38 270 38 270 38 238 c 0,37,38
 38 202 38 202 64.5 182 c 128,-1,39
 91 162 91 162 127 162 c 0,40,41
 154 162 154 162 184.5 181.5 c 128,-1,42
 215 201 215 201 241 231 c 1,43,-1
 273 161 l 1,0,1
191 36 m 0,44,45
 174 48 174 48 152 48 c 0,46,47
 122 48 122 48 96.5 31.5 c 128,-1,48
 71 15 71 15 71 -7 c 0,49,50
 71 -23 71 -23 89 -38 c 128,-1,51
 107 -53 107 -53 130 -53 c 0,52,53
 158 -53 158 -53 181 -33 c 128,-1,54
 204 -13 204 -13 204 10 c 0,55,56
 204 26 204 26 191 36 c 0,44,45
EndSplineSet
Ligature2: "'blws' Below Base Substitutions in Gujarati lookup 6 subtable" u0A9F u0ACD u0AA0
EndChar

StartChar: u0AA0
Encoding: 2720 2720 156
Width: 431
Flags: W
AnchorPoint: "a" 174 528 basechar 0
LayerCount: 2
Fore
SplineSet
338 157 m 0,0,1
 338 81 338 81 285 39 c 0,2,3
 237 1 237 1 166 1 c 0,4,5
 94 1 94 1 47 38 c 0,6,7
 -6 80 -6 80 -6 157 c 0,8,9
 -6 219 -6 219 33 261 c 0,10,11
 68 299 68 299 119 309 c 1,12,13
 92 333 92 333 74 368.5 c 128,-1,14
 56 404 56 404 56 437 c 0,15,16
 56 464 56 464 71 483.5 c 128,-1,17
 86 503 86 503 120 510 c 1,18,-1
 251 510 l 1,19,-1
 274 443 l 1,20,-1
 133 443 l 1,21,22
 119 422 119 422 119 404 c 0,23,24
 119 371 119 371 173.5 334 c 128,-1,25
 228 297 228 297 281 262 c 1,26,27
 338 214 338 214 338 157 c 0,0,1
253 229 m 0,28,29
 221 261 221 261 174 261 c 0,30,31
 122 261 122 261 79.5 228.5 c 128,-1,32
 37 196 37 196 37 152 c 0,33,34
 37 134 37 134 44.5 118.5 c 128,-1,35
 52 103 52 103 71 85.5 c 128,-1,36
 90 68 90 68 111 60 c 128,-1,37
 132 52 132 52 155 52 c 0,38,39
 204 52 204 52 242 87 c 128,-1,40
 280 122 280 122 280 166 c 0,41,42
 280 201 280 201 253 229 c 0,28,29
EndSplineSet
EndChar

StartChar: u0AA0.blws
Encoding: 65566 -1 157
Width: 365
Flags: W
LayerCount: 2
Fore
SplineSet
272 224 m 1,0,1
 272 171 272 171 239.5 139.5 c 128,-1,2
 207 108 207 108 159 101 c 1,3,-1
 159 89 l 1,4,5
 198 81 198 81 222.5 54.5 c 128,-1,6
 247 28 247 28 247 -6 c 0,7,8
 247 -47 247 -47 214.5 -76.5 c 128,-1,9
 182 -106 182 -106 133 -106 c 0,10,11
 83 -106 83 -106 51 -77 c 128,-1,12
 19 -48 19 -48 19 -6 c 0,13,14
 19 27 19 27 44 54.5 c 128,-1,15
 69 82 69 82 108 89 c 1,16,-1
 108 101 l 1,17,18
 59 108 59 108 30 137 c 0,19,20
 -5 171 -5 171 -5 225 c 0,21,22
 -5 273 -5 273 23.5 305.5 c 128,-1,23
 52 338 52 338 91 347 c 1,24,25
 66 367 66 367 54.5 391.5 c 128,-1,26
 43 416 43 416 43 442 c 0,27,28
 43 471 43 471 57.5 490.5 c 128,-1,29
 72 510 72 510 97 510 c 2,30,-1
 203 510 l 1,31,-1
 224 444 l 1,32,-1
 112 444 l 1,33,34
 102 425 102 425 102 409 c 0,35,36
 102 383 102 383 218 310 c 0,37,38
 273 275 273 275 273 234 c 1,39,-1
 272 224 l 1,0,1
193 273 m 0,40,41
 174 293 174 293 144 293 c 0,42,43
 107 293 107 293 75.5 267.5 c 128,-1,44
 44 242 44 242 44 211 c 0,45,46
 44 190 44 190 65 170 c 128,-1,47
 86 150 86 150 117 150 c 0,48,49
 153 150 153 150 181 176 c 128,-1,50
 209 202 209 202 209 233 c 0,51,52
 209 256 209 256 193 273 c 0,40,41
181 36 m 0,53,54
 164 48 164 48 142 48 c 0,55,56
 112 48 112 48 86.5 31.5 c 128,-1,57
 61 15 61 15 61 -7 c 0,58,59
 61 -23 61 -23 79 -38 c 128,-1,60
 97 -53 97 -53 120 -53 c 0,61,62
 148 -53 148 -53 171 -33 c 128,-1,63
 194 -13 194 -13 194 10 c 0,64,65
 194 26 194 26 181 36 c 0,53,54
EndSplineSet
Ligature2: "'blws' Below Base Substitutions in Gujarati lookup 6 subtable" u0AA0 u0ACD u0AA0
EndChar

StartChar: u0AA1
Encoding: 2721 2721 158
Width: 494
Flags: W
LayerCount: 2
Fore
SplineSet
402 156 m 0,0,1
 402 93 402 93 357 47 c 128,-1,2
 312 1 312 1 239 1 c 0,3,4
 152 1 152 1 84 76 c 0,5,6
 35 130 35 130 -9 230 c 1,7,-1
 28 242 l 1,8,9
 51 175 51 175 103 127 c 0,10,11
 163 72 163 72 230 72 c 0,12,13
 285 72 285 72 318.5 102.5 c 128,-1,14
 352 133 352 133 352 173 c 0,15,16
 352 244 352 244 277 255 c 1,17,18
 206 262 206 262 136 270 c 1,19,20
 60 294 60 294 60 398 c 0,21,22
 60 434 60 434 80.5 468.5 c 128,-1,23
 101 503 101 503 128 510 c 1,24,-1
 290 510 l 1,25,-1
 309 443 l 1,26,-1
 136 443 l 1,27,28
 123 434 123 434 116.5 416.5 c 128,-1,29
 110 399 110 399 110 387 c 0,30,31
 110 324 110 324 185 314 c 0,32,33
 323 295 323 295 325 294 c 0,34,35
 401 264 401 264 402 156 c 0,0,1
EndSplineSet
EndChar

StartChar: u0AA1.blws
Encoding: 65567 -1 159
Width: 406
Flags: W
LayerCount: 2
Fore
SplineSet
314 224 m 0,0,1
 314 172 314 172 286 138 c 0,2,3
 253 98 253 98 195 98 c 1,4,-1
 184 99 l 1,5,-1
 184 80 l 1,6,7
 190 81 190 81 197 81 c 128,-1,8
 204 81 204 81 208 81 c 0,9,10
 249 81 249 81 273 67 c 0,11,12
 303 49 303 49 303 14 c 0,13,14
 303 -34 303 -34 268 -62 c 128,-1,15
 233 -90 233 -90 182 -90 c 0,16,17
 137 -90 137 -90 93 -66 c 128,-1,18
 49 -42 49 -42 22 5 c 1,19,-1
 65 32 l 1,20,21
 102 -9 102 -9 141 -29 c 0,22,23
 175 -46 175 -46 205 -46 c 0,24,25
 228 -46 228 -46 243 -36 c 128,-1,26
 258 -26 258 -26 258 -12 c 0,27,28
 258 7 258 7 230 20.5 c 128,-1,29
 202 34 202 34 144 34 c 1,30,-1
 144 105 l 1,31,32
 92 123 92 123 51 177 c 1,33,34
 22 217 22 217 -7 282 c 1,35,-1
 26 295 l 1,36,37
 51 235 51 235 84 203 c 0,38,39
 128 160 128 160 186 160 c 0,40,41
 223 160 223 160 246 182 c 128,-1,42
 269 204 269 204 269 235 c 0,43,44
 269 277 269 277 245 291 c 0,45,46
 227 301 227 301 186 301 c 2,47,-1
 158 301 l 2,48,49
 105 301 105 301 83 317 c 0,50,51
 49 342 49 342 49 417 c 1,52,53
 46 444 46 444 64.5 473.5 c 128,-1,54
 83 503 83 503 104 508 c 1,55,-1
 216 508 l 1,56,-1
 252 442 l 1,57,-1
 110 442 l 1,58,59
 96 423 96 423 96 404 c 0,60,61
 96 352 96 352 205.5 345 c 128,-1,62
 315 338 315 338 314 224 c 0,0,1
EndSplineSet
Ligature2: "'blws' Below Base Substitutions in Gujarati lookup 6 subtable" u0AA1 u0ACD u0AA1
EndChar

StartChar: u0AA1_u0AA2.blws
Encoding: 65568 -1 160
Width: 406
Flags: W
LayerCount: 2
Fore
SplineSet
314 224 m 0,0,1
 314 175 314 175 289 140 c 0,2,3
 260 99 260 99 209 99 c 1,4,-1
 209 53 l 1,5,6
 200 47 200 47 156 33 c 0,7,8
 92 13 92 13 92 -25 c 0,9,10
 92 -50 92 -50 107.5 -67.5 c 128,-1,11
 123 -85 123 -85 145 -85 c 0,12,13
 157 -85 157 -85 166 -81 c 1,14,15
 156 -68 156 -68 151.5 -56.5 c 128,-1,16
 147 -45 147 -45 147 -34 c 0,17,18
 147 -9 147 -9 167 7 c 128,-1,19
 187 23 187 23 210 20 c 0,20,21
 257 14 257 14 257 -33 c 0,22,23
 257 -70 257 -70 228 -102 c 0,24,25
 195 -137 195 -137 150 -137 c 0,26,27
 126 -137 126 -137 100 -121.5 c 128,-1,28
 74 -106 74 -106 62 -86.5 c 128,-1,29
 50 -67 50 -67 44 -39 c 0,30,31
 43 -30 43 -30 41 -15 c 1,32,33
 41 27 41 27 85 48 c 1,34,35
 140 66 140 66 160 74 c 1,36,-1
 160 101 l 1,37,-1
 148 105 l 2,38,39
 106 119 106 119 72 153 c 0,40,41
 30 195 30 195 -9 284 c 1,42,-1
 24 297 l 1,43,44
 49 237 49 237 82 205 c 0,45,46
 126 162 126 162 184 162 c 0,47,48
 221 162 221 162 244 184 c 128,-1,49
 267 206 267 206 267 237 c 0,50,51
 267 279 267 279 243 293 c 0,52,53
 225 303 225 303 184 303 c 2,54,-1
 156 303 l 2,55,56
 103 303 103 303 81 319 c 0,57,58
 47 344 47 344 47 419 c 1,59,60
 44 446 44 446 62.5 475.5 c 128,-1,61
 81 505 81 505 102 510 c 1,62,-1
 214 510 l 1,63,-1
 250 444 l 1,64,-1
 108 444 l 1,65,66
 94 425 94 425 94 406 c 0,67,68
 94 354 94 354 203.5 347 c 128,-1,69
 313 340 313 340 314 224 c 0,0,1
219 -28 m 0,70,71
 214 -23 214 -23 206 -23 c 0,72,73
 195 -23 195 -23 192.5 -31 c 128,-1,74
 190 -39 190 -39 190 -47 c 0,75,76
 190 -60 190 -60 196 -66 c 1,77,78
 206 -61 206 -61 214.5 -52.5 c 128,-1,79
 223 -44 223 -44 223 -36 c 0,80,81
 223 -31 223 -31 219 -28 c 0,70,71
EndSplineSet
Ligature2: "'blws' Below Base Substitutions in Gujarati lookup 6 subtable" u0AA1 u0ACD u0AA2
EndChar

StartChar: u0AA2
Encoding: 2722 2722 161
Width: 423
Flags: W
LayerCount: 2
Fore
SplineSet
274 417 m 0,0,1
 277 408 277 408 277.5 398 c 128,-1,2
 278 388 278 388 279 382 c 1,3,4
 279 365 279 365 271 350.5 c 128,-1,5
 263 336 263 336 246.5 321.5 c 128,-1,6
 230 307 230 307 124 259 c 0,7,8
 46 224 46 224 46 183 c 0,9,10
 46 135 46 135 73.5 100.5 c 128,-1,11
 101 66 101 66 142 66 c 0,12,13
 163 66 163 66 188 77 c 1,14,15
 169 100 169 100 159.5 122.5 c 128,-1,16
 150 145 150 145 150 165 c 0,17,18
 150 205 150 205 179 232 c 128,-1,19
 208 259 208 259 246 259 c 0,20,21
 253 259 253 259 257 258 c 0,22,23
 298 253 298 253 318.5 229.5 c 128,-1,24
 339 206 339 206 339 172 c 0,25,26
 339 112 339 112 287 59 c 0,27,28
 230 1 230 1 150 1 c 0,29,30
 106 1 106 1 80 18.5 c 128,-1,31
 54 36 54 36 30 77 c 1,32,33
 10 109 10 109 1 157 c 0,34,35
 -2 173 -2 173 -5 201 c 1,36,37
 -5 265 -5 265 52 300 c 0,38,39
 77 316 77 316 162 341 c 0,40,41
 225 360 225 360 233 382 c 0,42,43
 238 393 238 393 229.5 413.5 c 128,-1,44
 221 434 221 434 211 443 c 1,45,-1
 78 443 l 1,46,-1
 25 510 l 1,47,-1
 189 510 l 1,48,49
 220 503 220 503 242.5 478.5 c 128,-1,50
 265 454 265 454 274 417 c 0,0,1
287 197 m 0,51,52
 279 204 279 204 271 207.5 c 128,-1,53
 263 211 263 211 254 211 c 0,54,55
 241 211 241 211 228.5 203.5 c 128,-1,56
 216 196 216 196 213 188 c 0,57,58
 207 171 207 171 207 152 c 0,59,60
 207 113 207 113 228 93 c 1,61,62
 252 104 252 104 275 129 c 128,-1,63
 298 154 298 154 298 174 c 0,64,65
 298 189 298 189 287 197 c 0,51,52
EndSplineSet
EndChar

StartChar: u0AA3.half
Encoding: 65569 -1 163
Width: 376
Flags: W
LayerCount: 2
Fore
SplineSet
254 403 m 1,0,-1
 152 403 l 1,1,-1
 120 474 l 1,2,-1
 243 474 l 2,3,4
 274 474 274 474 294 430 c 128,-1,5
 314 386 314 386 314 328 c 256,6,7
 314 270 314 270 294 233 c 0,8,9
 271 190 271 190 227 190 c 0,10,11
 189 190 189 190 162 213 c 128,-1,12
 135 236 135 236 115 285 c 1,13,-1
 151 307 l 1,14,15
 165 279 165 279 183.5 267 c 128,-1,16
 202 255 202 255 222 255 c 0,17,18
 245 255 245 255 261 276 c 128,-1,19
 277 297 277 297 277 330 c 0,20,21
 277 367 277 367 254 403 c 1,0,-1
317 -19 m 0,22,23
 310 -39 310 -39 292.5 -49 c 128,-1,24
 275 -59 275 -59 253 -59 c 0,25,26
 225 -59 225 -59 198.5 -48 c 128,-1,27
 172 -37 172 -37 150 -16 c 1,28,-1
 169 13 l 1,29,30
 194 0 194 0 200 -3 c 0,31,32
 222 -13 222 -13 234 -13 c 256,33,34
 246 -13 246 -13 254.5 -5 c 128,-1,35
 263 3 263 3 263 13 c 0,36,37
 263 32 263 32 194 65 c 0,38,39
 95 113 95 113 64 136 c 0,40,41
 -6 188 -6 188 -6 253 c 2,42,-1
 -6 509 l 1,43,-1
 62 441 l 1,44,-1
 63 233 l 2,45,46
 63 195 63 195 129 148 c 1,47,48
 190 108 190 108 252 69 c 1,49,50
 319 24 319 24 319 -7 c 0,51,52
 319 -16 319 -16 317 -19 c 0,22,23
EndSplineSet
Ligature2: "'half' Half Forms in Gujarati lookup 4 subtable" u0AA3 u0ACD
EndChar

StartChar: u0AA3_u0AC1.blws
Encoding: 65570 -1 164
Width: 626
Flags: W
LayerCount: 2
Fore
SplineSet
536 97 m 1,0,1
 523 81 523 81 503 73.5 c 128,-1,2
 483 66 483 66 462 66 c 0,3,4
 444 66 444 66 429 71 c 1,5,6
 399 78 399 78 384.5 98 c 128,-1,7
 370 118 370 118 370 150 c 2,8,-1
 370 510 l 1,9,-1
 439 440 l 1,10,-1
 439 121 l 1,11,12
 442 118 442 118 446 116 c 1,13,14
 461 127 461 127 473 165 c 1,15,-1
 536 97 l 1,0,1
255 403 m 1,16,-1
 153 403 l 1,17,-1
 121 474 l 1,18,-1
 244 474 l 2,19,20
 275 474 275 474 295 430 c 128,-1,21
 315 386 315 386 315 328 c 256,22,23
 315 270 315 270 295 233 c 0,24,25
 272 190 272 190 228 190 c 0,26,27
 190 190 190 190 163 213 c 128,-1,28
 136 236 136 236 116 285 c 1,29,-1
 152 307 l 1,30,31
 166 279 166 279 184.5 267 c 128,-1,32
 203 255 203 255 223 255 c 0,33,34
 246 255 246 255 262 276 c 128,-1,35
 278 297 278 297 278 330 c 0,36,37
 278 367 278 367 255 403 c 1,16,-1
531 19 m 0,38,39
 538 6 538 6 538 -14 c 0,40,41
 538 -36 538 -36 528.5 -54 c 128,-1,42
 519 -72 519 -72 498 -81 c 1,43,44
 481 -87 481 -87 464 -87 c 0,45,46
 427 -87 427 -87 393 -60.5 c 128,-1,47
 359 -34 359 -34 338 6 c 1,48,-1
 361 20 l 1,49,50
 392 -25 392 -25 443 -36 c 1,51,52
 428 -18 428 -18 428 2 c 0,53,54
 428 13 428 13 433.5 24.5 c 128,-1,55
 439 36 439 36 451 43.5 c 128,-1,56
 463 51 463 51 477 51 c 0,57,58
 495 51 495 51 509.5 42 c 128,-1,59
 524 33 524 33 531 19 c 0,38,39
318 -20 m 0,60,61
 311 -40 311 -40 293.5 -50 c 128,-1,62
 276 -60 276 -60 254 -60 c 0,63,64
 226 -60 226 -60 199.5 -49 c 128,-1,65
 173 -38 173 -38 151 -17 c 1,66,-1
 170 12 l 1,67,68
 195 -1 195 -1 201 -4 c 0,69,70
 223 -14 223 -14 235 -14 c 256,71,72
 247 -14 247 -14 255.5 -6 c 128,-1,73
 264 2 264 2 264 12 c 0,74,75
 264 31 264 31 195 64 c 0,76,77
 96 112 96 112 65 135 c 0,78,79
 -5 187 -5 187 -5 252 c 2,80,-1
 -5 508 l 1,81,-1
 63 440 l 1,82,-1
 64 232 l 2,83,84
 64 194 64 194 130 147 c 1,85,86
 191 107 191 107 253 68 c 1,87,88
 320 23 320 23 320 -8 c 0,89,90
 320 -17 320 -17 318 -20 c 0,60,61
506 -10 m 1,91,92
 497 -10 497 -10 488 -10 c 1,93,94
 485 -19 485 -19 482 -28 c 1,95,96
 488 -32 488 -32 498.5 -28 c 128,-1,97
 509 -24 509 -24 506 -10 c 1,91,92
EndSplineSet
Ligature2: "'blws' Below Base Substitutions in Gujarati lookup 6 subtable" u0AA3 u0AC1
EndChar

StartChar: u0AA3_u0AC2.blws
Encoding: 65571 -1 165
Width: 626
Flags: W
LayerCount: 2
Fore
SplineSet
536 97 m 1,0,1
 523 81 523 81 503 73.5 c 128,-1,2
 483 66 483 66 462 66 c 0,3,4
 444 66 444 66 429 71 c 1,5,6
 399 78 399 78 384.5 98 c 128,-1,7
 370 118 370 118 370 150 c 2,8,-1
 370 510 l 1,9,-1
 439 440 l 1,10,-1
 439 121 l 1,11,12
 442 118 442 118 446 116 c 1,13,14
 461 127 461 127 473 165 c 1,15,-1
 536 97 l 1,0,1
255 403 m 1,16,-1
 153 403 l 1,17,-1
 121 474 l 1,18,-1
 244 474 l 2,19,20
 275 474 275 474 295 430 c 128,-1,21
 315 386 315 386 315 328 c 256,22,23
 315 270 315 270 295 233 c 0,24,25
 272 190 272 190 228 190 c 0,26,27
 190 190 190 190 163 213 c 128,-1,28
 136 236 136 236 116 285 c 1,29,-1
 152 307 l 1,30,31
 166 279 166 279 184.5 267 c 128,-1,32
 203 255 203 255 223 255 c 0,33,34
 246 255 246 255 262 276 c 128,-1,35
 278 297 278 297 278 330 c 0,36,37
 278 367 278 367 255 403 c 1,16,-1
574 -50 m 1,38,-1
 551 -64 l 1,39,40
 518 -18 518 -18 469 -9 c 1,41,42
 484 -26 484 -26 484 -46 c 0,43,44
 484 -57 484 -57 480 -66 c 0,45,46
 473 -81 473 -81 461 -88.5 c 128,-1,47
 449 -96 449 -96 435 -96 c 0,48,49
 417 -96 417 -96 402 -87 c 128,-1,50
 387 -78 387 -78 380 -64 c 128,-1,51
 373 -50 373 -50 373 -30 c 0,52,53
 373 -8 373 -8 382.5 10 c 128,-1,54
 392 28 392 28 411.5 35 c 128,-1,55
 431 42 431 42 447 42 c 0,56,57
 485 42 485 42 520 15 c 0,58,59
 551 -9 551 -9 574 -50 c 1,38,-1
318 -19 m 0,60,61
 311 -39 311 -39 293.5 -49 c 128,-1,62
 276 -59 276 -59 254 -59 c 0,63,64
 226 -59 226 -59 199.5 -48 c 128,-1,65
 173 -37 173 -37 151 -16 c 1,66,-1
 170 13 l 1,67,68
 195 0 195 0 201 -3 c 0,69,70
 223 -13 223 -13 235 -13 c 256,71,72
 247 -13 247 -13 255.5 -5 c 128,-1,73
 264 3 264 3 264 13 c 0,74,75
 264 32 264 32 195 65 c 0,76,77
 96 113 96 113 65 136 c 0,78,79
 -5 188 -5 188 -5 253 c 2,80,-1
 -5 509 l 1,81,-1
 63 441 l 1,82,-1
 64 233 l 2,83,84
 64 195 64 195 130 148 c 1,85,86
 191 108 191 108 253 69 c 1,87,88
 320 24 320 24 320 -7 c 0,89,90
 320 -16 320 -16 318 -19 c 0,60,61
430 -20 m 0,91,92
 414 -9 414 -9 409 -9 c 0,93,94
 403 -9 403 -9 403 -19 c 0,95,96
 403 -26 403 -26 406.5 -38 c 128,-1,97
 410 -50 410 -50 421 -50 c 0,98,99
 439 -50 439 -50 439 -34 c 0,100,101
 439 -26 439 -26 430 -20 c 0,91,92
EndSplineSet
Ligature2: "'blws' Below Base Substitutions in Gujarati lookup 6 subtable" u0AA3 u0AC2
EndChar

StartChar: u0AA4.half
Encoding: 65572 -1 167
Width: 277
Flags: W
LayerCount: 2
Fore
SplineSet
289 297 m 1,0,-1
 85 297 l 1,1,2
 68 283 68 283 60 265.5 c 128,-1,3
 52 248 52 248 52 230 c 0,4,5
 52 181 52 181 111 103 c 1,6,7
 152 53 152 53 169 32 c 1,8,-1
 143 7 l 1,9,10
 83 74 83 74 70 90 c 0,11,12
 32 137 32 137 16 175 c 0,13,14
 -5 222 -5 222 -5 276 c 0,15,16
 -5 317 -5 317 16.5 340.5 c 128,-1,17
 38 364 38 364 69 364 c 2,18,-1
 290 364 l 1,19,-1
 289 297 l 1,0,-1
EndSplineSet
Ligature2: "'half' Half Forms in Gujarati lookup 4 subtable" u0AA4 u0ACD
EndChar

StartChar: u0AA4_u0AA8.pres
Encoding: 65575 -1 170
Width: 811
Flags: W
LayerCount: 2
Fore
SplineSet
771 32 m 1,0,1
 742 -3 742 -3 701 -3 c 0,2,3
 684 -3 684 -3 663 5 c 0,4,5
 634 16 634 16 619 35 c 128,-1,6
 604 54 604 54 604 84 c 2,7,-1
 604 282 l 1,8,-1
 456 282 l 1,9,10
 456 247 456 247 449 234 c 128,-1,11
 442 221 442 221 423 215 c 1,12,13
 392 211 392 211 357 245 c 128,-1,14
 322 279 322 279 322 313 c 0,15,16
 322 331 322 331 331.5 341 c 128,-1,17
 341 351 341 351 357.5 352 c 128,-1,18
 374 353 374 353 390 354 c 1,19,-1
 604 354 l 1,20,-1
 604 510 l 1,21,-1
 672 440 l 1,22,-1
 673 55 l 1,23,24
 676 52 676 52 680 50 c 1,25,26
 695 60 695 60 707 98 c 1,27,-1
 771 32 l 1,0,1
290 294 m 1,28,-1
 86 294 l 1,29,30
 69 280 69 280 61 262.5 c 128,-1,31
 53 245 53 245 53 227 c 0,32,33
 53 177 53 177 112 99 c 1,34,35
 153 49 153 49 170 29 c 1,36,-1
 144 3 l 1,37,38
 84 70 84 70 71 86 c 0,39,40
 33 133 33 133 17 171 c 0,41,42
 -4 218 -4 218 -4 273 c 0,43,44
 -4 313 -4 313 17.5 336.5 c 128,-1,45
 39 360 39 360 70 360 c 2,46,-1
 291 360 l 1,47,-1
 290 294 l 1,28,-1
EndSplineSet
Ligature2: "'pres' Pre Base Substitutions in Gujarati lookup 5 subtable" u0AA4.half u0AA8
EndChar

StartChar: u0AA5.half
Encoding: 65576 -1 172
Width: 307
Flags: W
LayerCount: 2
Fore
SplineSet
321 221 m 1,0,-1
 320 124 l 1,1,2
 289 92 289 92 247.5 70 c 128,-1,3
 206 48 206 48 163 48 c 0,4,5
 143 48 143 48 127 52 c 1,6,7
 72 62 72 62 32 105 c 128,-1,8
 -8 148 -8 148 -8 206 c 0,9,10
 -8 244 -8 244 16 269 c 0,11,12
 34 289 34 289 87 315 c 1,13,14
 49 352 49 352 49 398 c 0,15,16
 49 434 49 434 72 462 c 128,-1,17
 95 490 95 490 135 500 c 0,18,19
 146 503 146 503 157 503 c 0,20,21
 200 503 200 503 232.5 469.5 c 128,-1,22
 265 436 265 436 265 392 c 0,23,24
 265 365 265 365 251 341 c 128,-1,25
 237 317 237 317 206 297 c 0,26,27
 186 284 186 284 127 258 c 0,28,29
 38 218 38 218 38 184 c 0,30,31
 38 166 38 166 52.5 147.5 c 128,-1,32
 67 129 67 129 88 120 c 128,-1,33
 109 111 109 111 134 111 c 0,34,35
 185 111 185 111 236 143.5 c 128,-1,36
 287 176 287 176 305 224 c 1,37,-1
 321 221 l 1,0,-1
203 427 m 0,38,39
 199 433 199 433 193 433 c 0,40,41
 175 433 175 433 147.5 394.5 c 128,-1,42
 120 356 120 356 120 337 c 0,43,44
 120 328 120 328 129 331 c 0,45,46
 155 339 155 339 181.5 362.5 c 128,-1,47
 208 386 208 386 208 410 c 0,48,49
 208 417 208 417 203 427 c 0,38,39
EndSplineSet
Ligature2: "'half' Half Forms in Gujarati lookup 4 subtable" u0AA5 u0ACD
EndChar

StartChar: u0AA6
Encoding: 2726 2726 174
Width: 377
Flags: W
LayerCount: 2
Fore
SplineSet
318 59 m 1,0,1
 300 35 300 35 259 18 c 128,-1,2
 218 1 218 1 176 1 c 0,3,4
 100 1 100 1 50 49 c 0,5,6
 -6 102 -6 102 -6 192 c 0,7,8
 -6 273 -6 273 59 313 c 1,9,10
 -6 393 -6 393 -6 447 c 0,11,12
 -6 510 -6 510 73 510 c 2,13,-1
 195 510 l 1,14,-1
 215 443 l 1,15,-1
 67 443 l 1,16,17
 57 429 57 429 57 411 c 0,18,19
 57 390 57 390 69 368.5 c 128,-1,20
 81 347 81 347 98 333 c 1,21,22
 110 338 110 338 127.5 340 c 128,-1,23
 145 342 145 342 163 342 c 2,24,-1
 200 342 l 1,25,-1
 210 271 l 1,26,27
 124 271 124 271 78 239 c 0,28,29
 38 211 38 211 38 168 c 0,30,31
 38 127 38 127 72 95 c 128,-1,32
 106 63 106 63 157 63 c 0,33,34
 173 63 173 63 194 68.5 c 128,-1,35
 215 74 215 74 230 83 c 1,36,37
 229 88 229 88 229 96 c 0,38,39
 229 121 229 121 244 134 c 128,-1,40
 259 147 259 147 280 147 c 0,41,42
 289 147 289 147 297 144 c 0,43,44
 330 135 330 135 330 96 c 0,45,46
 330 77 330 77 318 59 c 1,0,1
EndSplineSet
EndChar

StartChar: u0AA6.half
Encoding: 65578 -1 175
Width: 393
Flags: W
LayerCount: 2
Fore
SplineSet
311 26 m 1,0,-1
 259 0 l 1,1,2
 259 8 259 8 244.5 32.5 c 128,-1,3
 230 57 230 57 219 73 c 1,4,5
 209 68 209 68 194.5 65 c 128,-1,6
 180 62 180 62 169 62 c 0,7,8
 141 62 141 62 99.5 79 c 128,-1,9
 58 96 58 96 36 129.5 c 128,-1,10
 14 163 14 163 14 205 c 0,11,12
 14 261 14 261 56 306 c 1,13,14
 34 332 34 332 23 350 c 0,15,16
 -3 390 -3 390 -3 422 c 0,17,18
 -3 443 -3 443 8 461 c 0,19,20
 23 484 23 484 63 495 c 1,21,22
 113 505 113 505 138 510 c 1,23,-1
 177 445 l 1,24,25
 138 440 138 440 99 436 c 1,26,27
 67 429 67 429 59 405 c 0,28,29
 57 400 57 400 57 390 c 0,30,31
 57 374 57 374 70 358 c 0,32,33
 76 350 76 350 93 336 c 1,34,35
 115 350 115 350 128 357 c 0,36,37
 153 370 153 370 185 374 c 1,38,-1
 226 315 l 1,39,40
 170 300 170 300 132 273 c 0,41,42
 85 240 85 240 75 192 c 0,43,44
 74 187 74 187 74 179 c 0,45,46
 74 149 74 149 101 129 c 0,47,48
 124 112 124 112 152 112 c 0,49,50
 177 112 177 112 182 127 c 1,51,52
 182 161 182 161 201 187 c 128,-1,53
 220 213 220 213 248 213 c 0,54,55
 251 213 251 213 265.5 210 c 128,-1,56
 280 207 280 207 290.5 192 c 128,-1,57
 301 177 301 177 301 157 c 0,58,59
 301 117 301 117 264 92 c 1,60,61
 279 65 279 65 285 56 c 0,62,63
 301 32 301 32 311 26 c 1,0,-1
EndSplineSet
Ligature2: "'half' Half Forms in Gujarati lookup 4 subtable" u0AA6 u0ACD
EndChar

StartChar: u0AA6.vatu
Encoding: 65579 -1 176
Width: 439
Flags: W
LayerCount: 2
Fore
SplineSet
351 50 m 1,0,-1
 308 30 l 1,1,-1
 218 189 l 1,2,-1
 83 72 l 1,3,-1
 55 121 l 1,4,-1
 115 169 l 1,5,6
 71 169 71 169 45.5 186 c 128,-1,7
 20 203 20 203 7 228.5 c 128,-1,8
 -6 254 -6 254 -6 282 c 0,9,10
 -6 341 -6 341 68 369 c 1,11,12
 131 389 131 389 195 410 c 1,13,14
 204 415 204 415 204 421 c 0,15,16
 204 432 204 432 188 444 c 1,17,-1
 53 444 l 1,18,-1
 17 511 l 1,19,-1
 182 511 l 1,20,21
 210 497 210 497 228 472.5 c 128,-1,22
 246 448 246 448 253 419 c 0,23,24
 254 414 254 414 254 406 c 0,25,26
 254 357 254 357 149 326.5 c 128,-1,27
 44 296 44 296 38 270 c 0,28,29
 34 250 34 250 48.5 241 c 128,-1,30
 63 232 63 232 91 232 c 0,31,32
 136 232 136 232 179 248 c 1,33,34
 182 274 182 274 197 294.5 c 128,-1,35
 212 315 212 315 234 315 c 0,36,37
 249 315 249 315 269.5 299 c 128,-1,38
 290 283 290 283 290 260 c 0,39,40
 290 246 290 246 282 233 c 128,-1,41
 274 220 274 220 260 209 c 1,42,-1
 351 50 l 1,0,-1
EndSplineSet
Ligature2: "'vatu' Vattu Variants in Gujarati lookup 3 subtable" u0AA6 u0ACD_u0AB0
EndChar

StartChar: u0AA6_u0AA7.blws
Encoding: 65580 -1 177
Width: 465
Flags: W
LayerCount: 2
Fore
SplineSet
377 48 m 1,0,-1
 330 25 l 1,1,2
 326 39 326 39 324 46 c 0,3,4
 316 68 316 68 307 68 c 1,5,6
 292 39 292 39 262 20 c 128,-1,7
 232 1 232 1 197 1 c 256,8,9
 162 1 162 1 133 15 c 0,10,11
 98 31 98 31 87 64 c 1,12,13
 75 62 75 62 67 62 c 0,14,15
 35 62 35 62 18 80 c 1,16,17
 -6 103 -6 103 -6 128 c 0,18,19
 -6 147 -6 147 6.5 164.5 c 128,-1,20
 19 182 19 182 40 194 c 1,21,-1
 89 153 l 1,22,23
 73 148 73 148 63.5 137.5 c 128,-1,24
 54 127 54 127 54 117 c 0,25,26
 54 93 54 93 84 93 c 1,27,28
 87 115 87 115 100.5 133.5 c 128,-1,29
 114 152 114 152 133 160 c 1,30,31
 136 156 136 156 164 134 c 0,32,33
 173 127 173 127 192 112 c 1,34,35
 169 105 169 105 158.5 93 c 128,-1,36
 148 81 148 81 148 67 c 0,37,38
 148 49 148 49 166 44 c 0,39,40
 192 38 192 38 225.5 72.5 c 128,-1,41
 259 107 259 107 259 142 c 0,42,43
 259 165 259 165 243 180 c 1,44,45
 225 174 225 174 198 169 c 128,-1,46
 171 164 171 164 148 164 c 0,47,48
 92 164 92 164 59 188 c 0,49,50
 20 217 20 217 20 279 c 0,51,52
 20 336 20 336 120 373 c 1,53,54
 187 395 187 395 216 405 c 0,55,56
 229 409 229 409 229 420 c 0,57,58
 229 434 229 434 214 443 c 1,59,-1
 78 443 l 1,60,-1
 43 509 l 1,61,-1
 208 509 l 1,62,63
 236 495 236 495 254 470.5 c 128,-1,64
 272 446 272 446 279 417 c 0,65,66
 280 413 280 413 280 405 c 0,67,68
 280 357 280 357 174 329 c 128,-1,69
 68 301 68 301 68 269 c 0,70,71
 68 246 68 246 82.5 236 c 128,-1,72
 97 226 97 226 124 226 c 0,73,74
 163 226 163 226 203 245 c 1,75,76
 211 306 211 306 254 306 c 0,77,78
 268 306 268 306 288 296 c 0,79,80
 316 282 316 282 316 253 c 0,81,82
 316 222 316 222 289 202 c 1,83,-1
 377 48 l 1,0,-1
EndSplineSet
Ligature2: "'blws' Below Base Substitutions in Gujarati lookup 6 subtable" u0AA6 u0ACD u0AA7
EndChar

StartChar: u0AA6_u0AA8.pres
Encoding: 65581 -1 178
Width: 721
Flags: W
LayerCount: 2
Fore
SplineSet
681 32 m 1,0,1
 652 -3 652 -3 611 -3 c 0,2,3
 594 -3 594 -3 573 5 c 0,4,5
 544 16 544 16 529 35 c 128,-1,6
 514 54 514 54 514 84 c 2,7,-1
 514 282 l 1,8,-1
 366 282 l 1,9,10
 366 247 366 247 359 234 c 128,-1,11
 352 221 352 221 333 215 c 1,12,13
 302 211 302 211 267 245 c 128,-1,14
 232 279 232 279 232 313 c 0,15,16
 232 331 232 331 241.5 341 c 128,-1,17
 251 351 251 351 267.5 352 c 128,-1,18
 284 353 284 353 300 354 c 1,19,-1
 514 354 l 1,20,-1
 514 510 l 1,21,-1
 582 440 l 1,22,-1
 583 55 l 1,23,24
 586 52 586 52 590 50 c 1,25,26
 605 60 605 60 617 98 c 1,27,-1
 681 32 l 1,0,1
307 98 m 1,28,29
 274 70 274 70 234.5 53 c 128,-1,30
 195 36 195 36 155 36 c 0,31,32
 131 36 131 36 107 42 c 0,33,34
 49 59 49 59 21 97 c 128,-1,35
 -7 135 -7 135 -7 183 c 0,36,37
 -7 220 -7 220 9 251.5 c 128,-1,38
 25 283 25 283 54 302 c 1,39,40
 30 332 30 332 22 347 c 0,41,42
 8 373 8 373 8 402 c 0,43,44
 8 415 8 415 11 432 c 0,45,46
 19 467 19 467 67 482 c 0,47,48
 101 493 101 493 155 493 c 0,49,50
 189 493 189 493 197 492.5 c 128,-1,51
 205 492 205 492 210 490 c 1,52,-1
 239 421 l 1,53,54
 204 429 204 429 174 429 c 0,55,56
 129 429 129 429 99.5 413.5 c 128,-1,57
 70 398 70 398 70 373 c 0,58,59
 70 350 70 350 93 326 c 1,60,61
 106 334 106 334 135 343.5 c 128,-1,62
 164 353 164 353 181 353 c 1,63,-1
 206 276 l 1,64,65
 121 255 121 255 80.5 227 c 128,-1,66
 40 199 40 199 40 168 c 0,67,68
 40 132 40 132 94 103 c 0,69,70
 110 95 110 95 130 95 c 0,71,72
 176 95 176 95 227 126 c 128,-1,73
 278 157 278 157 292 199 c 1,74,-1
 307 197 l 1,75,-1
 307 98 l 1,28,29
EndSplineSet
Ligature2: "'pres' Pre Base Substitutions in Gujarati lookup 5 subtable" u0AA6.half u0AA8
EndChar

StartChar: u0AA6_u0AAE.pres
Encoding: 65582 -1 179
Width: 569
Flags: W
LayerCount: 2
Fore
SplineSet
480 32 m 1,0,1
 451 -3 451 -3 410 -3 c 0,2,3
 393 -3 393 -3 372 5 c 0,4,5
 343 16 343 16 328 35 c 128,-1,6
 313 54 313 54 313 84 c 2,7,-1
 313 165 l 1,8,-1
 238 165 l 1,9,10
 236 146 236 146 235 128 c 1,11,12
 230 105 230 105 206 98 c 1,13,14
 175 94 175 94 140 128 c 128,-1,15
 105 162 105 162 105 196 c 0,16,17
 105 214 105 214 116 225 c 0,18,19
 123 232 123 232 133 234 c 128,-1,20
 143 236 143 236 157 236 c 2,21,-1
 173 236 l 1,22,23
 173 301 173 301 123 314 c 1,24,25
 100 318 100 318 77 323 c 1,26,27
 23 341 23 341 22 341 c 0,28,29
 -6 357 -6 357 -6 397 c 0,30,31
 -6 443 -6 443 13 469 c 0,32,33
 35 500 35 500 83 500 c 2,34,-1
 182 500 l 1,35,-1
 213 434 l 1,36,-1
 90 434 l 2,37,38
 64 434 64 434 58 426 c 128,-1,39
 52 418 52 418 52 393 c 0,40,41
 52 378 52 378 67 371 c 0,42,43
 72 369 72 369 99 363 c 1,44,45
 153 355 153 355 181 336 c 0,46,47
 230 304 230 304 230 236 c 1,48,-1
 312 236 l 1,49,-1
 312 510 l 1,50,-1
 381 440 l 1,51,-1
 381 55 l 1,52,53
 384 52 384 52 388 50 c 1,54,55
 403 60 403 60 415 98 c 1,56,-1
 480 32 l 1,0,1
EndSplineSet
Ligature2: "'pres' Pre Base Substitutions in Gujarati lookup 5 subtable" u0AA6.half u0AAE
EndChar

StartChar: u0AA6_u0AAF.pres
Encoding: 65583 -1 180
Width: 553
Flags: W
LayerCount: 2
Fore
SplineSet
458 32 m 1,0,1
 445 16 445 16 425 8.5 c 128,-1,2
 405 1 405 1 382 1 c 0,3,4
 365 1 365 1 350 6 c 0,5,6
 291 22 291 22 291 87 c 1,7,8
 262 65 262 65 226.5 51 c 128,-1,9
 191 37 191 37 155 37 c 0,10,11
 145 37 145 37 133 38.5 c 128,-1,12
 121 40 121 40 107 44 c 0,13,14
 50 61 50 61 22 101 c 128,-1,15
 -6 141 -6 141 -6 190 c 0,16,17
 -6 227 -6 227 10.5 259.5 c 128,-1,18
 27 292 27 292 54 311 c 1,19,20
 30 333 30 333 17 355.5 c 128,-1,21
 4 378 4 378 4 402 c 0,22,23
 4 421 4 421 14 446.5 c 128,-1,24
 24 472 24 472 51.5 481.5 c 128,-1,25
 79 491 79 491 117 491 c 0,26,27
 127 491 127 491 145.5 490 c 128,-1,28
 164 489 164 489 171 489 c 0,29,30
 204 489 204 489 204 503 c 0,31,32
 204 538 204 538 171 553 c 0,33,34
 147 564 147 564 105 564 c 0,35,36
 88 564 88 564 78 563 c 128,-1,37
 68 562 68 562 60 561 c 1,38,-1
 46 629 l 1,39,-1
 123 629 l 2,40,41
 163 629 163 629 200 600 c 0,42,43
 244 566 244 566 244 520 c 0,44,45
 244 443 244 443 155 436 c 128,-1,46
 66 429 66 429 57 394 c 0,47,48
 54 380 54 380 63 363 c 128,-1,49
 72 346 72 346 93 336 c 1,50,51
 107 344 107 344 132 352 c 0,52,53
 164 363 164 363 180 363 c 1,54,-1
 205 284 l 1,55,56
 150 273 150 273 102 245 c 0,57,58
 42 211 42 211 42 174 c 0,59,60
 42 157 42 157 54.5 141 c 128,-1,61
 67 125 67 125 96 109 c 0,62,63
 113 99 113 99 138 99 c 0,64,65
 179 99 179 99 223.5 125.5 c 128,-1,66
 268 152 268 152 291 195 c 1,67,-1
 291 523 l 1,68,-1
 360 453 l 1,69,-1
 360 58 l 1,70,71
 363 55 363 55 367 52 c 1,72,73
 383 63 383 63 394 102 c 1,74,-1
 458 32 l 1,0,1
EndSplineSet
EndChar

StartChar: u0AA6_u0AB5.blws
Encoding: 65584 -1 181
Width: 439
Flags: W
LayerCount: 2
Fore
SplineSet
350 48 m 1,0,-1
 308 26 l 1,1,2
 302 39 302 39 298 46 c 0,3,4
 286 69 286 69 277 71 c 1,5,6
 262 41 262 41 234 21 c 128,-1,7
 206 1 206 1 172 1 c 0,8,9
 136 1 136 1 110 13 c 0,10,11
 77 28 77 28 63 58 c 0,12,13
 58 68 58 68 58 83 c 0,14,15
 58 106 58 106 71.5 128.5 c 128,-1,16
 85 151 85 151 107 160 c 1,17,18
 111 156 111 156 137 136 c 0,19,20
 145 130 145 130 163 117 c 1,21,22
 122 94 122 94 122 68 c 0,23,24
 122 52 122 52 141 46 c 0,25,26
 166 37 166 37 201.5 71.5 c 128,-1,27
 237 106 237 106 237 143 c 0,28,29
 237 167 237 167 221 183 c 1,30,31
 198 177 198 177 171 171.5 c 128,-1,32
 144 166 144 166 115 166 c 0,33,34
 95 166 95 166 77 170 c 128,-1,35
 59 174 59 174 45 183 c 0,36,37
 21 200 21 200 8 225.5 c 128,-1,38
 -5 251 -5 251 -5 279 c 0,39,40
 -5 338 -5 338 69 366 c 1,41,42
 132 386 132 386 196 407 c 1,43,44
 205 412 205 412 205 419 c 0,45,46
 205 428 205 428 189 442 c 1,47,-1
 54 442 l 1,48,-1
 18 509 l 1,49,-1
 183 509 l 1,50,51
 211 495 211 495 229 470.5 c 128,-1,52
 247 446 247 446 254 417 c 0,53,54
 255 412 255 412 255 404 c 0,55,56
 255 355 255 355 150 323.5 c 128,-1,57
 45 292 45 292 39 267 c 0,58,59
 35 247 35 247 50.5 237.5 c 128,-1,60
 66 228 66 228 93 228 c 0,61,62
 114 228 114 228 137.5 233 c 128,-1,63
 161 238 161 238 180 245 c 1,64,65
 183 271 183 271 198 291.5 c 128,-1,66
 213 312 213 312 235 312 c 0,67,68
 250 312 250 312 270.5 296 c 128,-1,69
 291 280 291 280 291 257 c 0,70,71
 291 243 291 243 283.5 230 c 128,-1,72
 276 217 276 217 261 205 c 1,73,-1
 350 48 l 1,0,-1
EndSplineSet
Ligature2: "'blws' Below Base Substitutions in Gujarati lookup 6 subtable" u0AA6 u0ACD u0AB5
EndChar

StartChar: u0AA7.half
Encoding: 65585 -1 183
Width: 292
Flags: W
LayerCount: 2
Fore
SplineSet
309 195 m 1,0,-1
 308 106 l 1,1,2
 281 77 281 77 237.5 57.5 c 128,-1,3
 194 38 194 38 150 38 c 0,4,5
 127 38 127 38 106 44 c 0,6,7
 49 60 49 60 20.5 99.5 c 128,-1,8
 -8 139 -8 139 -8 187 c 0,9,10
 -8 224 -8 224 7 254.5 c 128,-1,11
 22 285 22 285 50 306 c 1,12,13
 26 322 26 322 12 344 c 0,14,15
 -6 372 -6 372 -6 405 c 0,16,17
 -6 412 -6 412 -4 426 c 0,18,19
 2 463 2 463 33 491 c 0,20,21
 71 524 71 524 143 541 c 1,22,-1
 193 486 l 1,23,24
 118 454 118 454 92 435.5 c 128,-1,25
 66 417 66 417 66 387 c 0,26,27
 66 370 66 370 72 358 c 128,-1,28
 78 346 78 346 91 333 c 1,29,30
 108 342 108 342 135 351 c 128,-1,31
 162 360 162 360 180 360 c 1,32,-1
 203 282 l 1,33,34
 125 262 125 262 81.5 231.5 c 128,-1,35
 38 201 38 201 38 167 c 0,36,37
 38 130 38 130 92 102 c 0,38,39
 103 96 103 96 121 96 c 0,40,41
 166 96 166 96 218 125 c 0,42,43
 275 157 275 157 293 198 c 1,44,-1
 309 195 l 1,0,-1
EndSplineSet
Ligature2: "'half' Half Forms in Gujarati lookup 4 subtable" u0AA7 u0ACD
EndChar

StartChar: u0AA8.half
Encoding: 65588 -1 187
Width: 301
Flags: W
LayerCount: 2
Fore
SplineSet
314 289 m 1,0,-1
 135 289 l 1,1,2
 135 256 135 256 128 243.5 c 128,-1,3
 121 231 121 231 102 226 c 1,4,5
 71 222 71 222 36 254 c 128,-1,6
 1 286 1 286 1 318 c 0,7,8
 1 335 1 335 12 346 c 0,9,10
 18 352 18 352 30.5 354.5 c 128,-1,11
 43 357 43 357 56 357 c 0,12,13
 64 357 64 357 65.5 357 c 128,-1,14
 67 357 67 357 68 357 c 2,15,-1
 313 357 l 1,16,-1
 314 289 l 1,0,-1
EndSplineSet
Ligature2: "'half' Half Forms in Gujarati lookup 4 subtable" u0AA8 u0ACD
EndChar

StartChar: u0AAA
Encoding: 2730 2730 189
Width: 555
Flags: W
LayerCount: 2
Fore
SplineSet
457 31 m 1,0,1
 444 15 444 15 423.5 7.5 c 128,-1,2
 403 0 403 0 381 0 c 0,3,4
 364 0 364 0 347 5 c 0,5,6
 289 20 289 20 289 84 c 2,7,-1
 289 104 l 1,8,9
 260 87 260 87 227 87 c 0,10,11
 177 87 177 87 141 121 c 0,12,13
 101 159 101 159 101 222 c 2,14,-1
 101 438 l 1,15,16
 86 445 86 445 68 425 c 0,17,18
 64 420 64 420 48 401 c 1,19,-1
 -7 462 l 1,20,21
 3 478 3 478 25 488 c 128,-1,22
 47 498 47 498 54 498 c 0,23,24
 64 499 64 499 69 499 c 0,25,26
 103 499 103 499 134 478 c 0,27,28
 153 464 153 464 161.5 439 c 128,-1,29
 170 414 170 414 170 381 c 2,30,-1
 169 173 l 1,31,32
 173 140 173 140 202 140 c 0,33,34
 228 140 228 140 256 166 c 128,-1,35
 284 192 284 192 289 226 c 1,36,-1
 289 510 l 1,37,-1
 357 440 l 1,38,-1
 357 55 l 1,39,40
 360 52 360 52 364 50 c 1,41,42
 381 61 381 61 393 98 c 1,43,-1
 457 31 l 1,0,1
EndSplineSet
EndChar

StartChar: u0AAA.half
Encoding: 65590 -1 190
Width: 293
Flags: W
LayerCount: 2
Fore
SplineSet
304 119 m 1,0,1
 272 91 272 91 226 91 c 0,2,3
 176 91 176 91 140 126 c 0,4,5
 101 164 101 164 101 228 c 2,6,-1
 101 448 l 1,7,8
 98 450 98 450 91 450 c 0,9,10
 81 450 81 450 69 437 c 1,11,12
 55 419 55 419 48 410 c 1,13,-1
 -7 473 l 1,14,15
 3 489 3 489 25 499 c 128,-1,16
 47 509 47 509 54 509 c 1,17,18
 60 510 60 510 71 510 c 0,19,20
 103 510 103 510 134 489 c 1,21,22
 153 474 153 474 161.5 448.5 c 128,-1,23
 170 423 170 423 170 390 c 2,24,-1
 170 178 l 1,25,26
 174 145 174 145 202 145 c 0,27,28
 228 145 228 145 256 172 c 128,-1,29
 284 199 284 199 289 233 c 1,30,-1
 304 232 l 1,31,-1
 304 119 l 1,0,1
EndSplineSet
Ligature2: "'half' Half Forms in Gujarati lookup 4 subtable" u0AAA u0ACD
EndChar

StartChar: u0AAB
Encoding: 2731 2731 192
Width: 484
Flags: W
LayerCount: 2
Fore
SplineSet
382 -98 m 1,0,1
 353 -115 353 -115 327.5 -123.5 c 128,-1,2
 302 -132 302 -132 273 -132 c 0,3,4
 251 -132 251 -132 236 -128.5 c 128,-1,5
 221 -125 221 -125 201 -112 c 1,6,7
 173 -96 173 -96 152 -60 c 0,8,9
 123 -9 123 -9 116 -2 c 1,10,11
 71 -2 71 -2 32.5 25 c 128,-1,12
 -6 52 -6 52 -6 82 c 0,13,14
 -6 94 -6 94 3 106 c 128,-1,15
 12 118 12 118 25.5 124.5 c 128,-1,16
 39 131 39 131 53 131 c 0,17,18
 58 131 58 131 61 130.5 c 128,-1,19
 64 130 64 130 71 127 c 0,20,21
 84 120 84 120 100 95 c 128,-1,22
 116 70 116 70 128 66 c 1,23,24
 178 66 178 66 206.5 91.5 c 128,-1,25
 235 117 235 117 235 155 c 0,26,27
 235 184 235 184 218.5 211.5 c 128,-1,28
 202 239 202 239 168 263 c 1,29,-1
 30 213 l 1,30,-1
 -4 275 l 1,31,-1
 92 309 l 1,32,33
 53 338 53 338 34.5 369.5 c 128,-1,34
 16 401 16 401 16 432 c 0,35,36
 16 470 16 470 45 494.5 c 128,-1,37
 74 519 74 519 121 519 c 0,38,39
 150 519 150 519 185 508 c 1,40,-1
 220 440 l 1,41,42
 189 447 189 447 164 447 c 0,43,44
 128 447 128 447 109 432.5 c 128,-1,45
 90 418 90 418 90 396 c 0,46,47
 90 378 90 378 102.5 358.5 c 128,-1,48
 115 339 115 339 137 325 c 1,49,-1
 278 377 l 1,50,-1
 313 317 l 1,51,-1
 220 283 l 1,52,53
 256 259 256 259 276.5 218 c 128,-1,54
 297 177 297 177 297 134 c 0,55,56
 297 76 297 76 265 39 c 0,57,58
 228 -3 228 -3 160 -3 c 1,59,60
 167 -17 167 -17 184 -33.5 c 128,-1,61
 201 -50 201 -50 215 -57.5 c 128,-1,62
 229 -65 229 -65 246 -65 c 0,63,64
 276 -65 276 -65 316 -45 c 0,65,66
 329 -39 329 -39 350 -25 c 1,67,-1
 382 -98 l 1,0,1
EndSplineSet
EndChar

